<svg width="221" height="98" xmlns="http://www.w3.org/2000/svg" xmlns:xlink="http://www.w3.org/1999/xlink" overflow="hidden"><defs><clipPath id="clip0"><path d="M530 311 751 311 751 409 530 409Z" fill-rule="evenodd" clip-rule="evenodd"/></clipPath><linearGradient x1="640" y1="316.331" x2="640" y2="402.731" gradientUnits="userSpaceOnUse" spreadMethod="reflect" id="fill1"><stop offset="0" stop-color="#FFFFFF"/><stop offset="0.2" stop-color="#FFFFFF"/><stop offset="0.8" stop-color="#BDD7EE"/><stop offset="1" stop-color="#BDD7EE"/></linearGradient></defs><g clip-path="url(#clip0)" transform="translate(-530 -311)"><path d="M708.728 353.448 722.369 353.448 722.369 354.222C721.408 354.362 720.716 354.549 720.294 354.783 719.38 355.298 718.923 356.094 718.923 357.171 718.923 358.107 719.401 359.78 720.357 362.19L726.236 377.249 731.369 364.577C732.634 361.418 733.267 359.183 733.267 357.873 733.267 356.819 732.974 355.983 732.388 355.362 731.802 354.742 730.947 354.362 729.822 354.222L729.822 353.448 739.876 353.448 739.876 354.222C738.869 354.503 738.124 354.796 737.644 355.101 737.163 355.405 736.701 355.886 736.255 356.542 735.576 357.573 734.497 359.882 733.021 363.468L722.826 388.218C721.607 391.171 720.622 393.093 719.872 393.984 718.607 395.46 717.001 396.198 715.056 396.198 713.814 396.198 712.812 395.958 712.05 395.478 711.288 394.997 710.908 394.37 710.908 393.597 710.908 392.987 711.13 392.501 711.574 392.138 712.018 391.775 712.602 391.593 713.326 391.593 713.934 391.593 714.635 391.757 715.43 392.085 716.201 392.39 716.697 392.577 716.92 392.648 717.142 392.718 717.405 392.753 717.708 392.753 719.157 392.753 720.337 391.659 721.248 389.47L722.336 386.787C722.803 385.658 723.036 384.787 723.036 384.175 723.036 383.309 722.593 381.799 721.705 379.645L714.419 362.123 713.369 359.595C712.736 358.096 712.244 357.031 711.892 356.399 711.54 355.767 711.189 355.31 710.837 355.029 710.251 354.585 709.548 354.316 708.728 354.222ZM605.536 353.448 615.872 353.448 615.872 371.273C615.872 373.78 615.96 375.638 616.135 376.845 616.311 378.052 616.632 379.042 617.1 379.816 617.614 380.612 618.351 381.239 619.309 381.696 620.268 382.154 621.344 382.382 622.536 382.382 623.846 382.382 625.073 382.125 626.219 381.61 627.365 381.095 628.265 380.393 628.919 379.503 629.597 378.59 630.048 377.537 630.27 376.343 630.492 375.149 630.603 373.183 630.603 370.444L630.603 363.562 630.568 360.964C630.568 359.372 630.48 358.213 630.304 357.487 630.128 356.762 629.771 356.141 629.232 355.626 628.576 354.994 627.357 354.526 625.576 354.222L625.576 353.448 635.911 353.448 635.911 372.515C635.911 374.926 635.976 376.617 636.105 377.588 636.234 378.56 636.486 379.35 636.861 379.958 637.283 380.614 637.775 381.088 638.337 381.381 638.9 381.673 639.708 381.855 640.763 381.925L640.763 382.663 631.095 383.964C630.79 382.537 630.638 381.074 630.638 379.576 627.708 382.501 624.24 383.964 620.232 383.964 617.302 383.964 614.947 383.25 613.165 381.822 611.431 380.417 610.564 378.427 610.564 375.852L610.564 363.633 610.529 360.964C610.529 359.372 610.435 358.213 610.247 357.488 610.06 356.762 609.708 356.141 609.193 355.626 608.513 354.994 607.294 354.526 605.536 354.222ZM654.033 352.921C655.228 352.921 656.341 353.132 657.372 353.554L658.568 354.081C658.943 354.222 659.271 354.292 659.552 354.292 659.997 354.292 660.419 353.941 660.818 353.237L661.521 353.237 661.908 361.218 661.169 361.218C660.912 360.093 660.638 359.191 660.346 358.511 660.054 357.831 659.639 357.175 659.101 356.542 658.377 355.652 657.535 354.954 656.577 354.45 655.619 353.946 654.672 353.695 653.738 353.695 652.429 353.695 651.313 354.169 650.39 355.118 649.467 356.068 649.005 357.234 649.005 358.616 649.005 359.765 649.42 360.802 650.25 361.728 651.081 362.654 652.361 363.503 654.091 364.277L657.809 365.964C660.031 366.972 661.691 368.226 662.79 369.726 663.889 371.226 664.439 372.995 664.439 375.034 664.439 377.495 663.642 379.534 662.048 381.152 660.22 383.027 657.876 383.964 655.017 383.964 653.47 383.964 651.9 383.659 650.306 383.05 649.275 382.652 648.654 382.423 648.443 382.364 648.232 382.306 647.962 382.277 647.634 382.277 646.814 382.277 646.193 382.628 645.771 383.331L645.208 383.331 645.208 373.382 645.771 373.382C646.426 375.819 647.244 377.765 648.226 379.218 650.026 381.866 652.13 383.191 654.539 383.191 656.011 383.191 657.286 382.745 658.361 381.855 659.53 380.87 660.115 379.476 660.115 377.671 660.115 376.194 659.694 374.905 658.852 373.804 658.385 373.218 657.794 372.679 657.081 372.187 656.368 371.694 655.169 371.003 653.486 370.112 650.54 368.542 648.576 367.23 647.594 366.175 646.191 364.675 645.49 362.941 645.49 360.972 645.49 358.862 646.193 357.046 647.599 355.523 649.216 353.788 651.361 352.921 654.033 352.921ZM684.638 336.433 684.638 358.546 688.083 358.546C690.404 358.546 692.191 358.376 693.445 358.036 694.699 357.696 695.818 357.07 696.802 356.155 699.099 354.07 700.247 351.292 700.247 347.823 700.247 345.902 699.913 344.138 699.245 342.532 698.578 340.927 697.622 339.62 696.38 338.612 694.951 337.417 693.251 336.714 691.283 336.503 690.744 336.456 689.513 336.433 687.591 336.433ZM669.556 335.343 690.755 335.343C694.458 335.343 697.189 335.53 698.947 335.905 700.704 336.28 702.31 337.03 703.763 338.155 707.091 340.687 708.755 344.062 708.755 348.28 708.755 352.57 707.068 355.71 703.693 357.702 701.935 358.734 699.802 359.355 697.294 359.566 696.497 359.636 694.576 359.671 691.529 359.671L684.638 359.671 684.638 372.292C684.638 374.683 684.773 376.458 685.042 377.618 685.312 378.779 685.81 379.734 686.536 380.484 687.169 381.14 687.902 381.626 688.734 381.943 689.566 382.259 690.661 382.452 692.021 382.523L692.021 383.331 669.556 383.331 669.556 382.523C670.915 382.452 672.011 382.259 672.843 381.943 673.675 381.626 674.408 381.14 675.04 380.484 675.79 379.734 676.294 378.784 676.552 377.636 676.81 376.487 676.939 374.706 676.939 372.292L676.939 346.382C676.939 344.366 676.851 342.814 676.675 341.724 676.499 340.634 676.201 339.749 675.779 339.069 675.169 338.132 674.396 337.435 673.458 336.978 672.521 336.521 671.302 336.245 669.802 336.152L669.556 336.152ZM542.556 335.343 557.814 335.343 573.036 372.925 588.822 335.343 603.271 335.343 603.271 336.152C601.935 336.222 600.863 336.403 600.054 336.696 599.245 336.989 598.501 337.476 597.822 338.155 597.306 338.648 596.919 339.193 596.661 339.79 596.404 340.388 596.228 341.144 596.134 342.058 595.97 343.277 595.888 344.718 595.888 346.382L595.888 372.292C595.888 374.706 596.029 376.499 596.31 377.671 596.591 378.843 597.095 379.78 597.822 380.484 599.111 381.726 600.927 382.405 603.271 382.523L603.271 383.331 580.806 383.331 580.806 382.523C582.165 382.452 583.261 382.259 584.093 381.943 584.925 381.626 585.669 381.14 586.326 380.484 587.052 379.734 587.55 378.779 587.82 377.618 588.089 376.458 588.224 374.683 588.224 372.292L588.224 340.862 570.119 383.331 569.38 383.331 551.38 341.495 551.38 372.292C551.38 374.706 551.515 376.487 551.785 377.636 552.054 378.784 552.552 379.734 553.279 380.484 553.935 381.163 554.679 381.655 555.511 381.96 556.343 382.265 557.427 382.452 558.763 382.523L558.763 383.331 542.556 383.331 542.556 382.523C543.892 382.452 544.976 382.265 545.808 381.96 546.64 381.655 547.384 381.163 548.04 380.484 548.767 379.734 549.265 378.779 549.535 377.618 549.804 376.458 549.939 374.683 549.939 372.292L549.939 346.382C549.939 345.304 549.904 344.284 549.833 343.323 549.716 341.589 549.447 340.323 549.025 339.527 548.439 338.425 547.636 337.611 546.617 337.083 545.597 336.556 544.244 336.245 542.556 336.152Z" fill="url(#fill1)" fill-rule="evenodd"/><text fill="#000000" fill-opacity="0" font-family="Arial,Arial_MSFontService,sans-serif" font-size="60.8555" x="542.556" y="388.591">MusPy</text></g></svg>