<svg width="830" height="338" xmlns="http://www.w3.org/2000/svg" xmlns:xlink="http://www.w3.org/1999/xlink" overflow="hidden"><defs><clipPath id="clip0"><path d="M65 186 895 186 895 524 65 524Z" fill-rule="evenodd" clip-rule="evenodd"/></clipPath></defs><g clip-path="url(#clip0)" transform="translate(-65 -186)"><path d="M373.5 342.5C373.5 338.082 377.082 334.5 381.5 334.5L519.5 334.5C523.918 334.5 527.5 338.082 527.5 342.5L527.5 374.5C527.5 378.918 523.918 382.5 519.5 382.5L381.5 382.5C377.082 382.5 373.5 378.918 373.5 374.5Z" stroke="#4472C4" stroke-width="3" stroke-miterlimit="8" fill="#F0F4FA" fill-rule="evenodd"/><text fill="#2F5597" font-family="Calibri,Calibri_MSFontService,sans-serif" font-weight="700" font-size="21" transform="translate(389.559 365)">MusPy object</text><path d="M353.933 359 303 359 303 357 353.933 357ZM352.6 354 360.6 358 352.6 362Z" fill="#4472C4"/><text fill="#2F5597" font-family="Calibri,Calibri_MSFontService,sans-serif" font-weight="300" font-size="19" transform="translate(311.022 347)">parse</text><rect x="612.5" y="315.5" width="281" height="87" stroke="#4472C4" stroke-width="3" stroke-miterlimit="8" fill="#F0F4FA"/><text fill="#2F5597" font-family="Arial,Arial_MSFontService,sans-serif" font-weight="400" font-size="21" transform="translate(622.088 339)">•<tspan font-family="Calibri,Calibri_MSFontService,sans-serif" x="18.3333" y="0">pianoroll</tspan><tspan font-family="Calibri,Calibri_MSFontService,sans-serif" x="99.9866" y="0">representation</tspan><tspan x="0" y="26">•</tspan><tspan font-family="Calibri,Calibri_MSFontService,sans-serif" x="18.3333" y="26">event</tspan><tspan font-family="Calibri,Calibri_MSFontService,sans-serif" x="67.1533" y="26">-</tspan><tspan font-family="Calibri,Calibri_MSFontService,sans-serif" x="73.6533" y="26">based representation</tspan><tspan x="0" y="51">•</tspan><tspan font-family="Calibri,Calibri_MSFontService,sans-serif" x="18.3333" y="51">note</tspan><tspan font-family="Calibri,Calibri_MSFontService,sans-serif" x="58.44" y="51">-</tspan><tspan font-family="Calibri,Calibri_MSFontService,sans-serif" x="64.94" y="51">based representation</tspan></text><path d="M590.933 356 540 356 540 354 590.933 354ZM589.6 351 597.6 355 589.6 359Z" fill="#4472C4"/><path d="M597.6 363 546.667 363 546.667 361 597.6 361ZM548 366 540 362 548 358Z" fill="#4472C4"/><text fill="#2F5597" font-family="Calibri,Calibri_MSFontService,sans-serif" font-weight="300" font-size="19" transform="translate(551.089 384)">from<tspan x="10.2399" y="-40">to</tspan></text><path d="M164.945 212.393C164.604 212.393 164.148 212.393 163.806 212.393 163.806 212.393 163.806 212.393 163.806 212.393 163.806 207.491 161.073 202.99 156.63 200.189 152.074 197.388 146.265 196.688 141.025 198.288 136.697 190.886 127.129 187.085 118.017 188.985 108.904 190.886 102.298 198.088 102.298 206.391 102.298 206.391 102.298 206.491 102.298 206.591 96.0329 205.691 89.7681 207.991 85.8953 212.393 82.1365 216.894 81.4531 222.796 84.0728 227.797 86.8066 232.799 92.5018 236.1 98.7666 236.4L98.7666 236.5 164.832 236.5C172.349 236.5 178.5 231.098 178.5 224.496 178.5 217.894 172.463 212.393 164.945 212.393Z" stroke="#A5A5A5" stroke-width="3" stroke-miterlimit="8" fill="#F2F2F2" fill-rule="evenodd"/><text fill="#525252" font-family="Calibri,Calibri_MSFontService,sans-serif" font-weight="400" font-size="21" transform="translate(98.5765 226)">remote</text><path d="M131 244 131 285.333 129 285.333 129 244ZM134 284 130 292 126 284Z" fill="#4472C4"/><path d="M78 338.5C78 335.462 90.7599 333 106.5 333 122.24 333 135 335.462 135 338.5L135 360.5C135 363.538 122.24 366 106.5 366 90.7599 366 78 363.538 78 360.5Z" fill="#F0F4FA" fill-rule="evenodd"/><path d="M135 338.5C135 341.538 122.24 344 106.5 344 90.7599 344 78 341.538 78 338.5" stroke="#4472C4" stroke-width="2" stroke-miterlimit="8" fill="none" fill-rule="evenodd"/><path d="M78 338.5C78 335.462 90.7599 333 106.5 333 122.24 333 135 335.462 135 338.5L135 360.5C135 363.538 122.24 366 106.5 366 90.7599 366 78 363.538 78 360.5Z" stroke="#4472C4" stroke-width="2" stroke-miterlimit="8" fill="none" fill-rule="evenodd"/><text fill="#2F5597" font-family="Calibri,Calibri_MSFontService,sans-serif" font-weight="400" font-size="16" transform="translate(82.2035 359)">dataset</text><path d="M143 338.5C143 335.462 155.984 333 172 333 188.016 333 201 335.462 201 338.5L201 360.5C201 363.538 188.016 366 172 366 155.984 366 143 363.538 143 360.5Z" fill="#F0F4FA" fill-rule="evenodd"/><path d="M201 338.5C201 341.538 188.016 344 172 344 155.984 344 143 341.538 143 338.5" stroke="#4472C4" stroke-width="2" stroke-miterlimit="8" fill="none" fill-rule="evenodd"/><path d="M143 338.5C143 335.462 155.984 333 172 333 188.016 333 201 335.462 201 338.5L201 360.5C201 363.538 188.016 366 172 366 155.984 366 143 363.538 143 360.5Z" stroke="#4472C4" stroke-width="2" stroke-miterlimit="8" fill="none" fill-rule="evenodd"/><text fill="#2F5597" font-family="Calibri,Calibri_MSFontService,sans-serif" font-weight="400" font-size="16" transform="translate(148.107 359)">dataset</text><path d="M210 338.5C210 335.462 222.984 333 239 333 255.016 333 268 335.462 268 338.5L268 360.5C268 363.538 255.016 366 239 366 222.984 366 210 363.538 210 360.5Z" fill="#F0F4FA" fill-rule="evenodd"/><path d="M268 338.5C268 341.538 255.016 344 239 344 222.984 344 210 341.538 210 338.5" stroke="#4472C4" stroke-width="2" stroke-miterlimit="8" fill="none" fill-rule="evenodd"/><path d="M210 338.5C210 335.462 222.984 333 239 333 255.016 333 268 335.462 268 338.5L268 360.5C268 363.538 255.016 366 239 366 222.984 366 210 363.538 210 360.5Z" stroke="#4472C4" stroke-width="2" stroke-miterlimit="8" fill="none" fill-rule="evenodd"/><text fill="#2F5597" font-family="Calibri,Calibri_MSFontService,sans-serif" font-weight="400" font-size="16" transform="translate(214.734 359)">dataset</text><path d="M111 380.5C111 377.462 123.76 375 139.5 375 155.24 375 168 377.462 168 380.5L168 402.5C168 405.538 155.24 408 139.5 408 123.76 408 111 405.538 111 402.5Z" fill="#F0F4FA" fill-rule="evenodd"/><path d="M168 380.5C168 383.538 155.24 386 139.5 386 123.76 386 111 383.538 111 380.5" stroke="#4472C4" stroke-width="2" stroke-miterlimit="8" fill="none" fill-rule="evenodd"/><path d="M111 380.5C111 377.462 123.76 375 139.5 375 155.24 375 168 377.462 168 380.5L168 402.5C168 405.538 155.24 408 139.5 408 123.76 408 111 405.538 111 402.5Z" stroke="#4472C4" stroke-width="2" stroke-miterlimit="8" fill="none" fill-rule="evenodd"/><text fill="#2F5597" font-family="Calibri,Calibri_MSFontService,sans-serif" font-weight="400" font-size="16" transform="translate(115.546 401)">dataset</text><path d="M177 380.5C177 377.462 189.76 375 205.5 375 221.24 375 234 377.462 234 380.5L234 402.5C234 405.538 221.24 408 205.5 408 189.76 408 177 405.538 177 402.5Z" fill="#F0F4FA" fill-rule="evenodd"/><path d="M234 380.5C234 383.538 221.24 386 205.5 386 189.76 386 177 383.538 177 380.5" stroke="#4472C4" stroke-width="2" stroke-miterlimit="8" fill="none" fill-rule="evenodd"/><path d="M177 380.5C177 377.462 189.76 375 205.5 375 221.24 375 234 377.462 234 380.5L234 402.5C234 405.538 221.24 408 205.5 408 189.76 408 177 405.538 177 402.5Z" stroke="#4472C4" stroke-width="2" stroke-miterlimit="8" fill="none" fill-rule="evenodd"/><text fill="#2F5597" font-family="Calibri,Calibri_MSFontService,sans-serif" font-weight="400" font-size="16" transform="translate(181.318 401)">dataset</text><path d="M67.5001 320.667C67.5001 310.081 76.0814 301.5 86.667 301.5L259.333 301.5C269.919 301.5 278.5 310.081 278.5 320.667L278.5 397.333C278.5 407.919 269.919 416.5 259.333 416.5L86.667 416.5C76.0814 416.5 67.5001 407.919 67.5001 397.333Z" stroke="#4472C4" stroke-width="3" stroke-miterlimit="8" stroke-dasharray="3 3" fill="none" fill-rule="evenodd"/><rect x="674.5" y="480.5" width="157" height="36" stroke="#548235" stroke-width="3" stroke-miterlimit="8" fill="#EEF7E9"/><text fill="#385723" font-family="Calibri,Calibri_MSFontService,sans-serif" font-weight="400" font-size="21" transform="translate(683.307 505)">PyTorch<tspan x="72.7534" y="0">dataset</tspan><tspan fill="#4472C4" font-weight="300" font-size="19" x="-541.95" y="-231">download</tspan><tspan fill="#2F5597" font-weight="300" font-size="19" x="-591.601" y="-184">dataset</tspan><tspan fill="#2F5597" font-weight="300" font-size="19" x="-531.981" y="-184">management</tspan></text><path d="M1.00001 6.66666 1.0001 57.6-0.999895 57.6-0.999988 6.66666ZM-3.99999 8.00001 0 0 4.00001 7.99999Z" fill="#4472C4" transform="matrix(1 0 0 -1 757 469.6)"/><path d="M1-1.82269e-06 1.00009 50.9333-0.999907 50.9333-1 1.82269e-06ZM4.00009 49.6 0.000104987 57.6-3.99991 49.6Z" fill="#4472C4" transform="matrix(1 0 0 -1 749 469.6)"/><text fill="#2F5597" font-family="Calibri,Calibri_MSFontService,sans-serif" font-weight="300" font-size="19" transform="translate(702.024 447)">from<tspan x="65.9862" y="0">to</tspan></text></g></svg>