<svg width="543" height="505" xmlns="http://www.w3.org/2000/svg" xmlns:xlink="http://www.w3.org/1999/xlink" overflow="hidden"><defs><clipPath id="clip0"><path d="M663 111 1206 111 1206 616 663 616Z" fill-rule="evenodd" clip-rule="evenodd"/></clipPath></defs><g clip-path="url(#clip0)" transform="translate(-663 -111)"><path d="M772.945 137.393C772.604 137.393 772.148 137.393 771.806 137.393 771.806 137.393 771.806 137.393 771.806 137.393 771.806 132.491 769.073 127.99 764.63 125.189 760.074 122.388 754.265 121.688 749.025 123.288 744.697 115.886 735.129 112.085 726.017 113.985 716.904 115.886 710.298 123.088 710.298 131.391 710.298 131.391 710.298 131.491 710.298 131.591 704.033 130.691 697.768 132.991 693.895 137.393 690.137 141.894 689.453 147.796 692.073 152.797 694.807 157.799 700.502 161.1 706.767 161.4L706.767 161.5 772.832 161.5C780.349 161.5 786.5 156.098 786.5 149.496 786.5 142.894 780.463 137.393 772.945 137.393Z" stroke="#A5A5A5" stroke-width="3" stroke-miterlimit="8" fill="#F2F2F2" fill-rule="evenodd"/><text fill="#525252" font-family="Calibri,Calibri_MSFontService,sans-serif" font-weight="400" font-size="19" transform="translate(709.648 150)">remote</text><path d="M739 167 739 189.133 737 189.133 737 167ZM742 187.8 738 195.8 734 187.8Z" fill="#4472C4"/><path d="M689.5 210C689.5 204.753 710.99 200.5 737.5 200.5 764.01 200.5 785.5 204.753 785.5 210L785.5 248C785.5 253.247 764.01 257.5 737.5 257.5 710.99 257.5 689.5 253.247 689.5 248Z" fill="#FCEEE4" fill-rule="evenodd"/><path d="M785.5 210C785.5 215.247 764.01 219.5 737.5 219.5 710.99 219.5 689.5 215.247 689.5 210" stroke="#843C0C" stroke-width="3" stroke-miterlimit="8" fill="none" fill-rule="evenodd"/><path d="M689.5 210C689.5 204.753 710.99 200.5 737.5 200.5 764.01 200.5 785.5 204.753 785.5 210L785.5 248C785.5 253.247 764.01 257.5 737.5 257.5 710.99 257.5 689.5 253.247 689.5 248Z" stroke="#843C0C" stroke-width="3" stroke-miterlimit="8" fill="none" fill-rule="evenodd"/><text fill="#843C0C" font-family="Calibri,Calibri_MSFontService,sans-serif" font-weight="400" font-size="19" transform="translate(712.294 233)">source<tspan x="-3.13336" y="19">dataset</tspan><tspan fill="#006600" font-style="italic" x="136.077" y="-36"># Download and extract the dataset</tspan><tspan fill="#000000" font-family="Consolas,Consolas_MSFontService,sans-serif" x="136.077" y="-13">nes</tspan><tspan fill="#000000" font-family="Consolas,Consolas_MSFontService,sans-serif" x="177.41" y="-13">= </tspan><tspan fill="#000000" font-family="Consolas,Consolas_MSFontService,sans-serif" x="198.077" y="-13">muspy.NESMusicDatabase</tspan><tspan fill="#000000" font-family="Consolas,Consolas_MSFontService,sans-serif" x="425.41" y="-13">(</tspan><tspan fill="#000000" font-family="Consolas,Consolas_MSFontService,sans-serif" x="156.744" y="9">root="data/</tspan><tspan fill="#000000" font-family="Consolas,Consolas_MSFontService,sans-serif" x="270.41" y="9">nes</tspan><tspan fill="#000000" font-family="Consolas,Consolas_MSFontService,sans-serif" x="301.41" y="9">/",</tspan><tspan fill="#000000" font-family="Consolas,Consolas_MSFontService,sans-serif" x="156.744" y="32">download_and_extract</tspan><tspan fill="#000000" font-family="Consolas,Consolas_MSFontService,sans-serif" x="363.41" y="32">=True)</tspan><tspan fill="#006600" font-style="italic" x="136.077" y="87"># Convert the dataset to </tspan><tspan fill="#006600" font-style="italic" x="322.67" y="87">MusPy</tspan><tspan fill="#006600" font-style="italic" x="377.957" y="87">Music objects</tspan><tspan fill="#000000" font-family="Consolas,Consolas_MSFontService,sans-serif" x="136.077" y="110">nes.convert</tspan><tspan fill="#000000" font-family="Consolas,Consolas_MSFontService,sans-serif" x="249.744" y="110">()</tspan></text><path d="M689.5 307.167C689.5 301.828 710.99 297.5 737.5 297.5 764.01 297.5 785.5 301.828 785.5 307.167L785.5 345.833C785.5 351.172 764.01 355.5 737.5 355.5 710.99 355.5 689.5 351.172 689.5 345.833Z" fill="#F0F4FA" fill-rule="evenodd"/><path d="M785.5 307.167C785.5 312.505 764.01 316.833 737.5 316.833 710.99 316.833 689.5 312.505 689.5 307.167" stroke="#4472C4" stroke-width="3" stroke-miterlimit="8" fill="none" fill-rule="evenodd"/><path d="M689.5 307.167C689.5 301.828 710.99 297.5 737.5 297.5 764.01 297.5 785.5 301.828 785.5 307.167L785.5 345.833C785.5 351.172 764.01 355.5 737.5 355.5 710.99 355.5 689.5 351.172 689.5 345.833Z" stroke="#4472C4" stroke-width="3" stroke-miterlimit="8" fill="none" fill-rule="evenodd"/><text fill="#2F5597" font-family="Calibri,Calibri_MSFontService,sans-serif" font-weight="400" font-size="19" transform="translate(698.424 331)">converted<tspan x="9.91333" y="19">dataset</tspan></text><path d="M739 263 739 285.133 737 285.133 737 263ZM742 283.8 738 291.8 734 283.8Z" fill="#4472C4"/><path d="M690.5 403.833C690.5 400.336 693.336 397.5 696.833 397.5L799.167 397.5C802.664 397.5 805.5 400.336 805.5 403.833L805.5 429.167C805.5 432.664 802.664 435.5 799.167 435.5L696.833 435.5C693.336 435.5 690.5 432.664 690.5 429.167Z" stroke="#4472C4" stroke-width="3" stroke-miterlimit="8" fill="#F0F4FA" fill-rule="evenodd"/><path d="M685.5 409.833C685.5 406.336 688.336 403.5 691.833 403.5L794.167 403.5C797.664 403.5 800.5 406.336 800.5 409.833L800.5 435.167C800.5 438.664 797.664 441.5 794.167 441.5L691.833 441.5C688.336 441.5 685.5 438.664 685.5 435.167Z" stroke="#4472C4" stroke-width="3" stroke-miterlimit="8" fill="#F0F4FA" fill-rule="evenodd"/><path d="M679.5 416C679.5 412.41 682.41 409.5 686 409.5L789 409.5C792.59 409.5 795.5 412.41 795.5 416L795.5 442C795.5 445.59 792.59 448.5 789 448.5L686 448.5C682.41 448.5 679.5 445.59 679.5 442Z" stroke="#4472C4" stroke-width="3" stroke-miterlimit="8" fill="#F0F4FA" fill-rule="evenodd"/><path d="M674.5 422.833C674.5 419.336 677.336 416.5 680.833 416.5L783.167 416.5C786.664 416.5 789.5 419.336 789.5 422.833L789.5 448.167C789.5 451.664 786.664 454.5 783.167 454.5L680.833 454.5C677.336 454.5 674.5 451.664 674.5 448.167Z" stroke="#4472C4" stroke-width="3" stroke-miterlimit="8" fill="#F0F4FA" fill-rule="evenodd"/><path d="M668.5 429.833C668.5 426.336 671.336 423.5 674.833 423.5L777.167 423.5C780.664 423.5 783.5 426.336 783.5 429.833L783.5 455.167C783.5 458.664 780.664 461.5 777.167 461.5L674.833 461.5C671.336 461.5 668.5 458.664 668.5 455.167Z" stroke="#4472C4" stroke-width="3" stroke-miterlimit="8" fill="#F0F4FA" fill-rule="evenodd"/><text fill="#2F5597" font-family="Calibri,Calibri_MSFontService,sans-serif" font-weight="400" font-size="19" transform="translate(675.221 448)">Music objects</text><path d="M739 362 739 384.133 737 384.133 737 362ZM742 382.8 738 390.8 734 382.8Z" fill="#4472C4"/><text fill="#006600" font-family="Calibri,Calibri_MSFontService,sans-serif" font-style="italic" font-weight="400" font-size="19" transform="translate(848.372 411)"># Iterate over the dataset<tspan fill="#000000" font-family="Consolas,Consolas_MSFontService,sans-serif" font-style="normal" x="0" y="23">for music in </tspan><tspan fill="#000000" font-family="Consolas,Consolas_MSFontService,sans-serif" font-style="normal" x="134.333" y="23">nes</tspan><tspan fill="#000000" font-family="Consolas,Consolas_MSFontService,sans-serif" font-style="normal" x="165.333" y="23">:</tspan><tspan fill="#000000" font-family="Consolas,Consolas_MSFontService,sans-serif" font-style="normal" x="20.6667" y="45">do_something</tspan><tspan fill="#000000" font-family="Consolas,Consolas_MSFontService,sans-serif" font-style="normal" x="144.667" y="45">(music)</tspan><tspan x="0" y="111"># </tspan>Convert to a <tspan x="109.78" y="111">PyTorch</tspan><tspan x="172.987" y="111">dataset</tspan><tspan fill="#000000" font-family="Consolas,Consolas_MSFontService,sans-serif" font-style="normal" x="0" y="134">dataset = </tspan><tspan fill="#000000" font-family="Consolas,Consolas_MSFontService,sans-serif" font-style="normal" x="103.333" y="134">nes.to_pytorch_dataset</tspan><tspan fill="#000000" font-family="Consolas,Consolas_MSFontService,sans-serif" font-style="normal" x="330.667" y="134">(</tspan><tspan fill="#000000" font-family="Consolas,Consolas_MSFontService,sans-serif" font-style="normal" x="20.6667" y="156">representation=</tspan><tspan fill="#000000" font-family="Consolas,Consolas_MSFontService,sans-serif" font-style="normal" x="175.667" y="156">"</tspan><tspan fill="#000000" font-family="Consolas,Consolas_MSFontService,sans-serif" font-style="normal" x="186" y="156">pianoroll</tspan><tspan fill="#000000" font-family="Consolas,Consolas_MSFontService,sans-serif" font-style="normal" x="279" y="156">")</tspan></text><rect x="690.5" y="502.5" width="115" height="48" stroke="#4472C4" stroke-width="3" stroke-miterlimit="8" fill="#F0F4FA"/><rect x="685.5" y="509.5" width="115" height="48" stroke="#4472C4" stroke-width="3" stroke-miterlimit="8" fill="#F0F4FA"/><rect x="679.5" y="515.5" width="116" height="48" stroke="#4472C4" stroke-width="3" stroke-miterlimit="8" fill="#F0F4FA"/><rect x="674.5" y="522.5" width="115" height="48" stroke="#4472C4" stroke-width="3" stroke-miterlimit="8" fill="#F0F4FA"/><rect x="668.5" y="528.5" width="115" height="48" stroke="#4472C4" stroke-width="3" stroke-miterlimit="8" fill="#F0F4FA"/><path d="M668.5 560.5 703.381 560.5" stroke="#4472C4" stroke-width="3" stroke-miterlimit="8" fill="none" fill-rule="evenodd"/><path d="M707.5 551.5 716.778 551.5" stroke="#4472C4" stroke-width="3" stroke-miterlimit="8" fill="none" fill-rule="evenodd"/><path d="M720.5 555.5 737.117 555.5" stroke="#4472C4" stroke-width="3" stroke-miterlimit="8" fill="none" fill-rule="evenodd"/><path d="M760.5 550.5 783.833 550.5" stroke="#4472C4" stroke-width="3" stroke-miterlimit="8" fill="none" fill-rule="evenodd"/><path d="M737.5 544.5 760.01 544.5" stroke="#4472C4" stroke-width="3" stroke-miterlimit="8" fill="none" fill-rule="evenodd"/><path d="M739 468 739 490.133 737 490.133 737 468ZM742 488.8 738 496.8 734 488.8Z" fill="#4472C4"/><text fill="#2F5597" font-family="Calibri,Calibri_MSFontService,sans-serif" font-weight="400" font-size="19" transform="translate(688.083 599)">training data</text></g></svg>