<svg width="583" height="505" xmlns="http://www.w3.org/2000/svg" xmlns:xlink="http://www.w3.org/1999/xlink" overflow="hidden"><defs><clipPath id="clip0"><path d="M48 111 631 111 631 616 48 616Z" fill-rule="evenodd" clip-rule="evenodd"/></clipPath></defs><g clip-path="url(#clip0)" transform="translate(-48 -111)"><path d="M160.945 137.393C160.604 137.393 160.148 137.393 159.806 137.393 159.806 137.393 159.806 137.393 159.806 137.393 159.806 132.491 157.073 127.99 152.63 125.189 148.074 122.388 142.265 121.688 137.025 123.288 132.697 115.886 123.129 112.085 114.017 113.985 104.904 115.886 98.2976 123.088 98.2976 131.391 98.2976 131.391 98.2976 131.491 98.2976 131.591 92.0329 130.691 85.7681 132.991 81.8953 137.393 78.1365 141.894 77.4531 147.796 80.0728 152.797 82.8066 157.799 88.5018 161.1 94.7666 161.4L94.7666 161.5 160.832 161.5C168.349 161.5 174.5 156.098 174.5 149.496 174.5 142.894 168.463 137.393 160.945 137.393Z" stroke="#A5A5A5" stroke-width="3" stroke-miterlimit="8" fill="#F2F2F2" fill-rule="evenodd"/><text fill="#525252" font-family="Arial,Arial_MSFontService,sans-serif" font-weight="400" font-size="19" transform="translate(93.0033 151)">R<tspan x="13.5" y="0">emote</tspan></text><path d="M127 167 127 184.333 125 184.333 125 167ZM130 183 126 191 122 183Z" fill="#4472C4"/><path d="M78.5001 206.667C78.5001 200.5 99.9904 195.5 126.5 195.5 153.01 195.5 174.5 200.5 174.5 206.667L174.5 251.333C174.5 257.501 153.01 262.5 126.5 262.5 99.9904 262.5 78.5001 257.501 78.5001 251.333Z" fill="#FCEEE4" fill-rule="evenodd"/><path d="M174.5 206.667C174.5 212.834 153.01 217.833 126.5 217.833 99.9904 217.833 78.5001 212.834 78.5001 206.667" stroke="#843C0C" stroke-width="3" stroke-miterlimit="8" fill="none" fill-rule="evenodd"/><path d="M78.5001 206.667C78.5001 200.5 99.9904 195.5 126.5 195.5 153.01 195.5 174.5 200.5 174.5 206.667L174.5 251.333C174.5 257.501 153.01 262.5 126.5 262.5 99.9904 262.5 78.5001 257.501 78.5001 251.333Z" stroke="#843C0C" stroke-width="3" stroke-miterlimit="8" fill="none" fill-rule="evenodd"/><text fill="#843C0C" font-family="Arial,Arial_MSFontService,sans-serif" font-weight="400" font-size="19" transform="translate(96.0732 234)">Source<tspan x="-1" y="19">dataset</tspan><tspan fill="#006600" x="140.377" y="-30"># Download and extract the dataset</tspan><tspan fill="#000000" font-family="Lucida Console,Lucida Console_MSFontService,sans-serif" font-stretch="semi-condensed" x="140.377" y="-8">nes</tspan><tspan fill="#000000" font-family="Lucida Console,Lucida Console_MSFontService,sans-serif" font-stretch="semi-condensed" x="185.044" y="-8">= </tspan><tspan fill="#000000" font-family="Lucida Console,Lucida Console_MSFontService,sans-serif" font-stretch="semi-condensed" x="207.377" y="-8">muspy.NESMusicDatabase</tspan><tspan fill="#000000" font-family="Lucida Console,Lucida Console_MSFontService,sans-serif" font-stretch="semi-condensed" x="453.044" y="-8">(</tspan><tspan fill="#000000" font-family="Lucida Console,Lucida Console_MSFontService,sans-serif" font-stretch="semi-condensed" x="162.71" y="14">root="data/</tspan><tspan fill="#000000" font-family="Lucida Console,Lucida Console_MSFontService,sans-serif" font-stretch="semi-condensed" x="285.544" y="14">nes</tspan><tspan fill="#000000" font-family="Lucida Console,Lucida Console_MSFontService,sans-serif" font-stretch="semi-condensed" x="319.044" y="14">/",</tspan><tspan fill="#000000" font-family="Lucida Console,Lucida Console_MSFontService,sans-serif" font-stretch="semi-condensed" x="162.71" y="37">download_and_extract</tspan><tspan fill="#000000" font-family="Lucida Console,Lucida Console_MSFontService,sans-serif" font-stretch="semi-condensed" x="386.044" y="37">=True)</tspan><tspan fill="#006600" x="140.377" y="91"># Convert the dataset to </tspan><tspan fill="#006600" x="344.044" y="91">MusPy</tspan><tspan fill="#006600" x="406.21" y="91">Music objects</tspan><tspan fill="#000000" font-family="Lucida Console,Lucida Console_MSFontService,sans-serif" font-stretch="semi-condensed" x="140.377" y="113">nes.convert</tspan><tspan fill="#000000" font-family="Lucida Console,Lucida Console_MSFontService,sans-serif" font-stretch="semi-condensed" x="263.21" y="113">()</tspan></text><path d="M77.5001 307.667C77.5001 301.5 98.9904 296.5 125.5 296.5 152.01 296.5 173.5 301.5 173.5 307.667L173.5 352.333C173.5 358.501 152.01 363.5 125.5 363.5 98.9904 363.5 77.5001 358.501 77.5001 352.333Z" fill="#F0F4FA" fill-rule="evenodd"/><path d="M173.5 307.667C173.5 313.834 152.01 318.833 125.5 318.833 98.9904 318.833 77.5001 313.834 77.5001 307.667" stroke="#4472C4" stroke-width="3" stroke-miterlimit="8" fill="none" fill-rule="evenodd"/><path d="M77.5001 307.667C77.5001 301.5 98.9904 296.5 125.5 296.5 152.01 296.5 173.5 301.5 173.5 307.667L173.5 352.333C173.5 358.501 152.01 363.5 125.5 363.5 98.9904 363.5 77.5001 358.501 77.5001 352.333Z" stroke="#4472C4" stroke-width="3" stroke-miterlimit="8" fill="none" fill-rule="evenodd"/><text fill="#2F5597" font-family="Arial,Arial_MSFontService,sans-serif" font-weight="400" font-size="19" transform="translate(81.8328 335)">Converted<tspan x="12.42" y="19">dataset</tspan></text><path d="M127 266 127 283.333 125 283.333 125 266ZM130 282 126 290 122 282Z" fill="#4472C4"/><path d="M74.5001 405.833C74.5001 402.336 77.3356 399.5 80.8334 399.5L193.167 399.5C196.665 399.5 199.5 402.336 199.5 405.833L199.5 431.167C199.5 434.664 196.665 437.5 193.167 437.5L80.8334 437.5C77.3356 437.5 74.5001 434.664 74.5001 431.167Z" stroke="#4472C4" stroke-width="3" stroke-miterlimit="8" fill="#F0F4FA" fill-rule="evenodd"/><path d="M69.5001 412C69.5001 408.41 72.4103 405.5 76.0002 405.5L188 405.5C191.59 405.5 194.5 408.41 194.5 412L194.5 438C194.5 441.59 191.59 444.5 188 444.5L76.0002 444.5C72.4103 444.5 69.5001 441.59 69.5001 438Z" stroke="#4472C4" stroke-width="3" stroke-miterlimit="8" fill="#F0F4FA" fill-rule="evenodd"/><path d="M63.5001 418.833C63.5001 415.336 66.3356 412.5 69.8334 412.5L182.167 412.5C185.665 412.5 188.5 415.336 188.5 418.833L188.5 444.167C188.5 447.664 185.665 450.5 182.167 450.5L69.8334 450.5C66.3356 450.5 63.5001 447.664 63.5001 444.167Z" stroke="#4472C4" stroke-width="3" stroke-miterlimit="8" fill="#F0F4FA" fill-rule="evenodd"/><path d="M58.5001 425C58.5001 421.41 61.4103 418.5 65.0002 418.5L177 418.5C180.59 418.5 183.5 421.41 183.5 425L183.5 451C183.5 454.59 180.59 457.5 177 457.5L65.0002 457.5C61.4103 457.5 58.5001 454.59 58.5001 451Z" stroke="#4472C4" stroke-width="3" stroke-miterlimit="8" fill="#F0F4FA" fill-rule="evenodd"/><path d="M52.5001 431.833C52.5001 428.336 55.3356 425.5 58.8334 425.5L171.167 425.5C174.665 425.5 177.5 428.336 177.5 431.833L177.5 457.167C177.5 460.664 174.665 463.5 171.167 463.5L58.8334 463.5C55.3356 463.5 52.5001 460.664 52.5001 457.167Z" stroke="#4472C4" stroke-width="3" stroke-miterlimit="8" fill="#F0F4FA" fill-rule="evenodd"/><text fill="#2F5597" font-family="Arial,Arial_MSFontService,sans-serif" font-weight="400" font-size="19" transform="translate(59.9565 451)">Music objects</text><path d="M127 369 127 386.333 125 386.333 125 369ZM130 385 126 393 122 385Z" fill="#4472C4"/><text fill="#006600" font-family="Arial,Arial_MSFontService,sans-serif" font-weight="400" font-size="19" transform="translate(236.45 412)"># Iterate over the dataset<tspan fill="#000000" font-family="Lucida Console,Lucida Console_MSFontService,sans-serif" font-stretch="semi-condensed" x="0" y="22">for music in </tspan><tspan fill="#000000" font-family="Lucida Console,Lucida Console_MSFontService,sans-serif" font-stretch="semi-condensed" x="145.167" y="22">nes</tspan><tspan fill="#000000" font-family="Lucida Console,Lucida Console_MSFontService,sans-serif" font-stretch="semi-condensed" x="178.667" y="22">:</tspan><tspan fill="#000000" font-family="Lucida Console,Lucida Console_MSFontService,sans-serif" font-stretch="semi-condensed" x="22.3333" y="44">do_something</tspan><tspan fill="#000000" font-family="Lucida Console,Lucida Console_MSFontService,sans-serif" font-stretch="semi-condensed" x="156.333" y="44">(music)</tspan><tspan x="0" y="111"># </tspan>Convert to a PyTorch<tspan x="194.433" y="111">dataset</tspan><tspan fill="#000000" font-family="Lucida Console,Lucida Console_MSFontService,sans-serif" font-stretch="semi-condensed" x="0" y="133">dataset = </tspan><tspan fill="#000000" font-family="Lucida Console,Lucida Console_MSFontService,sans-serif" font-stretch="semi-condensed" x="111.667" y="133">nes.to_pytorch_dataset</tspan><tspan fill="#000000" font-family="Lucida Console,Lucida Console_MSFontService,sans-serif" font-stretch="semi-condensed" x="357.333" y="133">(</tspan><tspan fill="#000000" font-family="Lucida Console,Lucida Console_MSFontService,sans-serif" font-stretch="semi-condensed" x="22.3333" y="155">representation=</tspan><tspan fill="#000000" font-family="Lucida Console,Lucida Console_MSFontService,sans-serif" font-stretch="semi-condensed" x="189.833" y="155">"</tspan><tspan fill="#000000" font-family="Lucida Console,Lucida Console_MSFontService,sans-serif" font-stretch="semi-condensed" x="201" y="155">pianoroll</tspan><tspan fill="#000000" font-family="Lucida Console,Lucida Console_MSFontService,sans-serif" font-stretch="semi-condensed" x="301.5" y="155">")</tspan></text><rect x="78.5001" y="502.5" width="115" height="48" stroke="#4472C4" stroke-width="3" stroke-miterlimit="8" fill="#F0F4FA"/><rect x="73.5001" y="508.5" width="115" height="48" stroke="#4472C4" stroke-width="3" stroke-miterlimit="8" fill="#F0F4FA"/><rect x="67.5001" y="515.5" width="116" height="48" stroke="#4472C4" stroke-width="3" stroke-miterlimit="8" fill="#F0F4FA"/><rect x="62.5001" y="521.5" width="115" height="48" stroke="#4472C4" stroke-width="3" stroke-miterlimit="8" fill="#F0F4FA"/><rect x="56.5001" y="528.5" width="115" height="48" stroke="#4472C4" stroke-width="3" stroke-miterlimit="8" fill="#F0F4FA"/><path d="M56.5001 560.5 91.3807 560.5" stroke="#4472C4" stroke-width="3" stroke-miterlimit="8" fill="none" fill-rule="evenodd"/><path d="M95.5001 551.5 104.778 551.5" stroke="#4472C4" stroke-width="3" stroke-miterlimit="8" fill="none" fill-rule="evenodd"/><path d="M108.5 555.5 125.117 555.5" stroke="#4472C4" stroke-width="3" stroke-miterlimit="8" fill="none" fill-rule="evenodd"/><path d="M148.5 550.5 171.833 550.5" stroke="#4472C4" stroke-width="3" stroke-miterlimit="8" fill="none" fill-rule="evenodd"/><path d="M126.5 544.5 149.01 544.5" stroke="#4472C4" stroke-width="3" stroke-miterlimit="8" fill="none" fill-rule="evenodd"/><path d="M127 471 127 488.333 125 488.333 125 471ZM130 487 126 495 122 487Z" fill="#4472C4"/><text fill="#2F5597" font-family="Arial,Arial_MSFontService,sans-serif" font-weight="400" font-size="19" transform="translate(71.0414 599)">Training data</text></g></svg>