<svg width="747" height="168" xmlns="http://www.w3.org/2000/svg" xmlns:xlink="http://www.w3.org/1999/xlink" overflow="hidden"><defs><clipPath id="clip0"><path d="M290 78 1037 78 1037 246 290 246Z" fill-rule="evenodd" clip-rule="evenodd"/></clipPath></defs><g clip-path="url(#clip0)" transform="translate(-290 -78)"><path d="M650.5 139C650.5 135.41 653.41 132.5 657 132.5L788 132.5C791.59 132.5 794.5 135.41 794.5 139L794.5 165C794.5 168.59 791.59 171.5 788 171.5L657 171.5C653.41 171.5 650.5 168.59 650.5 165Z" stroke="#4472C4" stroke-width="3" stroke-miterlimit="8" fill="#F0F4FA" fill-rule="evenodd"/><text fill="#2F5597" font-family="Calibri,Calibri_MSFontService,sans-serif" font-weight="400" font-size="21" transform="translate(662.235 159)">Music objects</text><path d="M292.5 142.333C292.5 135.246 318.244 129.5 350 129.5 381.756 129.5 407.5 135.246 407.5 142.333L407.5 193.667C407.5 200.754 381.756 206.5 350 206.5 318.244 206.5 292.5 200.754 292.5 193.667Z" fill="#FCEEE4" fill-rule="evenodd"/><path d="M407.5 142.333C407.5 149.421 381.756 155.167 350 155.167 318.244 155.167 292.5 149.421 292.5 142.333" stroke="#843C0C" stroke-width="3" stroke-miterlimit="8" fill="none" fill-rule="evenodd"/><path d="M292.5 142.333C292.5 135.246 318.244 129.5 350 129.5 381.756 129.5 407.5 135.246 407.5 142.333L407.5 193.667C407.5 200.754 381.756 206.5 350 206.5 318.244 206.5 292.5 200.754 292.5 193.667Z" stroke="#843C0C" stroke-width="3" stroke-miterlimit="8" fill="none" fill-rule="evenodd"/><text fill="#843C0C" font-family="Calibri,Calibri_MSFontService,sans-serif" font-weight="400" font-size="24" transform="translate(316.861 173)">source<tspan x="-3.77335" y="21">dataset</tspan></text><path d="M612.6 169 562.5 169 562.5 166 612.6 166ZM611.1 163 620.1 167.5 611.1 172Z" fill="#4472C4"/><text fill="#2F5597" font-family="Calibri,Calibri_MSFontService,sans-serif" font-weight="400" font-size="21" transform="translate(566.812 160)">parse</text><path d="M513.5 125.5 545.167 125.5 551.5 131.833 551.5 173.5 513.5 173.5Z" stroke="#843C0C" stroke-width="3" stroke-miterlimit="8" fill="#FCEEE4" fill-rule="evenodd"/><text fill="#843C0C" font-family="Calibri,Calibri_MSFontService,sans-serif" font-weight="400" font-size="27" transform="translate(465.231 111)">source files</text><path d="M507.5 132.5 540 132.5 546.5 139 546.5 180.5 507.5 180.5Z" stroke="#843C0C" stroke-width="3" stroke-miterlimit="8" fill="#FCEEE4" fill-rule="evenodd"/><path d="M502.5 138.5 534.167 138.5 540.5 144.833 540.5 186.5 502.5 186.5Z" stroke="#843C0C" stroke-width="3" stroke-miterlimit="8" fill="#FCEEE4" fill-rule="evenodd"/><path d="M497.5 145.5 529.167 145.5 535.5 151.833 535.5 193.5 497.5 193.5Z" stroke="#843C0C" stroke-width="3" stroke-miterlimit="8" fill="#FCEEE4" fill-rule="evenodd"/><path d="M491.5 151.5 523.167 151.5 529.5 157.833 529.5 199.5 491.5 199.5Z" stroke="#843C0C" stroke-width="3" stroke-miterlimit="8" fill="#FCEEE4" fill-rule="evenodd"/><path d="M644.5 145C644.5 141.41 647.41 138.5 651 138.5L782 138.5C785.59 138.5 788.5 141.41 788.5 145L788.5 171C788.5 174.59 785.59 177.5 782 177.5L651 177.5C647.41 177.5 644.5 174.59 644.5 171Z" stroke="#4472C4" stroke-width="3" stroke-miterlimit="8" fill="#F0F4FA" fill-rule="evenodd"/><text fill="#2F5597" font-family="Calibri,Calibri_MSFontService,sans-serif" font-weight="400" font-size="21" transform="translate(656.901 165)">Music objects</text><path d="M639.5 151.833C639.5 148.336 642.336 145.5 645.833 145.5L777.167 145.5C780.664 145.5 783.5 148.336 783.5 151.833L783.5 177.167C783.5 180.664 780.664 183.5 777.167 183.5L645.833 183.5C642.336 183.5 639.5 180.664 639.5 177.167Z" stroke="#4472C4" stroke-width="3" stroke-miterlimit="8" fill="#F0F4FA" fill-rule="evenodd"/><text fill="#2F5597" font-family="Calibri,Calibri_MSFontService,sans-serif" font-weight="400" font-size="21" transform="translate(651.568 171)">Music objects</text><path d="M634.5 158C634.5 154.41 637.41 151.5 641 151.5L772 151.5C775.59 151.5 778.5 154.41 778.5 158L778.5 184C778.5 187.59 775.59 190.5 772 190.5L641 190.5C637.41 190.5 634.5 187.59 634.5 184Z" stroke="#4472C4" stroke-width="3" stroke-miterlimit="8" fill="#F0F4FA" fill-rule="evenodd"/><text fill="#2F5597" font-family="Calibri,Calibri_MSFontService,sans-serif" font-weight="400" font-size="21" transform="translate(646.235 178)">Music objects</text><path d="M628.5 164.833C628.5 161.336 631.336 158.5 634.833 158.5L766.167 158.5C769.664 158.5 772.5 161.336 772.5 164.833L772.5 190.167C772.5 193.664 769.664 196.5 766.167 196.5L634.833 196.5C631.336 196.5 628.5 193.664 628.5 190.167Z" stroke="#4472C4" stroke-width="3" stroke-miterlimit="8" fill="#F0F4FA" fill-rule="evenodd"/><text fill="#2F5597" font-family="Calibri,Calibri_MSFontService,sans-serif" font-weight="400" font-size="24" transform="translate(634.601 185)">Music objects</text><path d="M423.5 163.25 462 163.25 462 158.5 471.5 168 462 177.5 462 172.75 423.5 172.75Z" stroke="#843C0C" stroke-width="3" stroke-miterlimit="8" fill="#FCEEE4" fill-rule="evenodd"/><text fill="#843C0C" font-family="Calibri,Calibri_MSFontService,sans-serif" font-weight="400" font-size="21" transform="translate(427.964 226)">(MIDI, <tspan x="58.6667" y="0">MusicXML</tspan><tspan x="148.513" y="0">, etc.)</tspan></text><path d="M865.2 169 805.5 169 805.5 166 865.2 166ZM863.7 163 872.7 167.5 863.7 172Z" fill="#4472C4"/><text fill="#2F5597" font-family="Calibri,Calibri_MSFontService,sans-serif" font-weight="400" font-size="24" transform="translate(887.703 175)">do something<tspan font-size="21" x="-79.6222" y="-20">iterate</tspan></text></g></svg>