<svg width="773" height="168" xmlns="http://www.w3.org/2000/svg" xmlns:xlink="http://www.w3.org/1999/xlink" overflow="hidden"><defs><clipPath id="clip0"><path d="M269 536 1042 536 1042 704 269 704Z" fill-rule="evenodd" clip-rule="evenodd"/></clipPath></defs><g clip-path="url(#clip0)" transform="translate(-269 -536)"><path d="M277.5 600.333C277.5 593.246 305.482 587.5 340 587.5 374.518 587.5 402.5 593.246 402.5 600.333L402.5 651.667C402.5 658.754 374.518 664.5 340 664.5 305.482 664.5 277.5 658.754 277.5 651.667Z" fill="#F0F4FA" fill-rule="evenodd"/><path d="M402.5 600.333C402.5 607.421 374.518 613.167 340 613.167 305.482 613.167 277.5 607.421 277.5 600.333" stroke="#4472C4" stroke-width="3" stroke-miterlimit="8" fill="none" fill-rule="evenodd"/><path d="M277.5 600.333C277.5 593.246 305.482 587.5 340 587.5 374.518 587.5 402.5 593.246 402.5 600.333L402.5 651.667C402.5 658.754 374.518 664.5 340 664.5 305.482 664.5 277.5 658.754 277.5 651.667Z" stroke="#4472C4" stroke-width="3" stroke-miterlimit="8" fill="none" fill-rule="evenodd"/><text fill="#2F5597" font-family="Arial,Arial_MSFontService,sans-serif" font-weight="400" font-size="24" transform="translate(284.184 634)">C<tspan x="17.3333" y="0">onverted</tspan><tspan x="16" y="21">dataset</tspan></text><path d="M617.6 627 567.5 627 567.5 624 617.6 624ZM616.1 621 625.1 625.5 616.1 630Z" fill="#4472C4"/><text fill="#2F5597" font-family="Arial,Arial_MSFontService,sans-serif" font-weight="400" font-size="21" transform="translate(574.12 617)">load<tspan font-size="27" x="-141.769" y="-46">C</tspan><tspan font-size="27" x="-122.436" y="-46">onverted files</tspan></text><path d="M513.5 583.5 545.167 583.5 551.5 589.833 551.5 631.5 513.5 631.5Z" stroke="#4472C4" stroke-width="3" stroke-miterlimit="8" fill="#F0F4FA" fill-rule="evenodd"/><path d="M507.5 590.5 540 590.5 546.5 597 546.5 638.5 507.5 638.5Z" stroke="#4472C4" stroke-width="3" stroke-miterlimit="8" fill="#F0F4FA" fill-rule="evenodd"/><path d="M502.5 596.5 534.167 596.5 540.5 602.833 540.5 644.5 502.5 644.5Z" stroke="#4472C4" stroke-width="3" stroke-miterlimit="8" fill="#F0F4FA" fill-rule="evenodd"/><path d="M497.5 603.5 529.167 603.5 535.5 609.833 535.5 651.5 497.5 651.5Z" stroke="#4472C4" stroke-width="3" stroke-miterlimit="8" fill="#F0F4FA" fill-rule="evenodd"/><path d="M491.5 610.5 523.167 610.5 529.5 616.833 529.5 658.5 491.5 658.5Z" stroke="#4472C4" stroke-width="3" stroke-miterlimit="8" fill="#F0F4FA" fill-rule="evenodd"/><path d="M660.5 593.167C660.5 587.828 664.828 583.5 670.167 583.5L765.833 583.5C771.172 583.5 775.5 587.828 775.5 593.167L775.5 631.833C775.5 637.172 771.172 641.5 765.833 641.5L670.167 641.5C664.828 641.5 660.5 637.172 660.5 631.833Z" stroke="#4472C4" stroke-width="3" stroke-miterlimit="8" fill="#F0F4FA" fill-rule="evenodd"/><text fill="#2F5597" font-family="Arial,Arial_MSFontService,sans-serif" font-weight="400" font-size="21" transform="translate(689.663 607)">Music <tspan x="-5.92004" y="25">objects</tspan></text><path d="M655.5 599.167C655.5 593.828 659.828 589.5 665.167 589.5L760.833 589.5C766.172 589.5 770.5 593.828 770.5 599.167L770.5 637.833C770.5 643.172 766.172 647.5 760.833 647.5L665.167 647.5C659.828 647.5 655.5 643.172 655.5 637.833Z" stroke="#4472C4" stroke-width="3" stroke-miterlimit="8" fill="#F0F4FA" fill-rule="evenodd"/><text fill="#2F5597" font-family="Arial,Arial_MSFontService,sans-serif" font-weight="400" font-size="21" transform="translate(684.33 613)">Music <tspan x="-5.91998" y="25">objects</tspan></text><path d="M649.5 606C649.5 600.753 653.753 596.5 659 596.5L755 596.5C760.247 596.5 764.5 600.753 764.5 606L764.5 644C764.5 649.247 760.247 653.5 755 653.5L659 653.5C653.753 653.5 649.5 649.247 649.5 644Z" stroke="#4472C4" stroke-width="3" stroke-miterlimit="8" fill="#F0F4FA" fill-rule="evenodd"/><text fill="#2F5597" font-family="Arial,Arial_MSFontService,sans-serif" font-weight="400" font-size="21" transform="translate(678.997 620)">Music <tspan x="-5.91998" y="25">objects</tspan></text><path d="M644.5 612.167C644.5 606.828 648.828 602.5 654.167 602.5L749.833 602.5C755.172 602.5 759.5 606.828 759.5 612.167L759.5 650.833C759.5 656.172 755.172 660.5 749.833 660.5L654.167 660.5C648.828 660.5 644.5 656.172 644.5 650.833Z" stroke="#4472C4" stroke-width="3" stroke-miterlimit="8" fill="#F0F4FA" fill-rule="evenodd"/><text fill="#2F5597" font-family="Arial,Arial_MSFontService,sans-serif" font-weight="400" font-size="21" transform="translate(673.663 626)">Music <tspan x="-5.92004" y="25">objects</tspan></text><path d="M638.5 619C638.5 613.753 642.753 609.5 648 609.5L744 609.5C749.247 609.5 753.5 613.753 753.5 619L753.5 657C753.5 662.247 749.247 666.5 744 666.5L648 666.5C642.753 666.5 638.5 662.247 638.5 657Z" stroke="#4472C4" stroke-width="3" stroke-miterlimit="8" fill="#F0F4FA" fill-rule="evenodd"/><text fill="#2F5597" font-family="Arial,Arial_MSFontService,sans-serif" font-weight="400" font-size="24" transform="translate(664.96 632)">Music <tspan x="-6.40002" y="27">objects</tspan></text><path d="M423.5 621.25 462 621.25 462 616.5 471.5 626 462 635.5 462 630.75 423.5 630.75Z" stroke="#4472C4" stroke-width="3" stroke-miterlimit="8" fill="#F0F4FA" fill-rule="evenodd"/><text fill="#2F5597" font-family="Arial,Arial_MSFontService,sans-serif" font-weight="400" font-size="21" transform="translate(459.661 686)">(JSON/YAML)</text><path d="M863.8 627 794.5 627 794.5 624 863.8 624ZM862.3 621 871.3 625.5 862.3 630Z" fill="#4472C4"/><text fill="#2F5597" font-family="Arial,Arial_MSFontService,sans-serif" font-weight="400" font-size="24" transform="translate(882.772 634)">do <tspan x="33.3333" y="0">something</tspan><tspan font-size="21" x="-80.9041" y="-17">iterate</tspan></text></g></svg>