<svg width="1077" height="364" xmlns="http://www.w3.org/2000/svg" xmlns:xlink="http://www.w3.org/1999/xlink" overflow="hidden"><defs><clipPath id="clip0"><path d="M58 177 1135 177 1135 541 58 541Z" fill-rule="evenodd" clip-rule="evenodd"/></clipPath></defs><g clip-path="url(#clip0)" transform="translate(-58 -177)"><path d="M373.5 339C373.5 333.753 377.753 329.5 383 329.5L518 329.5C523.247 329.5 527.5 333.753 527.5 339L527.5 377C527.5 382.247 523.247 386.5 518 386.5L383 386.5C377.753 386.5 373.5 382.247 373.5 377Z" stroke="#4472C4" stroke-width="3" stroke-miterlimit="8" fill="#F0F4FA" fill-rule="evenodd"/><text fill="#2F5597" font-family="Calibri,Calibri_MSFontService,sans-serif" font-weight="700" font-size="21" transform="translate(419.725 352)">MusPy<tspan x="-19.5067" y="24">Music class</tspan></text><path d="M396.5 455.5 428.167 455.5 434.5 461.833 434.5 503.5 396.5 503.5Z" stroke="#843C0C" stroke-width="3" stroke-miterlimit="8" fill="#FCEEE4" fill-rule="evenodd"/><text fill="#843C0C" font-family="Calibri,Calibri_MSFontService,sans-serif" font-weight="300" font-size="16" transform="translate(401.667 494)">.mid<tspan font-weight="400" font-size="19" x="-5.05002" y="29">MIDI</tspan></text><path d="M428.5 210.5 460.167 210.5 466.5 216.833 466.5 258.5 428.5 258.5Z" stroke="#4472C4" stroke-width="3" stroke-miterlimit="8" fill="#F0F4FA" fill-rule="evenodd"/><text fill="#2F5597" font-family="Calibri,Calibri_MSFontService,sans-serif" font-weight="400" font-size="16" transform="translate(432.589 249)">.<tspan font-weight="300" x="4" y="0">json</tspan><tspan font-size="19" x="-4.96664" y="-46">JSON</tspan></text><path d="M1.00001 6.66665 1.0001 48-0.999895 48-0.999985 6.66666ZM-3.99998 8.00001 0 0 4.00002 7.99999Z" fill="#4472C4" transform="matrix(1 0 0 -1 451 320)"/><path d="M1-2.18723e-06 1.00009 41.3333-0.99991 41.3333-1 2.18723e-06ZM4.00009 40 0.000104987 48-3.99991 40Z" fill="#4472C4" transform="matrix(1 0 0 -1 444 320)"/><path d="M353.933 359 303 359 303 357 353.933 357ZM352.6 354 360.6 358 352.6 362Z" fill="#4472C4"/><text fill="#2F5597" font-family="Calibri,Calibri_MSFontService,sans-serif" font-weight="300" font-size="19" transform="translate(401.135 302)">save<tspan x="60.2557" y="0">load</tspan><tspan x="-90.1135" y="45">parse</tspan></text><path d="M229.5 456.667C229.5 450.5 250.99 445.5 277.5 445.5 304.01 445.5 325.5 450.5 325.5 456.667L325.5 501.333C325.5 507.501 304.01 512.5 277.5 512.5 250.99 512.5 229.5 507.501 229.5 501.333Z" fill="#F2F2F2" fill-rule="evenodd"/><path d="M325.5 456.667C325.5 462.834 304.01 467.833 277.5 467.833 250.99 467.833 229.5 462.834 229.5 456.667" stroke="#A5A5A5" stroke-width="3" stroke-miterlimit="8" fill="none" fill-rule="evenodd"/><path d="M229.5 456.667C229.5 450.5 250.99 445.5 277.5 445.5 304.01 445.5 325.5 450.5 325.5 456.667L325.5 501.333C325.5 507.501 304.01 512.5 277.5 512.5 250.99 512.5 229.5 507.501 229.5 501.333Z" stroke="#A5A5A5" stroke-width="3" stroke-miterlimit="8" fill="none" fill-rule="evenodd"/><text fill="#525252" font-family="Calibri,Calibri_MSFontService,sans-serif" font-weight="400" font-size="21" transform="translate(241.265 485)">External<tspan x="-0.800003" y="19">datasets</tspan></text><path d="M337 478 378.333 478 378.333 480 337 480ZM377 475 385 479 377 483Z" fill="#A5A5A5"/><path d="M373 231 414.333 231 414.333 233 373 233ZM413 228 421 232 413 236Z" fill="#4472C4"/><rect x="611.5" y="317.5" width="243" height="80" stroke="#4472C4" stroke-width="3" stroke-miterlimit="8" fill="#F0F4FA"/><text fill="#2F5597" font-family="Calibri,Calibri_MSFontService,sans-serif" font-weight="700" font-size="21" transform="translate(660.641 341)">Representations<tspan font-weight="400" font-size="19" x="-39.9933" y="23">• note</tspan><tspan font-weight="400" font-size="19" x="8.64001" y="23">-</tspan><tspan font-weight="400" font-size="19" x="14.3067" y="23">based</tspan><tspan font-weight="400" font-size="19" x="80.54" y="23">• pitch</tspan><tspan font-weight="400" font-size="19" x="131.98" y="23">-</tspan><tspan font-weight="400" font-size="19" x="137.647" y="23">based</tspan><tspan font-weight="400" font-size="19" x="-39.9933" y="45">• event</tspan><tspan font-weight="400" font-size="19" x="16.3933" y="45">-</tspan><tspan font-weight="400" font-size="19" x="22.06" y="45">based</tspan><tspan font-weight="400" font-size="19" x="80.54" y="45">• </tspan><tspan font-weight="400" font-size="19" x="94.04" y="45">pianoroll</tspan></text><path d="M379.667 238 421 238 421 240 379.667 240ZM381 243 373 239 381 235Z" fill="#4472C4"/><path d="M590.933 356 540 356 540 354 590.933 354ZM589.6 351 597.6 355 589.6 359Z" fill="#4472C4"/><path d="M597.6 363 546.667 363 546.667 361 597.6 361ZM548 366 540 362 548 358Z" fill="#4472C4"/><text fill="#2F5597" font-family="Calibri,Calibri_MSFontService,sans-serif" font-weight="300" font-size="19" transform="translate(551.089 384)">from<tspan x="10.2399" y="-40">to</tspan></text><path d="M465.5 455.5 497.167 455.5 503.5 461.833 503.5 503.5 465.5 503.5Z" stroke="#843C0C" stroke-width="3" stroke-miterlimit="8" fill="#FCEEE4" fill-rule="evenodd"/><text fill="#843C0C" font-family="Calibri,Calibri_MSFontService,sans-serif" font-weight="400" font-size="16" transform="translate(471.597 494)">.<tspan font-weight="300" x="4" y="0">mxl</tspan><tspan font-size="19" x="-25.0376" y="30">MusicXML</tspan></text><path d="M519 474 560.333 474 560.333 476 519 476ZM559 471 567 475 559 479Z" fill="#A5A5A5"/><rect x="599.5" y="438.5" width="267" height="81" stroke="#A5A5A5" stroke-width="3" stroke-miterlimit="8" fill="#F2F2F2"/><text fill="#525252" font-family="Calibri,Calibri_MSFontService,sans-serif" font-weight="400" font-size="21" transform="translate(660.348 463)">External systems<tspan font-weight="300" font-size="19" x="-49.2533" y="23">(e.g., music </tspan><tspan font-weight="300" font-size="19" x="40.0933" y="23">notataion</tspan><tspan font-weight="300" font-size="19" x="116.367" y="23">softwares</tspan><tspan font-weight="300" font-size="19" x="189.033" y="23">, </tspan><tspan font-weight="300" font-size="19" x="-48.78" y="45">synthesizers, sequencers, DAWs)</tspan></text><rect x="906.5" y="450.5" width="227" height="58" stroke="#A5A5A5" stroke-width="3" stroke-miterlimit="8" fill="#F2F2F2"/><text fill="#525252" font-family="Calibri,Calibri_MSFontService,sans-serif" font-weight="400" font-size="21" transform="translate(946.597 475)">External libraries<tspan font-weight="300" font-size="19" x="-26.7667" y="23">(e.g., </tspan><tspan font-weight="300" font-size="19" x="14.58" y="23">PyTorch</tspan><tspan font-weight="300" font-size="19" x="72.94" y="23">, TensorFlow)</tspan></text><path d="M267.5 212.667C267.5 206.5 288.99 201.5 315.5 201.5 342.01 201.5 363.5 206.5 363.5 212.667L363.5 257.333C363.5 263.501 342.01 268.5 315.5 268.5 288.99 268.5 267.5 263.501 267.5 257.333Z" fill="#F0F4FA" fill-rule="evenodd"/><path d="M363.5 212.667C363.5 218.834 342.01 223.833 315.5 223.833 288.99 223.833 267.5 218.834 267.5 212.667" stroke="#4472C4" stroke-width="3" stroke-miterlimit="8" fill="none" fill-rule="evenodd"/><path d="M267.5 212.667C267.5 206.5 288.99 201.5 315.5 201.5 342.01 201.5 363.5 206.5 363.5 212.667L363.5 257.333C363.5 263.501 342.01 268.5 315.5 268.5 288.99 268.5 267.5 263.501 267.5 257.333Z" stroke="#4472C4" stroke-width="3" stroke-miterlimit="8" fill="none" fill-rule="evenodd"/><text fill="#2F5597" font-family="Calibri,Calibri_MSFontService,sans-serif" font-weight="700" font-size="21" transform="translate(282.222 242)">Unified<tspan x="-0.473358" y="19">dataset</tspan></text><path d="M918.933 356 868 356 868 354 918.933 354ZM917.6 351 925.6 355 917.6 359Z" fill="#4472C4"/><path d="M925.6 363 874.667 363 874.667 361 925.6 361ZM876 366 868 362 876 358Z" fill="#4472C4"/><text fill="#2F5597" font-family="Calibri,Calibri_MSFontService,sans-serif" font-weight="300" font-size="19" transform="translate(878.711 384)">from<tspan x="10.2399" y="-40">to</tspan></text><path d="M164.945 212.393C164.604 212.393 164.148 212.393 163.806 212.393 163.806 212.393 163.806 212.393 163.806 212.393 163.806 207.491 161.073 202.99 156.63 200.189 152.074 197.388 146.265 196.688 141.025 198.288 136.697 190.886 127.129 187.085 118.017 188.985 108.904 190.886 102.298 198.088 102.298 206.391 102.298 206.391 102.298 206.491 102.298 206.591 96.0329 205.691 89.7681 207.991 85.8953 212.393 82.1365 216.894 81.4531 222.796 84.0728 227.797 86.8066 232.799 92.5018 236.1 98.7666 236.4L98.7666 236.5 164.832 236.5C172.349 236.5 178.5 231.098 178.5 224.496 178.5 217.894 172.463 212.393 164.945 212.393Z" stroke="#A5A5A5" stroke-width="3" stroke-miterlimit="8" fill="#F2F2F2" fill-rule="evenodd"/><text fill="#525252" font-family="Calibri,Calibri_MSFontService,sans-serif" font-weight="400" font-size="21" transform="translate(96.5398 226)">Remote</text><path d="M131 244 131 285.333 129 285.333 129 244ZM134 284 130 292 126 284Z" fill="#4472C4"/><path d="M77 338.5C77 335.462 89.7599 333 105.5 333 121.24 333 134 335.462 134 338.5L134 360.5C134 363.538 121.24 366 105.5 366 89.7599 366 77 363.538 77 360.5Z" fill="#F0F4FA" fill-rule="evenodd"/><path d="M134 338.5C134 341.538 121.24 344 105.5 344 89.7599 344 77 341.538 77 338.5" stroke="#4472C4" stroke-width="2" stroke-miterlimit="8" fill="none" fill-rule="evenodd"/><path d="M77 338.5C77 335.462 89.7599 333 105.5 333 121.24 333 134 335.462 134 338.5L134 360.5C134 363.538 121.24 366 105.5 366 89.7599 366 77 363.538 77 360.5Z" stroke="#4472C4" stroke-width="2" stroke-miterlimit="8" fill="none" fill-rule="evenodd"/><text fill="#2F5597" font-family="Calibri,Calibri_MSFontService,sans-serif" font-weight="400" font-size="16" transform="translate(80.5807 359)">Dataset</text><path d="M146 338.5C146 335.462 158.984 333 175 333 191.016 333 204 335.462 204 338.5L204 360.5C204 363.538 191.016 366 175 366 158.984 366 146 363.538 146 360.5Z" fill="#F0F4FA" fill-rule="evenodd"/><path d="M204 338.5C204 341.538 191.016 344 175 344 158.984 344 146 341.538 146 338.5" stroke="#4472C4" stroke-width="2" stroke-miterlimit="8" fill="none" fill-rule="evenodd"/><path d="M146 338.5C146 335.462 158.984 333 175 333 191.016 333 204 335.462 204 338.5L204 360.5C204 363.538 191.016 366 175 366 158.984 366 146 363.538 146 360.5Z" stroke="#4472C4" stroke-width="2" stroke-miterlimit="8" fill="none" fill-rule="evenodd"/><text fill="#2F5597" font-family="Calibri,Calibri_MSFontService,sans-serif" font-weight="400" font-size="16" transform="translate(149.975 359)">Dataset</text><path d="M216 338.5C216 335.462 228.984 333 245 333 261.016 333 274 335.462 274 338.5L274 360.5C274 363.538 261.016 366 245 366 228.984 366 216 363.538 216 360.5Z" fill="#F0F4FA" fill-rule="evenodd"/><path d="M274 338.5C274 341.538 261.016 344 245 344 228.984 344 216 341.538 216 338.5" stroke="#4472C4" stroke-width="2" stroke-miterlimit="8" fill="none" fill-rule="evenodd"/><path d="M216 338.5C216 335.462 228.984 333 245 333 261.016 333 274 335.462 274 338.5L274 360.5C274 363.538 261.016 366 245 366 228.984 366 216 363.538 216 360.5Z" stroke="#4472C4" stroke-width="2" stroke-miterlimit="8" fill="none" fill-rule="evenodd"/><text fill="#2F5597" font-family="Calibri,Calibri_MSFontService,sans-serif" font-weight="400" font-size="16" transform="translate(220.094 359)">Dataset</text><path d="M112 381.5C112 378.462 124.76 376 140.5 376 156.24 376 169 378.462 169 381.5L169 403.5C169 406.538 156.24 409 140.5 409 124.76 409 112 406.538 112 403.5Z" fill="#F0F4FA" fill-rule="evenodd"/><path d="M169 381.5C169 384.538 156.24 387 140.5 387 124.76 387 112 384.538 112 381.5" stroke="#4472C4" stroke-width="2" stroke-miterlimit="8" fill="none" fill-rule="evenodd"/><path d="M112 381.5C112 378.462 124.76 376 140.5 376 156.24 376 169 378.462 169 381.5L169 403.5C169 406.538 156.24 409 140.5 409 124.76 409 112 406.538 112 403.5Z" stroke="#4472C4" stroke-width="2" stroke-miterlimit="8" fill="none" fill-rule="evenodd"/><text fill="#2F5597" font-family="Calibri,Calibri_MSFontService,sans-serif" font-weight="400" font-size="16" transform="translate(115.669 402)">Dataset</text><path d="M181 381.5C181 378.462 193.984 376 210 376 226.016 376 239 378.462 239 381.5L239 403.5C239 406.538 226.016 409 210 409 193.984 409 181 406.538 181 403.5Z" fill="#F0F4FA" fill-rule="evenodd"/><path d="M239 381.5C239 384.538 226.016 387 210 387 193.984 387 181 384.538 181 381.5" stroke="#4472C4" stroke-width="2" stroke-miterlimit="8" fill="none" fill-rule="evenodd"/><path d="M181 381.5C181 378.462 193.984 376 210 376 226.016 376 239 378.462 239 381.5L239 403.5C239 406.538 226.016 409 210 409 193.984 409 181 406.538 181 403.5Z" stroke="#4472C4" stroke-width="2" stroke-miterlimit="8" fill="none" fill-rule="evenodd"/><text fill="#2F5597" font-family="Calibri,Calibri_MSFontService,sans-serif" font-weight="400" font-size="16" transform="translate(184.932 402)">Dataset</text><path d="M60.5001 316.334C60.5001 304.828 69.8276 295.5 81.3338 295.5L270.666 295.5C282.172 295.5 291.5 304.828 291.5 316.334L291.5 399.666C291.5 411.172 282.172 420.5 270.666 420.5L81.3338 420.5C69.8276 420.5 60.5001 411.172 60.5001 399.666Z" stroke="#4472C4" stroke-width="3" stroke-miterlimit="8" stroke-dasharray="3 3" fill="none" fill-rule="evenodd"/><rect x="940.5" y="340.5" width="158" height="36" stroke="#548235" stroke-width="3" stroke-miterlimit="8" fill="#EEF7E9"/><text fill="#385723" font-family="Calibri,Calibri_MSFontService,sans-serif" font-weight="400" font-size="21" transform="translate(949.941 365)">PyTorch<tspan x="72.7534" y="0">dataset</tspan><tspan fill="#4472C4" font-weight="300" font-size="19" x="-808.584" y="-93">download</tspan></text><rect x="612.5" y="181.5" width="240" height="103" stroke="#548235" stroke-width="3" stroke-miterlimit="8" fill="#EEF7E9"/><text fill="#385723" font-family="Calibri,Calibri_MSFontService,sans-serif" font-weight="700" font-size="21" transform="translate(698.922 206)">Objects<tspan font-weight="400" font-size="19" x="-59.06" y="20">(in other music libraries)</tspan><tspan font-weight="400" font-size="19" x="-76.8333" y="42">• music21 </tspan><tspan font-weight="400" font-size="19" x="37.5" y="42">• </tspan><tspan font-weight="400" font-size="19" x="51" y="42">Pypianoroll</tspan><tspan font-weight="400" font-size="19" x="-76.8333" y="64">• </tspan><tspan font-weight="400" font-size="19" x="-63.3333" y="64">pretty_midi</tspan></text><rect x="934.5" y="179.5" width="170" height="103" stroke="#A5A5A5" stroke-width="3" stroke-miterlimit="8" fill="#F2F2F2"/><text fill="#525252" font-family="Calibri,Calibri_MSFontService,sans-serif" font-weight="400" font-size="21" transform="translate(946.597 204)">External libraries<tspan font-weight="300" font-size="19" x="18.2734" y="23">(e.g., music21,</tspan><tspan font-weight="300" font-size="19" x="26.68" y="45">pretty_midi</tspan><tspan font-weight="300" font-size="19" x="114.04" y="45">,</tspan><tspan font-weight="300" font-size="19" x="28.0533" y="68">Pypianoroll</tspan><tspan font-weight="300" font-size="19" x="111.673" y="68">)</tspan></text><path d="M864 229 914.933 229 914.933 231 864 231ZM913.6 226 921.6 230 913.6 234Z" fill="#A5A5A5"/><path d="M5.42114 4.00693 67.9071 66.4929 66.4929 67.9071 4.00693 5.42114ZM2.82843 8.48528 0 0 8.48528 2.82843Z" fill="#4472C4" transform="matrix(-1 -8.74228e-08 -8.74228e-08 1 596.2 249)"/><path d="M0.707107-0.707107 63.1931 61.7789 61.7789 63.1931-0.707107 0.707107ZM64.3716 58.7147 67.2 67.2 58.7147 64.3716Z" fill="#4472C4" transform="matrix(-1 -8.74228e-08 -8.74228e-08 1 600.2 255)"/><text fill="#2F5597" font-family="Calibri,Calibri_MSFontService,sans-serif" font-weight="300" font-size="19" transform="translate(544.019 278)">to<tspan x="24.6502" y="28">from</tspan></text><path d="M1.00001 6.66665 1.0001 48-0.999895 48-0.999985 6.66666ZM-3.99998 8.00001 0 0 4.00002 7.99999Z" fill="#4472C4" transform="matrix(1 0 0 -1 451 445)"/><path d="M1-2.18723e-06 1.00009 41.3333-0.99991 41.3333-1 2.18723e-06ZM4.00009 40 0.000104987 48-3.99991 40Z" fill="#4472C4" transform="matrix(1 0 0 -1 444 445)"/><text fill="#2F5597" font-family="Calibri,Calibri_MSFontService,sans-serif" font-weight="300" font-size="19" transform="translate(397.595 426)">read<tspan x="63.7835" y="0">write</tspan></text><path d="M921.6 238 870.667 238 870.667 236 921.6 236ZM872 241 864 237 872 233Z" fill="#A5A5A5"/><path d="M525.667 481 567 481 567 483 525.667 483ZM527 486 519 482 527 478Z" fill="#A5A5A5"/><path d="M1.00001 6.66665 1.0001 48-0.999895 48-0.999985 6.66666ZM-3.99998 8.00001 0 0 4.00002 7.99999Z" fill="#A5A5A5" transform="matrix(1 0 0 -1 1023 436)"/><path d="M1-2.18723e-06 1.00009 41.3333-0.99991 41.3333-1 2.18723e-06ZM4.00009 40 0.000104987 48-3.99991 40Z" fill="#A5A5A5" transform="matrix(1 0 0 -1 1015 436)"/><text fill="#2F5597" font-family="Calibri,Calibri_MSFontService,sans-serif" font-weight="700" font-size="21" transform="translate(81.3005 319)">Dataset<tspan x="72.6133" y="0">management</tspan></text></g></svg>