<svg width="670" height="160" xmlns="http://www.w3.org/2000/svg" xmlns:xlink="http://www.w3.org/1999/xlink" overflow="hidden"><defs><clipPath id="clip0"><path d="M307 533 977 533 977 693 307 693Z" fill-rule="evenodd" clip-rule="evenodd"/></clipPath></defs><g clip-path="url(#clip0)" transform="translate(-307 -533)"><path d="M311 588 829 588 829 592 311 592ZM827 584 839 590 827 596Z"/><path d="M325 577 325 603.182" stroke="#000000" stroke-width="4" stroke-miterlimit="8" fill="none" fill-rule="evenodd"/><path d="M373 577 373 603.182" stroke="#000000" stroke-width="4" stroke-miterlimit="8" fill="none" fill-rule="evenodd"/><path d="M421 577 421 603.182" stroke="#000000" stroke-width="4" stroke-miterlimit="8" fill="none" fill-rule="evenodd"/><path d="M469 577 469 603.182" stroke="#000000" stroke-width="4" stroke-miterlimit="8" fill="none" fill-rule="evenodd"/><path d="M517 577 517 603.182" stroke="#000000" stroke-width="4" stroke-miterlimit="8" fill="none" fill-rule="evenodd"/><path d="M565 577 565 603.182" stroke="#000000" stroke-width="4" stroke-miterlimit="8" fill="none" fill-rule="evenodd"/><path d="M612 577 612 603.182" stroke="#000000" stroke-width="4" stroke-miterlimit="8" fill="none" fill-rule="evenodd"/><path d="M660 577 660 603.182" stroke="#000000" stroke-width="4" stroke-miterlimit="8" fill="none" fill-rule="evenodd"/><path d="M708 577 708 603.182" stroke="#000000" stroke-width="4" stroke-miterlimit="8" fill="none" fill-rule="evenodd"/><path d="M756 577 756 603.182" stroke="#000000" stroke-width="4" stroke-miterlimit="8" fill="none" fill-rule="evenodd"/><path d="M805 577 805 603.182" stroke="#000000" stroke-width="4" stroke-miterlimit="8" fill="none" fill-rule="evenodd"/><path d="M311 662 829 662 829 666 311 666ZM827 658 839 664 827 670Z"/><path d="M325 651 325 677.182" stroke="#000000" stroke-width="4" stroke-miterlimit="8" fill="none" fill-rule="evenodd"/><path d="M367 651 367 677.182" stroke="#000000" stroke-width="4" stroke-miterlimit="8" fill="none" fill-rule="evenodd"/><path d="M410 651 410 677.182" stroke="#000000" stroke-width="4" stroke-miterlimit="8" fill="none" fill-rule="evenodd"/><path d="M446 651 446 677.182" stroke="#000000" stroke-width="4" stroke-miterlimit="8" fill="none" fill-rule="evenodd"/><path d="M494 651 494 677.182" stroke="#000000" stroke-width="4" stroke-miterlimit="8" fill="none" fill-rule="evenodd"/><path d="M555 651 555 677.182" stroke="#000000" stroke-width="4" stroke-miterlimit="8" fill="none" fill-rule="evenodd"/><path d="M618 651 618 677.182" stroke="#000000" stroke-width="4" stroke-miterlimit="8" fill="none" fill-rule="evenodd"/><path d="M676 651 676 677.182" stroke="#000000" stroke-width="4" stroke-miterlimit="8" fill="none" fill-rule="evenodd"/><path d="M722 651 722 677.182" stroke="#000000" stroke-width="4" stroke-miterlimit="8" fill="none" fill-rule="evenodd"/><path d="M777 650 777 676.182" stroke="#000000" stroke-width="4" stroke-miterlimit="8" fill="none" fill-rule="evenodd"/><text font-family="Arial,Arial_MSFontService,sans-serif" font-weight="400" font-size="24" transform="translate(848.291 598)">(time step)<tspan x="0" y="74">(second)</tspan></text><path d="M325 603 325 651" stroke="#000000" stroke-width="2" stroke-miterlimit="8" stroke-dasharray="2 2" fill="none" fill-rule="evenodd"/><path d="M0 0 4.77575 46.5059" stroke="#000000" stroke-width="2" stroke-miterlimit="8" stroke-dasharray="2 2" fill="none" fill-rule="evenodd" transform="matrix(-1 -8.74228e-08 -8.74228e-08 1 372.776 603)"/><path d="M0 0 10.1333 47.4423" stroke="#000000" stroke-width="2" stroke-miterlimit="8" stroke-dasharray="2 2" fill="none" fill-rule="evenodd" transform="matrix(-1 -8.74228e-08 -8.74228e-08 1 421.133 603)"/><path d="M0 0 22.2789 47.4423" stroke="#000000" stroke-width="2" stroke-miterlimit="8" stroke-dasharray="2 2" fill="none" fill-rule="evenodd" transform="matrix(-1 -8.74228e-08 -8.74228e-08 1 468.279 603)"/><path d="M0 0 22.5941 47.4423" stroke="#000000" stroke-width="2" stroke-miterlimit="8" stroke-dasharray="2 2" fill="none" fill-rule="evenodd" transform="matrix(-1 -8.74228e-08 -8.74228e-08 1 516.594 603)"/><path d="M0 0 9.92756 47.4423" stroke="#000000" stroke-width="2" stroke-miterlimit="8" stroke-dasharray="2 2" fill="none" fill-rule="evenodd" transform="matrix(-1 -8.74228e-08 -8.74228e-08 1 564.928 603)"/><path d="M612 603 617.371 650.442" stroke="#000000" stroke-width="2" stroke-miterlimit="8" stroke-dasharray="2 2" fill="none" fill-rule="evenodd"/><path d="M660 603 676.545 650.442" stroke="#000000" stroke-width="2" stroke-miterlimit="8" stroke-dasharray="2 2" fill="none" fill-rule="evenodd"/><path d="M708 603 721.837 650.442" stroke="#000000" stroke-width="2" stroke-miterlimit="8" stroke-dasharray="2 2" fill="none" fill-rule="evenodd"/><path d="M756 603 778.242 651.379" stroke="#000000" stroke-width="2" stroke-miterlimit="8" stroke-dasharray="2 2" fill="none" fill-rule="evenodd"/><text fill="#2F5597" font-family="Arial,Arial_MSFontService,sans-serif" font-weight="400" font-size="21" transform="translate(320.291 561)">tempo <tspan x="65.3333" y="0">rubato</tspan></text></g></svg>