<svg width="1025" height="547" xmlns="http://www.w3.org/2000/svg" xmlns:xlink="http://www.w3.org/1999/xlink" overflow="hidden"><defs><clipPath id="clip0"><path d="M101 73 1126 73 1126 620 101 620Z" fill-rule="evenodd" clip-rule="evenodd"/></clipPath></defs><g clip-path="url(#clip0)" transform="translate(-101 -73)"><path d="M103.5 155.679C103.5 147.848 109.848 141.5 117.68 141.5L252.321 141.5C260.152 141.5 266.5 147.848 266.5 155.679L266.5 598.321C266.5 606.152 260.152 612.5 252.321 612.5L117.68 612.5C109.848 612.5 103.5 606.152 103.5 598.321Z" stroke="#4472C4" stroke-width="3" stroke-miterlimit="8" fill="#F0F4FA" fill-rule="evenodd"/><path d="M127.5 83.5003C127.5 79.0819 131.082 75.5001 135.5 75.5001L234.5 75.5001C238.918 75.5001 242.5 79.0819 242.5 83.5003L242.5 115.5C242.5 119.918 238.918 123.5 234.5 123.5L135.5 123.5C131.082 123.5 127.5 119.918 127.5 115.5Z" stroke="#4472C4" stroke-width="3" stroke-miterlimit="8" fill="#F0F4FA" fill-rule="evenodd"/><text fill="#2F5597" font-family="Arial,Arial_MSFontService,sans-serif" font-weight="700" font-size="27" transform="translate(147.593 109)">Music</text><path d="M113 568.333C113 564.836 115.836 562 119.333 562L250.667 562C254.164 562 257 564.836 257 568.333L257 593.667C257 597.164 254.164 600 250.667 600L119.333 600C115.836 600 113 597.164 113 593.667Z" fill="#F0F4FA" fill-rule="evenodd"/><path d="M110 568.078 110.679 564.683 112.718 561.718 115.683 559.679 119.078 559 250.992 559 254.302 559.679 257.36 561.718 259.328 564.716 260 568.078 260 593.992 259.328 597.269 257.361 600.361 254.269 602.328 250.992 603 119.078 603 115.716 602.328 112.718 600.36 110.679 597.302 110 593.992ZM112 593.789 112.56 596.517 114.156 598.912 116.489 600.443 119.276 601 250.789 601 253.506 600.443 255.912 598.912 257.443 596.506 258 593.789 258 568.276 257.443 565.489 255.912 563.156 253.517 561.56 250.789 561 119.276 561 116.478 561.56 114.156 563.156 112.56 565.478 112 568.276ZM114 568.474 114.44 566.272 115.594 564.594 117.272 563.44 119.474 563 250.586 563 252.733 563.44 254.463 564.594 255.557 566.261 256 568.474 256 593.586 255.557 595.744 254.463 597.463 252.744 598.557 250.586 599 119.474 599 117.261 598.557 115.594 597.463 114.44 595.733 114 593.586ZM116 593.383 116.321 594.948 117.032 596.015 118.034 596.672 119.672 597 250.383 597 251.981 596.672 253.014 596.014 253.672 594.981 254 593.383 254 568.672 253.672 567.034 253.015 566.032 251.948 565.321 250.383 565 119.672 565 118.067 565.321 117.032 566.032 116.321 567.067 116 568.672Z" fill="#4472C4"/><text fill="#2F5597" font-family="Arial,Arial_MSFontService,sans-serif" font-weight="400" font-size="19" transform="translate(160.643 588)">tracks</text><path d="M113.5 158.833C113.5 155.336 116.336 152.5 119.833 152.5L251.167 152.5C254.664 152.5 257.5 155.336 257.5 158.833L257.5 184.167C257.5 187.664 254.664 190.5 251.167 190.5L119.833 190.5C116.336 190.5 113.5 187.664 113.5 184.167Z" stroke="#4472C4" stroke-width="3" stroke-miterlimit="8" fill="#F0F4FA" fill-rule="evenodd"/><text fill="#2F5597" font-family="Arial,Arial_MSFontService,sans-serif" font-weight="400" font-size="19" transform="translate(146.993 178)">metadata</text><path d="M113.5 209.833C113.5 206.336 116.336 203.5 119.833 203.5L251.167 203.5C254.664 203.5 257.5 206.336 257.5 209.833L257.5 235.167C257.5 238.664 254.664 241.5 251.167 241.5L119.833 241.5C116.336 241.5 113.5 238.664 113.5 235.167Z" stroke="#548235" stroke-width="3" stroke-miterlimit="8" fill="#EEF7E9" fill-rule="evenodd"/><text fill="#385723" font-family="Arial,Arial_MSFontService,sans-serif" font-weight="400" font-size="19" transform="translate(145.676 229)">resolution</text><path d="M113 260.5C113 256.91 115.91 254 119.5 254L250.5 254C254.09 254 257 256.91 257 260.5L257 286.5C257 290.09 254.09 293 250.5 293L119.5 293C115.91 293 113 290.09 113 286.5Z" fill="#F0F4FA" fill-rule="evenodd"/><path d="M110 260.203 110.681 256.798 112.783 253.783 115.798 251.681 119.203 251 250.79 251 254.258 251.677 257.306 253.801 259.325 256.83 260 260.203 260 286.79 259.329 290.227 257.288 293.288 254.227 295.329 250.79 296 119.203 296 115.83 295.325 112.801 293.306 110.677 290.258 110 286.79ZM112 286.597 112.559 289.461 114.225 291.852 116.61 293.442 119.401 294 250.597 294 253.451 293.443 255.846 291.846 257.443 289.451 258 286.597 258 260.401 257.442 257.61 255.852 255.225 253.461 253.559 250.597 253 119.401 253 116.599 253.56 114.219 255.219 112.56 257.599 112 260.401ZM114 260.599 114.44 258.401 115.656 256.656 117.401 255.44 119.599 255 250.403 255 252.664 255.441 254.398 256.65 255.558 258.39 256 260.599 256 286.403 255.557 288.674 254.404 290.404 252.674 291.557 250.403 292 119.599 292 117.39 291.558 115.65 290.398 114.441 288.664 114 286.403ZM116 286.21 116.323 287.867 117.074 288.944 118.17 289.675 119.797 290 250.21 290 251.898 289.671 252.962 288.962 253.671 287.898 254 286.21 254 260.797 253.675 259.17 252.944 258.074 251.867 257.323 250.21 257 119.797 257 118.202 257.319 117.092 258.092 116.319 259.202 116 260.797Z" fill="#4472C4"/><text fill="#2F5597" font-family="Arial,Arial_MSFontService,sans-serif" font-weight="400" font-size="19" transform="translate(154.976 280)">tempos</text><path d="M113 363.333C113 359.836 115.836 357 119.333 357L250.667 357C254.164 357 257 359.836 257 363.333L257 388.667C257 392.164 254.164 395 250.667 395L119.333 395C115.836 395 113 392.164 113 388.667Z" fill="#F0F4FA" fill-rule="evenodd"/><path d="M110 363.078 110.679 359.683 112.718 356.718 115.683 354.679 119.078 354 250.992 354 254.302 354.679 257.36 356.718 259.328 359.716 260 363.078 260 388.992 259.328 392.269 257.361 395.361 254.269 397.328 250.992 398 119.078 398 115.716 397.328 112.718 395.36 110.679 392.302 110 388.992ZM112 388.789 112.56 391.517 114.156 393.912 116.489 395.443 119.276 396 250.789 396 253.506 395.443 255.912 393.912 257.443 391.506 258 388.789 258 363.276 257.443 360.489 255.912 358.156 253.517 356.56 250.789 356 119.276 356 116.478 356.56 114.156 358.156 112.56 360.478 112 363.276ZM114 363.474 114.44 361.272 115.594 359.594 117.272 358.44 119.474 358 250.586 358 252.733 358.44 254.463 359.594 255.557 361.261 256 363.474 256 388.586 255.557 390.744 254.463 392.463 252.744 393.557 250.586 394 119.474 394 117.261 393.557 115.594 392.463 114.44 390.733 114 388.586ZM116 388.383 116.321 389.948 117.032 391.015 118.034 391.672 119.672 392 250.383 392 251.981 391.672 253.014 391.014 253.672 389.981 254 388.383 254 363.672 253.672 362.034 253.015 361.032 251.948 360.321 250.383 360 119.672 360 118.067 360.321 117.032 361.032 116.321 362.067 116 363.672Z" fill="#4472C4"/><text fill="#2F5597" font-family="Arial,Arial_MSFontService,sans-serif" font-weight="400" font-size="19" transform="translate(121.009 383)">time_signatures</text><path d="M113 312.333C113 308.836 115.836 306 119.333 306L250.667 306C254.164 306 257 308.836 257 312.333L257 337.667C257 341.164 254.164 344 250.667 344L119.333 344C115.836 344 113 341.164 113 337.667Z" fill="#F0F4FA" fill-rule="evenodd"/><path d="M110 312.078 110.679 308.683 112.718 305.718 115.683 303.679 119.078 303 250.992 303 254.302 303.679 257.36 305.718 259.328 308.716 260 312.078 260 337.992 259.328 341.269 257.361 344.361 254.269 346.328 250.992 347 119.078 347 115.716 346.328 112.718 344.36 110.679 341.302 110 337.992ZM112 337.789 112.56 340.517 114.156 342.912 116.489 344.443 119.276 345 250.789 345 253.506 344.443 255.912 342.912 257.443 340.506 258 337.789 258 312.276 257.443 309.489 255.912 307.156 253.517 305.56 250.789 305 119.276 305 116.478 305.56 114.156 307.156 112.56 309.478 112 312.276ZM114 312.474 114.44 310.272 115.594 308.594 117.272 307.44 119.474 307 250.586 307 252.733 307.44 254.463 308.594 255.557 310.261 256 312.474 256 337.586 255.557 339.744 254.463 341.463 252.744 342.557 250.586 343 119.474 343 117.261 342.557 115.594 341.463 114.44 339.733 114 337.586ZM116 337.383 116.321 338.948 117.032 340.015 118.034 340.672 119.672 341 250.383 341 251.981 340.672 253.014 340.014 253.672 338.981 254 337.383 254 312.672 253.672 311.034 253.015 310.032 251.948 309.321 250.383 309 119.672 309 118.067 309.321 117.032 310.032 116.321 311.067 116 312.672Z" fill="#4472C4"/><text fill="#2F5597" font-family="Arial,Arial_MSFontService,sans-serif" font-weight="400" font-size="19" transform="translate(123.959 332)">key_signatures</text><path d="M113 465.5C113 461.91 115.91 459 119.5 459L250.5 459C254.09 459 257 461.91 257 465.5L257 491.5C257 495.09 254.09 498 250.5 498L119.5 498C115.91 498 113 495.09 113 491.5Z" fill="#F0F4FA" fill-rule="evenodd"/><path d="M110 465.203 110.681 461.798 112.783 458.783 115.798 456.681 119.203 456 250.79 456 254.258 456.677 257.306 458.801 259.325 461.83 260 465.203 260 491.79 259.329 495.227 257.288 498.288 254.227 500.329 250.79 501 119.203 501 115.83 500.325 112.801 498.306 110.677 495.258 110 491.79ZM112 491.597 112.559 494.461 114.225 496.852 116.61 498.442 119.401 499 250.597 499 253.451 498.443 255.846 496.846 257.443 494.451 258 491.597 258 465.401 257.442 462.61 255.852 460.225 253.461 458.559 250.597 458 119.401 458 116.599 458.56 114.219 460.219 112.56 462.599 112 465.401ZM114 465.599 114.44 463.401 115.656 461.656 117.401 460.44 119.599 460 250.403 460 252.664 460.441 254.398 461.65 255.558 463.39 256 465.599 256 491.403 255.557 493.674 254.404 495.404 252.674 496.557 250.403 497 119.599 497 117.39 496.558 115.65 495.398 114.441 493.664 114 491.403ZM116 491.21 116.323 492.867 117.074 493.944 118.17 494.675 119.797 495 250.21 495 251.898 494.671 252.962 493.962 253.671 492.898 254 491.21 254 465.797 253.675 464.17 252.944 463.074 251.867 462.323 250.21 462 119.797 462 118.202 462.319 117.092 463.092 116.319 464.202 116 465.797Z" fill="#4472C4"/><text fill="#2F5597" font-family="Arial,Arial_MSFontService,sans-serif" font-weight="400" font-size="19" transform="translate(164.226 485)">lyrics</text><path d="M113 517.333C113 513.836 115.836 511 119.333 511L250.667 511C254.164 511 257 513.836 257 517.333L257 542.667C257 546.164 254.164 549 250.667 549L119.333 549C115.836 549 113 546.164 113 542.667Z" fill="#F0F4FA" fill-rule="evenodd"/><path d="M110 517.078 110.679 513.683 112.718 510.718 115.683 508.679 119.078 508 250.992 508 254.302 508.679 257.36 510.718 259.328 513.716 260 517.078 260 542.992 259.328 546.269 257.361 549.361 254.269 551.328 250.992 552 119.078 552 115.716 551.328 112.718 549.36 110.679 546.302 110 542.992ZM112 542.789 112.56 545.517 114.156 547.912 116.489 549.443 119.276 550 250.789 550 253.506 549.443 255.912 547.912 257.443 545.506 258 542.789 258 517.276 257.443 514.489 255.912 512.156 253.517 510.56 250.789 510 119.276 510 116.478 510.56 114.156 512.156 112.56 514.478 112 517.276ZM114 517.474 114.44 515.272 115.594 513.594 117.272 512.44 119.474 512 250.586 512 252.733 512.44 254.463 513.594 255.557 515.261 256 517.474 256 542.586 255.557 544.744 254.463 546.463 252.744 547.557 250.586 548 119.474 548 117.261 547.557 115.594 546.463 114.44 544.733 114 542.586ZM116 542.383 116.321 543.948 117.032 545.015 118.034 545.672 119.672 546 250.383 546 251.981 545.672 253.014 545.014 253.672 543.981 254 542.383 254 517.672 253.672 516.034 253.015 515.032 251.948 514.321 250.383 514 119.672 514 118.067 514.321 117.032 515.032 116.321 516.067 116 517.672Z" fill="#4472C4"/><text fill="#2F5597" font-family="Arial,Arial_MSFontService,sans-serif" font-weight="400" font-size="19" transform="translate(138.059 537)">annotations</text><path d="M113 414.333C113 410.836 115.836 408 119.333 408L250.667 408C254.164 408 257 410.836 257 414.333L257 439.667C257 443.164 254.164 446 250.667 446L119.333 446C115.836 446 113 443.164 113 439.667Z" fill="#EEF7E9" fill-rule="evenodd"/><path d="M110 414.078 110.679 410.683 112.718 407.718 115.683 405.679 119.078 405 250.992 405 254.302 405.679 257.36 407.718 259.328 410.716 260 414.078 260 439.992 259.328 443.269 257.361 446.361 254.269 448.328 250.992 449 119.078 449 115.716 448.328 112.718 446.36 110.679 443.302 110 439.992ZM112 439.789 112.56 442.517 114.156 444.912 116.489 446.443 119.276 447 250.789 447 253.506 446.443 255.912 444.912 257.443 442.506 258 439.789 258 414.276 257.443 411.489 255.912 409.156 253.517 407.56 250.789 407 119.276 407 116.478 407.56 114.156 409.156 112.56 411.478 112 414.276ZM114 414.474 114.44 412.272 115.594 410.594 117.272 409.44 119.474 409 250.586 409 252.733 409.44 254.463 410.594 255.557 412.261 256 414.474 256 439.586 255.557 441.744 254.463 443.463 252.744 444.557 250.586 445 119.474 445 117.261 444.557 115.594 443.463 114.44 441.733 114 439.586ZM116 439.383 116.321 440.948 117.032 442.015 118.034 442.672 119.672 443 250.383 443 251.981 442.672 253.014 442.014 253.672 440.981 254 439.383 254 414.672 253.672 413.034 253.015 412.032 251.948 411.321 250.383 411 119.672 411 118.067 411.321 117.032 412.032 116.321 413.067 116 414.672Z" fill="#548235"/><text fill="#385723" font-family="Arial,Arial_MSFontService,sans-serif" font-weight="400" font-size="19" transform="translate(140.876 434)">downbeats</text><path d="M185.5 123.5 185.5 142.262" stroke="#4472C4" stroke-width="3" stroke-miterlimit="8" fill="none" fill-rule="evenodd"/><path d="M455.5 145.549C455.5 137.238 462.238 130.5 470.549 130.5L613.451 130.5C621.762 130.5 628.5 137.238 628.5 145.549L628.5 480.451C628.5 488.762 621.762 495.5 613.451 495.5L470.549 495.5C462.238 495.5 455.5 488.762 455.5 480.451Z" stroke="#4472C4" stroke-width="3" stroke-miterlimit="8" fill="#F0F4FA" fill-rule="evenodd"/><path d="M484.5 81.8335C484.5 78.3356 487.336 75.5001 490.833 75.5001L593.167 75.5001C596.664 75.5001 599.5 78.3356 599.5 81.8335L599.5 107.167C599.5 110.664 596.664 113.5 593.167 113.5L490.833 113.5C487.336 113.5 484.5 110.664 484.5 107.167Z" stroke="#4472C4" stroke-width="3" stroke-miterlimit="8" fill="#F0F4FA" fill-rule="evenodd"/><text fill="#2F5597" font-family="Arial,Arial_MSFontService,sans-serif" font-weight="700" font-size="21" transform="translate(496.087 102)">M<tspan x="17.5667" y="0">etadata</tspan></text><path d="M464.5 147.834C464.5 144.336 467.336 141.5 470.834 141.5L612.167 141.5C615.664 141.5 618.5 144.336 618.5 147.834L618.5 173.167C618.5 176.664 615.664 179.5 612.167 179.5L470.834 179.5C467.336 179.5 464.5 176.664 464.5 173.167Z" stroke="#BF9000" stroke-width="3" stroke-miterlimit="8" fill="#FFF5D7" fill-rule="evenodd"/><text fill="#7F6000" font-family="Arial,Arial_MSFontService,sans-serif" font-weight="400" font-size="19" transform="translate(473.52 167)">schema_version</text><path d="M464.5 198C464.5 194.41 467.41 191.5 471 191.5L612 191.5C615.59 191.5 618.5 194.41 618.5 198L618.5 224C618.5 227.59 615.59 230.5 612 230.5L471 230.5C467.41 230.5 464.5 227.59 464.5 224Z" stroke="#BF9000" stroke-width="3" stroke-miterlimit="8" fill="#FFF5D7" fill-rule="evenodd"/><text fill="#7F6000" font-family="Arial,Arial_MSFontService,sans-serif" font-weight="400" font-size="19" transform="translate(526.77 217)">title</text><path d="M464 248.333C464 244.836 466.836 242 470.333 242L611.667 242C615.164 242 618 244.836 618 248.333L618 273.667C618 277.164 615.164 280 611.667 280L470.333 280C466.836 280 464 277.164 464 273.667Z" fill="#FFF5D7" fill-rule="evenodd"/><path d="M461 248.078 461.679 244.683 463.718 241.718 466.683 239.679 470.078 239 611.992 239 615.302 239.679 618.36 241.718 620.328 244.716 621 248.078 621 273.992 620.328 277.269 618.361 280.361 615.269 282.328 611.992 283 470.078 283 466.716 282.328 463.718 280.36 461.679 277.302 461 273.992ZM463 273.789 463.56 276.517 465.156 278.912 467.489 280.443 470.276 281 611.789 281 614.506 280.443 616.912 278.912 618.443 276.506 619 273.789 619 248.276 618.443 245.489 616.912 243.156 614.517 241.56 611.789 241 470.276 241 467.478 241.56 465.156 243.156 463.56 245.478 463 248.276ZM465 248.474 465.44 246.272 466.594 244.594 468.272 243.44 470.474 243 611.586 243 613.733 243.44 615.463 244.594 616.557 246.261 617 248.474 617 273.586 616.557 275.744 615.463 277.463 613.744 278.557 611.586 279 470.474 279 468.261 278.557 466.594 277.463 465.44 275.733 465 273.586ZM467 273.383 467.321 274.948 468.032 276.015 469.034 276.672 470.672 277 611.383 277 612.981 276.672 614.014 276.014 614.672 274.981 615 273.383 615 248.672 614.672 247.034 614.015 246.032 612.948 245.321 611.383 245 470.672 245 469.067 245.321 468.032 246.032 467.321 247.067 467 248.672Z" fill="#BF9000"/><text fill="#7F6000" font-family="Arial,Arial_MSFontService,sans-serif" font-weight="400" font-size="19" transform="translate(508.754 268)">creators</text><path d="M464.5 299.834C464.5 296.336 467.336 293.5 470.834 293.5L612.167 293.5C615.664 293.5 618.5 296.336 618.5 299.834L618.5 325.167C618.5 328.664 615.664 331.5 612.167 331.5L470.834 331.5C467.336 331.5 464.5 328.664 464.5 325.167Z" stroke="#BF9000" stroke-width="3" stroke-miterlimit="8" fill="#FFF5D7" fill-rule="evenodd"/><text fill="#7F6000" font-family="Arial,Arial_MSFontService,sans-serif" font-weight="400" font-size="19" transform="translate(504.72 319)">copyright</text><path d="M464.5 350C464.5 346.41 467.41 343.5 471 343.5L612 343.5C615.59 343.5 618.5 346.41 618.5 350L618.5 376C618.5 379.59 615.59 382.5 612 382.5L471 382.5C467.41 382.5 464.5 379.59 464.5 376Z" stroke="#BF9000" stroke-width="3" stroke-miterlimit="8" fill="#FFF5D7" fill-rule="evenodd"/><text fill="#7F6000" font-family="Arial,Arial_MSFontService,sans-serif" font-weight="400" font-size="19" transform="translate(503.77 369)">collection</text><path d="M464.5 400.834C464.5 397.336 467.336 394.5 470.834 394.5L612.167 394.5C615.664 394.5 618.5 397.336 618.5 400.834L618.5 426.167C618.5 429.664 615.664 432.5 612.167 432.5L470.834 432.5C467.336 432.5 464.5 429.664 464.5 426.167Z" stroke="#BF9000" stroke-width="3" stroke-miterlimit="8" fill="#FFF5D7" fill-rule="evenodd"/><text fill="#7F6000" font-family="Arial,Arial_MSFontService,sans-serif" font-weight="400" font-size="19" transform="translate(475.02 420)">source_filename</text><path d="M464.5 451.834C464.5 448.336 467.336 445.5 470.834 445.5L612.167 445.5C615.664 445.5 618.5 448.336 618.5 451.834L618.5 477.167C618.5 480.664 615.664 483.5 612.167 483.5L470.834 483.5C467.336 483.5 464.5 480.664 464.5 477.167Z" stroke="#BF9000" stroke-width="3" stroke-miterlimit="8" fill="#FFF5D7" fill-rule="evenodd"/><text fill="#7F6000" font-family="Arial,Arial_MSFontService,sans-serif" font-weight="400" font-size="19" transform="translate(483.587 471)">source_format</text><path d="M536.5 113.5 536.5 130.866" stroke="#4472C4" stroke-width="3" stroke-miterlimit="8" fill="none" fill-rule="evenodd"/><path d="M655.5 139.851C655.5 135.239 659.239 131.5 663.851 131.5L743.149 131.5C747.761 131.5 751.5 135.239 751.5 139.851L751.5 233.149C751.5 237.761 747.761 241.5 743.149 241.5L663.851 241.5C659.239 241.5 655.5 237.761 655.5 233.149Z" stroke="#4472C4" stroke-width="3" stroke-miterlimit="8" fill="#F0F4FA" fill-rule="evenodd"/><path d="M664.5 147.834C664.5 144.336 667.336 141.5 670.834 141.5L735.167 141.5C738.664 141.5 741.5 144.336 741.5 147.834L741.5 173.167C741.5 176.664 738.664 179.5 735.167 179.5L670.834 179.5C667.336 179.5 664.5 176.664 664.5 173.167Z" stroke="#548235" stroke-width="3" stroke-miterlimit="8" fill="#EEF7E9" fill-rule="evenodd"/><text fill="#385723" font-family="Arial,Arial_MSFontService,sans-serif" font-weight="400" font-size="19" transform="translate(685.717 167)">time</text><path d="M664.5 198.834C664.5 195.336 667.336 192.5 670.834 192.5L735.167 192.5C738.664 192.5 741.5 195.336 741.5 198.834L741.5 224.167C741.5 227.664 738.664 230.5 735.167 230.5L670.834 230.5C667.336 230.5 664.5 227.664 664.5 224.167Z" stroke="#548235" stroke-width="3" stroke-miterlimit="8" fill="#EEF7E9" fill-rule="evenodd"/><text fill="#385723" font-family="Arial,Arial_MSFontService,sans-serif" font-weight="400" font-size="19" transform="translate(677.601 218)">tempo</text><path d="M660.5 81.8335C660.5 78.3356 663.336 75.5001 666.834 75.5001L740.167 75.5001C743.664 75.5001 746.5 78.3356 746.5 81.8335L746.5 107.167C746.5 110.664 743.664 113.5 740.167 113.5L666.834 113.5C663.336 113.5 660.5 110.664 660.5 107.167Z" stroke="#4472C4" stroke-width="3" stroke-miterlimit="8" fill="#F0F4FA" fill-rule="evenodd"/><text fill="#2F5597" font-family="Arial,Arial_MSFontService,sans-serif" font-weight="700" font-size="21" transform="translate(669.311 102)">Tempo</text><path d="M703.5 113.5 703.5 131.403" stroke="#4472C4" stroke-width="3" stroke-miterlimit="8" fill="none" fill-rule="evenodd"/><path d="M807.5 138.851C807.5 134.239 811.239 130.5 815.851 130.5L895.149 130.5C899.761 130.5 903.5 134.239 903.5 138.851L903.5 284.149C903.5 288.761 899.761 292.5 895.149 292.5L815.851 292.5C811.239 292.5 807.5 288.761 807.5 284.149Z" stroke="#4472C4" stroke-width="3" stroke-miterlimit="8" fill="#F0F4FA" fill-rule="evenodd"/><path d="M816.5 147.834C816.5 144.336 819.336 141.5 822.834 141.5L887.167 141.5C890.664 141.5 893.5 144.336 893.5 147.834L893.5 173.167C893.5 176.664 890.664 179.5 887.167 179.5L822.834 179.5C819.336 179.5 816.5 176.664 816.5 173.167Z" stroke="#548235" stroke-width="3" stroke-miterlimit="8" fill="#EEF7E9" fill-rule="evenodd"/><text fill="#385723" font-family="Arial,Arial_MSFontService,sans-serif" font-weight="400" font-size="19" transform="translate(837.614 167)">time</text><path d="M816.5 198.834C816.5 195.336 819.336 192.5 822.834 192.5L887.167 192.5C890.664 192.5 893.5 195.336 893.5 198.834L893.5 224.167C893.5 227.664 890.664 230.5 887.167 230.5L822.834 230.5C819.336 230.5 816.5 227.664 816.5 224.167Z" stroke="#548235" stroke-width="3" stroke-miterlimit="8" fill="#EEF7E9" fill-rule="evenodd"/><text fill="#385723" font-family="Arial,Arial_MSFontService,sans-serif" font-weight="400" font-size="19" transform="translate(839.198 218)">root</text><path d="M816.5 250C816.5 246.41 819.41 243.5 823 243.5L887 243.5C890.59 243.5 893.5 246.41 893.5 250L893.5 276C893.5 279.59 890.59 282.5 887 282.5L823 282.5C819.41 282.5 816.5 279.59 816.5 276Z" stroke="#BF9000" stroke-width="3" stroke-miterlimit="8" fill="#FFF5D7" fill-rule="evenodd"/><text fill="#7F6000" font-family="Arial,Arial_MSFontService,sans-serif" font-weight="400" font-size="19" transform="translate(831.414 269)">mode</text><path d="M778.5 81.8336C778.5 78.3357 781.336 75.5001 784.834 75.5001L925.167 75.5001C928.664 75.5001 931.5 78.3357 931.5 81.8336L931.5 107.167C931.5 110.664 928.664 113.5 925.167 113.5L784.834 113.5C781.336 113.5 778.5 110.664 778.5 107.167Z" stroke="#4472C4" stroke-width="3" stroke-miterlimit="8" fill="#F0F4FA" fill-rule="evenodd"/><text fill="#2F5597" font-family="Arial,Arial_MSFontService,sans-serif" font-weight="700" font-size="21" transform="translate(787.598 102)">K<tspan x="15.0667" y="0">ey</tspan><tspan x="38.2" y="0">S</tspan><tspan x="52.1" y="0">ignature</tspan></text><path d="M855.5 113.5 855.5 130.874" stroke="#4472C4" stroke-width="3" stroke-miterlimit="8" fill="none" fill-rule="evenodd"/><path d="M973.5 144.157C973.5 137.719 978.719 132.5 985.157 132.5L1095.84 132.5C1102.28 132.5 1107.5 137.719 1107.5 144.157L1107.5 281.843C1107.5 288.281 1102.28 293.5 1095.84 293.5L985.157 293.5C978.719 293.5 973.5 288.281 973.5 281.843Z" stroke="#4472C4" stroke-width="3" stroke-miterlimit="8" fill="#F0F4FA" fill-rule="evenodd"/><path d="M983.5 149C983.5 145.41 986.41 142.5 990 142.5L1092 142.5C1095.59 142.5 1098.5 145.41 1098.5 149L1098.5 175C1098.5 178.59 1095.59 181.5 1092 181.5L990 181.5C986.41 181.5 983.5 178.59 983.5 175Z" stroke="#548235" stroke-width="3" stroke-miterlimit="8" fill="#EEF7E9" fill-rule="evenodd"/><text fill="#385723" font-family="Arial,Arial_MSFontService,sans-serif" font-weight="400" font-size="19" transform="translate(1023.11 168)">time</text><path d="M983.5 200.833C983.5 197.336 986.336 194.5 989.833 194.5L1092.17 194.5C1095.66 194.5 1098.5 197.336 1098.5 200.833L1098.5 226.167C1098.5 229.664 1095.66 232.5 1092.17 232.5L989.833 232.5C986.336 232.5 983.5 229.664 983.5 226.167Z" stroke="#548235" stroke-width="3" stroke-miterlimit="8" fill="#EEF7E9" fill-rule="evenodd"/><text fill="#385723" font-family="Arial,Arial_MSFontService,sans-serif" font-weight="400" font-size="19" transform="translate(999.028 220)">numerator</text><path d="M983.5 251.833C983.5 248.336 986.336 245.5 989.833 245.5L1092.17 245.5C1095.66 245.5 1098.5 248.336 1098.5 251.833L1098.5 277.167C1098.5 280.664 1095.66 283.5 1092.17 283.5L989.833 283.5C986.336 283.5 983.5 280.664 983.5 277.167Z" stroke="#548235" stroke-width="3" stroke-miterlimit="8" fill="#EEF7E9" fill-rule="evenodd"/><text fill="#385723" font-family="Arial,Arial_MSFontService,sans-serif" font-weight="400" font-size="19" transform="translate(989.962 271)">denominator</text><path d="M959.5 81.8336C959.5 78.3357 962.336 75.5001 965.834 75.5001L1116.17 75.5001C1119.66 75.5001 1122.5 78.3357 1122.5 81.8336L1122.5 107.167C1122.5 110.664 1119.66 113.5 1116.17 113.5L965.834 113.5C962.336 113.5 959.5 110.664 959.5 107.167Z" stroke="#4472C4" stroke-width="3" stroke-miterlimit="8" fill="#F0F4FA" fill-rule="evenodd"/><text fill="#2F5597" font-family="Arial,Arial_MSFontService,sans-serif" font-weight="700" font-size="21" transform="translate(968.005 102)">T<tspan x="12.3467" y="0">ime</tspan><tspan x="48.38" y="0">S</tspan><tspan x="62.28" y="0">ignature</tspan></text><path d="M1040.5 113.5 1040.5 132.361" stroke="#4472C4" stroke-width="3" stroke-miterlimit="8" fill="none" fill-rule="evenodd"/><path d="M649.5 382.851C649.5 378.239 653.239 374.5 657.851 374.5L737.149 374.5C741.761 374.5 745.5 378.239 745.5 382.851L745.5 476.149C745.5 480.761 741.761 484.5 737.149 484.5L657.851 484.5C653.239 484.5 649.5 480.761 649.5 476.149Z" stroke="#4472C4" stroke-width="3" stroke-miterlimit="8" fill="#F0F4FA" fill-rule="evenodd"/><path d="M659.5 390.834C659.5 387.336 662.336 384.5 665.834 384.5L730.167 384.5C733.664 384.5 736.5 387.336 736.5 390.834L736.5 416.167C736.5 419.664 733.664 422.5 730.167 422.5L665.834 422.5C662.336 422.5 659.5 419.664 659.5 416.167Z" stroke="#548235" stroke-width="3" stroke-miterlimit="8" fill="#EEF7E9" fill-rule="evenodd"/><text fill="#385723" font-family="Arial,Arial_MSFontService,sans-serif" font-weight="400" font-size="19" transform="translate(680.321 410)">time</text><path d="M659.5 441.834C659.5 438.336 662.336 435.5 665.834 435.5L730.167 435.5C733.664 435.5 736.5 438.336 736.5 441.834L736.5 467.167C736.5 470.664 733.664 473.5 730.167 473.5L665.834 473.5C662.336 473.5 659.5 470.664 659.5 467.167Z" stroke="#548235" stroke-width="3" stroke-miterlimit="8" fill="#EEF7E9" fill-rule="evenodd"/><text fill="#385723" font-family="Arial,Arial_MSFontService,sans-serif" font-weight="400" font-size="19" transform="translate(681.455 461)">lyric</text><path d="M659.5 322C659.5 318.41 662.41 315.5 666 315.5L730 315.5C733.59 315.5 736.5 318.41 736.5 322L736.5 348C736.5 351.59 733.59 354.5 730 354.5L666 354.5C662.41 354.5 659.5 351.59 659.5 348Z" stroke="#4472C4" stroke-width="3" stroke-miterlimit="8" fill="#F0F4FA" fill-rule="evenodd"/><text fill="#2F5597" font-family="Arial,Arial_MSFontService,sans-serif" font-weight="700" font-size="21" transform="translate(672.935 343)">L<tspan x="11.94" y="0">yric</tspan></text><path d="M697.5 354.5 697.5 374.623" stroke="#4472C4" stroke-width="3" stroke-miterlimit="8" fill="none" fill-rule="evenodd"/><path d="M772.5 384.504C772.5 378.979 776.979 374.5 782.504 374.5L877.496 374.5C883.021 374.5 887.5 378.979 887.5 384.504L887.5 525.496C887.5 531.021 883.021 535.5 877.496 535.5L782.504 535.5C776.979 535.5 772.5 531.021 772.5 525.496Z" stroke="#4472C4" stroke-width="3" stroke-miterlimit="8" fill="#F0F4FA" fill-rule="evenodd"/><path d="M781.5 390.833C781.5 387.336 784.336 384.5 787.833 384.5L871.167 384.5C874.664 384.5 877.5 387.336 877.5 390.833L877.5 416.167C877.5 419.664 874.664 422.5 871.167 422.5L787.833 422.5C784.336 422.5 781.5 419.664 781.5 416.167Z" stroke="#548235" stroke-width="3" stroke-miterlimit="8" fill="#EEF7E9" fill-rule="evenodd"/><text fill="#385723" font-family="Arial,Arial_MSFontService,sans-serif" font-weight="400" font-size="19" transform="translate(812.185 410)">time</text><path d="M781.5 492.833C781.5 489.336 784.336 486.5 787.833 486.5L871.167 486.5C874.664 486.5 877.5 489.336 877.5 492.833L877.5 518.167C877.5 521.664 874.664 524.5 871.167 524.5L787.833 524.5C784.336 524.5 781.5 521.664 781.5 518.167Z" stroke="#BF9000" stroke-width="3" stroke-miterlimit="8" fill="#FFF5D7" fill-rule="evenodd"/><text fill="#7F6000" font-family="Arial,Arial_MSFontService,sans-serif" font-weight="400" font-size="19" transform="translate(805.485 512)">group</text><path d="M781.5 441.833C781.5 438.336 784.336 435.5 787.833 435.5L871.167 435.5C874.664 435.5 877.5 438.336 877.5 441.833L877.5 467.167C877.5 470.664 874.664 473.5 871.167 473.5L787.833 473.5C784.336 473.5 781.5 470.664 781.5 467.167Z" stroke="#7030A0" stroke-width="3" stroke-miterlimit="8" fill="#F5EBFF" fill-rule="evenodd"/><text fill="#7030A0" font-family="Arial,Arial_MSFontService,sans-serif" font-weight="400" font-size="19" transform="translate(787.151 461)">annotation</text><path d="M762.5 322C762.5 318.41 765.41 315.5 769 315.5L890 315.5C893.59 315.5 896.5 318.41 896.5 322L896.5 348C896.5 351.59 893.59 354.5 890 354.5L769 354.5C765.41 354.5 762.5 351.59 762.5 348Z" stroke="#4472C4" stroke-width="3" stroke-miterlimit="8" fill="#F0F4FA" fill-rule="evenodd"/><text fill="#2F5597" font-family="Arial,Arial_MSFontService,sans-serif" font-weight="700" font-size="21" transform="translate(774.318 343)">A<tspan x="15.0667" y="0">nnotation</tspan></text><path d="M829.5 354.5 829.5 374.623" stroke="#4472C4" stroke-width="3" stroke-miterlimit="8" fill="none" fill-rule="evenodd"/><path d="M293.5 143.244C293.5 136.758 298.758 131.5 305.244 131.5L416.756 131.5C423.242 131.5 428.5 136.758 428.5 143.244L428.5 484.756C428.5 491.242 423.242 496.5 416.756 496.5L305.244 496.5C298.758 496.5 293.5 491.242 293.5 484.756Z" stroke="#4472C4" stroke-width="3" stroke-miterlimit="8" fill="#F0F4FA" fill-rule="evenodd"/><path d="M303.5 148.833C303.5 145.336 306.336 142.5 309.833 142.5L412.167 142.5C415.664 142.5 418.5 145.336 418.5 148.833L418.5 174.167C418.5 177.664 415.664 180.5 412.167 180.5L309.833 180.5C306.336 180.5 303.5 177.664 303.5 174.167Z" stroke="#548235" stroke-width="3" stroke-miterlimit="8" fill="#EEF7E9" fill-rule="evenodd"/><text fill="#385723" font-family="Arial,Arial_MSFontService,sans-serif" font-weight="400" font-size="19" transform="translate(326.923 168)">program</text><path d="M303.5 199.833C303.5 196.336 306.336 193.5 309.833 193.5L412.167 193.5C415.664 193.5 418.5 196.336 418.5 199.833L418.5 225.167C418.5 228.664 415.664 231.5 412.167 231.5L309.833 231.5C306.336 231.5 303.5 228.664 303.5 225.167Z" stroke="#767171" stroke-width="3" stroke-miterlimit="8" fill="#F2F2F2" fill-rule="evenodd"/><text fill="#3B3838" font-family="Arial,Arial_MSFontService,sans-serif" font-weight="400" font-size="19" transform="translate(328.423 219)">is<tspan x="12.9667" y="0">_drum</tspan></text><path d="M303.5 250.833C303.5 247.336 306.336 244.5 309.833 244.5L412.167 244.5C415.664 244.5 418.5 247.336 418.5 250.833L418.5 276.167C418.5 279.664 415.664 282.5 412.167 282.5L309.833 282.5C306.336 282.5 303.5 279.664 303.5 276.167Z" stroke="#548235" stroke-width="3" stroke-miterlimit="8" fill="#EEF7E9" fill-rule="evenodd"/><text fill="#385723" font-family="Arial,Arial_MSFontService,sans-serif" font-weight="400" font-size="19" transform="translate(337.323 270)">name</text><path d="M317.5 81.8335C317.5 78.3356 320.336 75.5001 323.834 75.5001L398.167 75.5001C401.664 75.5001 404.5 78.3356 404.5 81.8335L404.5 107.167C404.5 110.664 401.664 113.5 398.167 113.5L323.834 113.5C320.336 113.5 317.5 110.664 317.5 107.167Z" stroke="#4472C4" stroke-width="3" stroke-miterlimit="8" fill="#F0F4FA" fill-rule="evenodd"/><text fill="#2F5597" font-family="Arial,Arial_MSFontService,sans-serif" font-weight="700" font-size="21" transform="translate(333.413 102)">T<tspan x="11.5533" y="0">rack</tspan></text><path d="M358.5 113.5 358.5 131.833" stroke="#4472C4" stroke-width="3" stroke-miterlimit="8" fill="none" fill-rule="evenodd"/><path d="M303 301.333C303 297.836 305.836 295 309.333 295L411.667 295C415.164 295 418 297.836 418 301.333L418 326.667C418 330.164 415.164 333 411.667 333L309.333 333C305.836 333 303 330.164 303 326.667Z" fill="#F0F4FA" fill-rule="evenodd"/><path d="M300 301.078 300.679 297.683 302.718 294.718 305.683 292.679 309.078 292 411.992 292 415.302 292.679 418.36 294.718 420.328 297.716 421 301.078 421 326.992 420.328 330.269 418.361 333.361 415.269 335.328 411.992 336 309.078 336 305.716 335.328 302.718 333.36 300.679 330.302 300 326.992ZM302 326.789 302.56 329.517 304.156 331.912 306.489 333.443 309.276 334 411.789 334 414.506 333.443 416.912 331.912 418.443 329.506 419 326.789 419 301.276 418.443 298.489 416.912 296.156 414.517 294.56 411.789 294 309.276 294 306.478 294.56 304.156 296.156 302.56 298.478 302 301.276ZM304 301.474 304.44 299.272 305.594 297.594 307.272 296.44 309.474 296 411.586 296 413.733 296.44 415.463 297.594 416.557 299.261 417 301.474 417 326.586 416.557 328.744 415.463 330.463 413.744 331.557 411.586 332 309.474 332 307.261 331.557 305.594 330.463 304.44 328.733 304 326.586ZM306 326.383 306.321 327.948 307.032 329.015 308.034 329.672 309.672 330 411.383 330 412.981 329.672 414.014 329.014 414.672 327.981 415 326.383 415 301.672 414.672 300.034 414.015 299.032 412.948 298.321 411.383 298 309.672 298 308.067 298.321 307.032 299.032 306.321 300.067 306 301.672Z" fill="#4472C4"/><text fill="#2F5597" font-family="Arial,Arial_MSFontService,sans-serif" font-weight="400" font-size="19" transform="translate(338.49 321)">notes</text><path d="M303 352.333C303 348.836 305.836 346 309.333 346L411.667 346C415.164 346 418 348.836 418 352.333L418 377.667C418 381.164 415.164 384 411.667 384L309.333 384C305.836 384 303 381.164 303 377.667Z" fill="#F0F4FA" fill-rule="evenodd"/><path d="M300 352.078 300.679 348.683 302.718 345.718 305.683 343.679 309.078 343 411.992 343 415.302 343.679 418.36 345.718 420.328 348.716 421 352.078 421 377.992 420.328 381.269 418.361 384.361 415.269 386.328 411.992 387 309.078 387 305.716 386.328 302.718 384.36 300.679 381.302 300 377.992ZM302 377.789 302.56 380.517 304.156 382.912 306.489 384.443 309.276 385 411.789 385 414.506 384.443 416.912 382.912 418.443 380.506 419 377.789 419 352.276 418.443 349.489 416.912 347.156 414.517 345.56 411.789 345 309.276 345 306.478 345.56 304.156 347.156 302.56 349.478 302 352.276ZM304 352.474 304.44 350.272 305.594 348.594 307.272 347.44 309.474 347 411.586 347 413.733 347.44 415.463 348.594 416.557 350.261 417 352.474 417 377.586 416.557 379.744 415.463 381.463 413.744 382.557 411.586 383 309.474 383 307.261 382.557 305.594 381.463 304.44 379.733 304 377.586ZM306 377.383 306.321 378.948 307.032 380.015 308.034 380.672 309.672 381 411.383 381 412.981 380.672 414.014 380.014 414.672 378.981 415 377.383 415 352.672 414.672 351.034 414.015 350.032 412.948 349.321 411.383 349 309.672 349 308.067 349.321 307.032 350.032 306.321 351.067 306 352.672Z" fill="#4472C4"/><text fill="#2F5597" font-family="Arial,Arial_MSFontService,sans-serif" font-weight="400" font-size="19" transform="translate(333.456 372)">chords</text><path d="M303 403.333C303 399.836 305.836 397 309.333 397L411.667 397C415.164 397 418 399.836 418 403.333L418 428.667C418 432.164 415.164 435 411.667 435L309.333 435C305.836 435 303 432.164 303 428.667Z" fill="#F0F4FA" fill-rule="evenodd"/><path d="M300 403.078 300.679 399.683 302.718 396.718 305.683 394.679 309.078 394 411.992 394 415.302 394.679 418.36 396.718 420.328 399.716 421 403.078 421 428.992 420.328 432.269 418.361 435.361 415.269 437.328 411.992 438 309.078 438 305.716 437.328 302.718 435.36 300.679 432.302 300 428.992ZM302 428.789 302.56 431.517 304.156 433.912 306.489 435.443 309.276 436 411.789 436 414.506 435.443 416.912 433.912 418.443 431.506 419 428.789 419 403.276 418.443 400.489 416.912 398.156 414.517 396.56 411.789 396 309.276 396 306.478 396.56 304.156 398.156 302.56 400.478 302 403.276ZM304 403.474 304.44 401.272 305.594 399.594 307.272 398.44 309.474 398 411.586 398 413.733 398.44 415.463 399.594 416.557 401.261 417 403.474 417 428.586 416.557 430.744 415.463 432.463 413.744 433.557 411.586 434 309.474 434 307.261 433.557 305.594 432.463 304.44 430.733 304 428.586ZM306 428.383 306.321 429.948 307.032 431.015 308.034 431.672 309.672 432 411.383 432 412.981 431.672 414.014 431.014 414.672 429.981 415 428.383 415 403.672 414.672 402.034 414.015 401.032 412.948 400.321 411.383 400 309.672 400 308.067 400.321 307.032 401.032 306.321 402.067 306 403.672Z" fill="#4472C4"/><text fill="#2F5597" font-family="Arial,Arial_MSFontService,sans-serif" font-weight="400" font-size="19" transform="translate(340.123 423)">lyrics</text><path d="M303 454.333C303 450.836 305.836 448 309.333 448L411.667 448C415.164 448 418 450.836 418 454.333L418 479.667C418 483.164 415.164 486 411.667 486L309.333 486C305.836 486 303 483.164 303 479.667Z" fill="#F0F4FA" fill-rule="evenodd"/><path d="M300 454.078 300.679 450.683 302.718 447.718 305.683 445.679 309.078 445 411.992 445 415.302 445.679 418.36 447.718 420.328 450.716 421 454.078 421 479.992 420.328 483.269 418.361 486.361 415.269 488.328 411.992 489 309.078 489 305.716 488.328 302.718 486.36 300.679 483.302 300 479.992ZM302 479.789 302.56 482.517 304.156 484.912 306.489 486.443 309.276 487 411.789 487 414.506 486.443 416.912 484.912 418.443 482.506 419 479.789 419 454.276 418.443 451.489 416.912 449.156 414.517 447.56 411.789 447 309.276 447 306.478 447.56 304.156 449.156 302.56 451.478 302 454.276ZM304 454.474 304.44 452.272 305.594 450.594 307.272 449.44 309.474 449 411.586 449 413.733 449.44 415.463 450.594 416.557 452.261 417 454.474 417 479.586 416.557 481.744 415.463 483.463 413.744 484.557 411.586 485 309.474 485 307.261 484.557 305.594 483.463 304.44 481.733 304 479.586ZM306 479.383 306.321 480.948 307.032 482.015 308.034 482.672 309.672 483 411.383 483 412.981 482.672 414.014 482.014 414.672 480.981 415 479.383 415 454.672 414.672 453.034 414.015 452.032 412.948 451.321 411.383 451 309.672 451 308.067 451.321 307.032 452.032 306.321 453.067 306 454.672Z" fill="#4472C4"/><text fill="#2F5597" font-family="Arial,Arial_MSFontService,sans-serif" font-weight="400" font-size="19" transform="translate(313.956 474)">annotations</text><path d="M913.5 380.851C913.5 376.239 917.239 372.5 921.851 372.5L1001.15 372.5C1005.76 372.5 1009.5 376.239 1009.5 380.851L1009.5 577.149C1009.5 581.761 1005.76 585.5 1001.15 585.5L921.851 585.5C917.239 585.5 913.5 581.761 913.5 577.149Z" stroke="#4472C4" stroke-width="3" stroke-miterlimit="8" fill="#F0F4FA" fill-rule="evenodd"/><path d="M923.5 388C923.5 384.41 926.41 381.5 930 381.5L993 381.5C996.59 381.5 999.5 384.41 999.5 388L999.5 414C999.5 417.59 996.59 420.5 993 420.5L930 420.5C926.41 420.5 923.5 417.59 923.5 414Z" stroke="#548235" stroke-width="3" stroke-miterlimit="8" fill="#EEF7E9" fill-rule="evenodd"/><text fill="#385723" font-family="Arial,Arial_MSFontService,sans-serif" font-weight="400" font-size="19" transform="translate(944.048 407)">time</text><path d="M923.5 439.834C923.5 436.336 926.336 433.5 929.834 433.5L993.167 433.5C996.664 433.5 999.5 436.336 999.5 439.834L999.5 465.167C999.5 468.664 996.664 471.5 993.167 471.5L929.834 471.5C926.336 471.5 923.5 468.664 923.5 465.167Z" stroke="#548235" stroke-width="3" stroke-miterlimit="8" fill="#EEF7E9" fill-rule="evenodd"/><text fill="#385723" font-family="Arial,Arial_MSFontService,sans-serif" font-weight="400" font-size="19" transform="translate(928.582 459)">duration</text><path d="M923.5 322C923.5 318.41 926.41 315.5 930 315.5L993 315.5C996.59 315.5 999.5 318.41 999.5 322L999.5 348C999.5 351.59 996.59 354.5 993 354.5L930 354.5C926.41 354.5 923.5 351.59 923.5 348Z" stroke="#4472C4" stroke-width="3" stroke-miterlimit="8" fill="#F0F4FA" fill-rule="evenodd"/><text fill="#2F5597" font-family="Arial,Arial_MSFontService,sans-serif" font-weight="700" font-size="21" transform="translate(937.965 343)">N<tspan x="15.0667" y="0">ote</tspan></text><path d="M961.5 354.5 961.5 372.403" stroke="#4472C4" stroke-width="3" stroke-miterlimit="8" fill="none" fill-rule="evenodd"/><path d="M923.5 490C923.5 486.41 926.41 483.5 930 483.5L993 483.5C996.59 483.5 999.5 486.41 999.5 490L999.5 516C999.5 519.59 996.59 522.5 993 522.5L930 522.5C926.41 522.5 923.5 519.59 923.5 516Z" stroke="#548235" stroke-width="3" stroke-miterlimit="8" fill="#EEF7E9" fill-rule="evenodd"/><text fill="#385723" font-family="Arial,Arial_MSFontService,sans-serif" font-weight="400" font-size="19" transform="translate(942.098 509)">pitch</text><path d="M923.5 541C923.5 537.41 926.41 534.5 930 534.5L993 534.5C996.59 534.5 999.5 537.41 999.5 541L999.5 567C999.5 570.59 996.59 573.5 993 573.5L930 573.5C926.41 573.5 923.5 570.59 923.5 567Z" stroke="#548235" stroke-width="3" stroke-miterlimit="8" fill="#EEF7E9" fill-rule="evenodd"/><text fill="#385723" font-family="Arial,Arial_MSFontService,sans-serif" font-weight="400" font-size="19" transform="translate(931.082 560)">velocity</text><path d="M1026.5 380.851C1026.5 376.239 1030.24 372.5 1034.85 372.5L1114.15 372.5C1118.76 372.5 1122.5 376.239 1122.5 380.851L1122.5 577.149C1122.5 581.761 1118.76 585.5 1114.15 585.5L1034.85 585.5C1030.24 585.5 1026.5 581.761 1026.5 577.149Z" stroke="#4472C4" stroke-width="3" stroke-miterlimit="8" fill="#F0F4FA" fill-rule="evenodd"/><path d="M1035.5 388C1035.5 384.41 1038.41 381.5 1042 381.5L1106 381.5C1109.59 381.5 1112.5 384.41 1112.5 388L1112.5 414C1112.5 417.59 1109.59 420.5 1106 420.5L1042 420.5C1038.41 420.5 1035.5 417.59 1035.5 414Z" stroke="#548235" stroke-width="3" stroke-miterlimit="8" fill="#EEF7E9" fill-rule="evenodd"/><text fill="#385723" font-family="Arial,Arial_MSFontService,sans-serif" font-weight="400" font-size="19" transform="translate(1056.71 407)">time</text><path d="M1035.5 439.834C1035.5 436.336 1038.34 433.5 1041.83 433.5L1106.17 433.5C1109.66 433.5 1112.5 436.336 1112.5 439.834L1112.5 465.167C1112.5 468.664 1109.66 471.5 1106.17 471.5L1041.83 471.5C1038.34 471.5 1035.5 468.664 1035.5 465.167Z" stroke="#548235" stroke-width="3" stroke-miterlimit="8" fill="#EEF7E9" fill-rule="evenodd"/><text fill="#385723" font-family="Arial,Arial_MSFontService,sans-serif" font-weight="400" font-size="19" transform="translate(1041.25 459)">duration</text><path d="M1035.5 322C1035.5 318.41 1038.41 315.5 1042 315.5L1106 315.5C1109.59 315.5 1112.5 318.41 1112.5 322L1112.5 348C1112.5 351.59 1109.59 354.5 1106 354.5L1042 354.5C1038.41 354.5 1035.5 351.59 1035.5 348Z" stroke="#4472C4" stroke-width="3" stroke-miterlimit="8" fill="#F0F4FA" fill-rule="evenodd"/><text fill="#2F5597" font-family="Arial,Arial_MSFontService,sans-serif" font-weight="700" font-size="21" transform="translate(1043.1 343)">C<tspan x="15.0667" y="0">hord</tspan></text><path d="M1074.5 354.5 1074.5 372.403" stroke="#4472C4" stroke-width="3" stroke-miterlimit="8" fill="none" fill-rule="evenodd"/><path d="M1035 489.5C1035 485.91 1037.91 483 1041.5 483L1105.5 483C1109.09 483 1112 485.91 1112 489.5L1112 515.5C1112 519.09 1109.09 522 1105.5 522L1041.5 522C1037.91 522 1035 519.09 1035 515.5Z" fill="#EEF7E9" fill-rule="evenodd"/><path d="M1032 489.203 1032.68 485.798 1034.78 482.783 1037.8 480.681 1041.2 480 1105.79 480 1109.26 480.677 1112.31 482.801 1114.33 485.83 1115 489.203 1115 515.79 1114.33 519.227 1112.29 522.288 1109.23 524.329 1105.79 525 1041.2 525 1037.83 524.325 1034.8 522.306 1032.68 519.258 1032 515.79ZM1034 515.597 1034.56 518.461 1036.23 520.852 1038.61 522.442 1041.4 523 1105.6 523 1108.45 522.443 1110.85 520.846 1112.44 518.451 1113 515.597 1113 489.401 1112.44 486.61 1110.85 484.225 1108.46 482.559 1105.6 482 1041.4 482 1038.6 482.56 1036.22 484.219 1034.56 486.599 1034 489.401ZM1036 489.599 1036.44 487.401 1037.66 485.656 1039.4 484.44 1041.6 484 1105.4 484 1107.66 484.441 1109.4 485.65 1110.56 487.39 1111 489.599 1111 515.403 1110.56 517.674 1109.4 519.404 1107.67 520.557 1105.4 521 1041.6 521 1039.39 520.558 1037.65 519.398 1036.44 517.664 1036 515.403ZM1038 515.21 1038.32 516.867 1039.07 517.944 1040.17 518.675 1041.8 519 1105.21 519 1106.9 518.671 1107.96 517.962 1108.67 516.898 1109 515.21 1109 489.797 1108.67 488.17 1107.94 487.074 1106.87 486.323 1105.21 486 1041.8 486 1040.2 486.319 1039.09 487.092 1038.32 488.202 1038 489.797Z" fill="#548235"/><text fill="#385723" font-family="Arial,Arial_MSFontService,sans-serif" font-weight="400" font-size="19" transform="translate(1045.2 509)">pitches</text><path d="M1035.5 541C1035.5 537.41 1038.41 534.5 1042 534.5L1106 534.5C1109.59 534.5 1112.5 537.41 1112.5 541L1112.5 567C1112.5 570.59 1109.59 573.5 1106 573.5L1042 573.5C1038.41 573.5 1035.5 570.59 1035.5 567Z" stroke="#548235" stroke-width="3" stroke-miterlimit="8" fill="#EEF7E9" fill-rule="evenodd"/><text fill="#385723" font-family="Arial,Arial_MSFontService,sans-serif" font-weight="400" font-size="19" transform="translate(1043.75 560)">velocity</text><path d="M293.5 522.179C293.5 516.833 297.833 512.5 303.179 512.5L734.821 512.5C740.167 512.5 744.5 516.833 744.5 522.179L744.5 607.821C744.5 613.167 740.167 617.5 734.821 617.5L303.179 617.5C297.833 617.5 293.5 613.167 293.5 607.821Z" stroke="#3B3838" stroke-width="3" stroke-miterlimit="8" fill="none" fill-rule="evenodd"/><path d="M493.5 526.667C493.5 524.918 494.918 523.5 496.667 523.5L529.333 523.5C531.082 523.5 532.5 524.918 532.5 526.667L532.5 539.333C532.5 541.082 531.082 542.5 529.333 542.5L496.667 542.5C494.918 542.5 493.5 541.082 493.5 539.333Z" stroke="#4472C4" stroke-width="3" stroke-miterlimit="8" fill="#F0F4FA" fill-rule="evenodd"/><text fill="#181717" font-family="Arial,Arial_MSFontService,sans-serif" font-weight="400" font-size="19" transform="translate(542.068 539)">Object</text><path d="M616.5 526.667C616.5 524.918 617.918 523.5 619.667 523.5L651.333 523.5C653.082 523.5 654.5 524.918 654.5 526.667L654.5 539.333C654.5 541.082 653.082 542.5 651.333 542.5L619.667 542.5C617.918 542.5 616.5 541.082 616.5 539.333Z" stroke="#767171" stroke-width="3" stroke-miterlimit="8" fill="#F2F2F2" fill-rule="evenodd"/><text fill="#181717" font-family="Arial,Arial_MSFontService,sans-serif" font-weight="400" font-size="19" transform="translate(663.399 539)">Boolean</text><path d="M306 526.167C306 524.418 307.418 523 309.167 523L341.833 523C343.582 523 345 524.418 345 526.167L345 538.833C345 540.582 343.582 542 341.833 542L309.167 542C307.418 542 306 540.582 306 538.833Z" fill="#F0F4FA" fill-rule="evenodd"/><path d="M303 525.89 303.429 523.745 304.78 521.78 306.745 520.429 308.89 520 342.172 520 344.317 520.429 346.338 521.819 347.584 523.812 348 525.89 348 539.172 347.584 541.25 346.302 543.302 344.25 544.584 342.172 545 308.89 545 306.812 544.584 304.819 543.339 303.429 541.317 303 539.172ZM305 538.974 305.31 540.522 306.231 541.863 307.562 542.695 309.088 543 341.974 543 343.5 542.695 344.851 541.851 345.695 540.5 346 538.974 346 526.089 345.695 524.562 344.863 523.231 343.522 522.31 341.974 522 309.088 522 307.54 522.31 306.218 523.218 305.31 524.54 305 526.089ZM307 526.286 307.19 525.335 307.657 524.657 308.335 524.19 309.287 524 341.776 524 342.728 524.19 343.387 524.644 343.805 525.313 344 526.286 344 538.776 343.805 539.75 343.399 540.399 342.75 540.805 341.776 541 309.287 541 308.313 540.805 307.644 540.387 307.19 539.728 307 538.776ZM309 538.578 309.071 538.933 309.056 538.911 309.063 538.916 309.485 539 341.578 539 342 538.916 341.948 538.948 341.916 539 342 538.578 342 526.485 341.916 526.063 341.912 526.056 341.933 526.071 341.578 526 309.485 526 309.13 526.071 309.095 526.095 309.071 526.13 309 526.485Z" fill="#4472C4"/><text fill="#181717" font-family="Arial,Arial_MSFontService,sans-serif" font-weight="400" font-size="19" transform="translate(357.138 539)">L<tspan x="10.3333" y="0">ist of objects</tspan><tspan x="184.931" y="32">I</tspan><tspan x="190.098" y="32">nteger</tspan></text><path d="M493.5 558.667C493.5 556.918 494.918 555.5 496.667 555.5L529.333 555.5C531.082 555.5 532.5 556.918 532.5 558.667L532.5 571.333C532.5 573.082 531.082 574.5 529.333 574.5L496.667 574.5C494.918 574.5 493.5 573.082 493.5 571.333Z" stroke="#548235" stroke-width="3" stroke-miterlimit="8" fill="#EEF7E9" fill-rule="evenodd"/><path d="M616.5 558.667C616.5 556.918 617.918 555.5 619.667 555.5L651.333 555.5C653.082 555.5 654.5 556.918 654.5 558.667L654.5 571.333C654.5 573.082 653.082 574.5 651.333 574.5L619.667 574.5C617.918 574.5 616.5 573.082 616.5 571.333Z" stroke="#7030A0" stroke-width="3" stroke-miterlimit="8" fill="#F5EBFF" fill-rule="evenodd"/><text fill="#181717" font-family="Arial,Arial_MSFontService,sans-serif" font-weight="400" font-size="19" transform="translate(663.399 571)">Any type</text><path d="M306 558.167C306 556.418 307.418 555 309.167 555L341.833 555C343.582 555 345 556.418 345 558.167L345 570.833C345 572.582 343.582 574 341.833 574L309.167 574C307.418 574 306 572.582 306 570.833Z" fill="#EEF7E9" fill-rule="evenodd"/><path d="M303 557.89 303.429 555.745 304.78 553.78 306.745 552.429 308.89 552 342.172 552 344.317 552.429 346.338 553.819 347.584 555.812 348 557.89 348 571.172 347.584 573.25 346.302 575.302 344.25 576.584 342.172 577 308.89 577 306.812 576.584 304.819 575.339 303.429 573.317 303 571.172ZM305 570.974 305.31 572.522 306.231 573.863 307.562 574.695 309.088 575 341.974 575 343.5 574.695 344.851 573.851 345.695 572.5 346 570.974 346 558.089 345.695 556.562 344.863 555.231 343.522 554.31 341.974 554 309.088 554 307.54 554.31 306.218 555.218 305.31 556.54 305 558.089ZM307 558.286 307.19 557.335 307.657 556.657 308.335 556.19 309.287 556 341.776 556 342.728 556.19 343.387 556.644 343.805 557.313 344 558.286 344 570.776 343.805 571.75 343.399 572.399 342.75 572.805 341.776 573 309.287 573 308.313 572.805 307.644 572.387 307.19 571.728 307 570.776ZM309 570.578 309.071 570.933 309.056 570.911 309.063 570.916 309.485 571 341.578 571 342 570.916 341.948 570.948 341.916 571 342 570.578 342 558.485 341.916 558.063 341.912 558.056 341.933 558.071 341.578 558 309.485 558 309.13 558.071 309.095 558.095 309.071 558.13 309 558.485Z" fill="#548235"/><text fill="#181717" font-family="Arial,Arial_MSFontService,sans-serif" font-weight="400" font-size="19" transform="translate(357.138 571)">L<tspan x="10.3333" y="0">ist of integers</tspan></text><path d="M493.5 589.833C493.5 587.992 494.992 586.5 496.833 586.5L529.167 586.5C531.008 586.5 532.5 587.992 532.5 589.833L532.5 603.167C532.5 605.008 531.008 606.5 529.167 606.5L496.833 606.5C494.992 606.5 493.5 605.008 493.5 603.167Z" stroke="#BF9000" stroke-width="3" stroke-miterlimit="8" fill="#FFF5D7" fill-rule="evenodd"/><text fill="#181717" font-family="Arial,Arial_MSFontService,sans-serif" font-weight="400" font-size="19" transform="translate(542.068 603)">String</text><path d="M306 589.333C306 587.492 307.492 586 309.333 586L341.667 586C343.508 586 345 587.492 345 589.333L345 602.667C345 604.508 343.508 606 341.667 606L309.333 606C307.492 606 306 604.508 306 602.667Z" fill="#FFF5D7" fill-rule="evenodd"/><path d="M303 589.092 303.425 586.863 304.847 584.847 306.863 583.424 309.092 583 341.971 583 344.199 583.424 346.266 584.883 347.587 586.925 348 589.092 348 602.971 347.587 605.137 346.232 607.232 344.137 608.587 341.971 609 309.092 609 306.925 608.587 304.883 607.266 303.425 605.199 303 602.971ZM305 602.782 305.308 604.4 306.294 605.797 307.683 606.696 309.281 607 341.782 607 343.379 606.696 344.786 605.786 345.696 604.379 346 602.782 346 589.281 345.696 587.683 344.797 586.294 343.4 585.308 341.782 585 309.281 585 307.663 585.308 306.282 586.282 305.308 587.663 305 589.281ZM307 589.469 307.192 588.462 307.718 587.718 308.462 587.192 309.469 587 341.593 587 342.6 587.192 343.328 587.706 343.804 588.442 344 589.469 344 602.593 343.804 603.621 343.339 604.339 342.621 604.804 341.593 605 309.469 605 308.442 604.804 307.706 604.328 307.192 603.6 307 602.593ZM309 602.404 309.075 602.801 309.117 602.859 309.2 602.913 309.658 603 341.404 603 341.863 602.913 341.893 602.893 341.913 602.863 342 602.404 342 589.658 341.913 589.2 341.859 589.117 341.801 589.076 341.404 589 309.658 589 309.262 589.076 309.153 589.153 309.075 589.262 309 589.658Z" fill="#BF9000"/><text fill="#181717" font-family="Arial,Arial_MSFontService,sans-serif" font-weight="400" font-size="19" transform="translate(357.138 603)">L<tspan x="10.3333" y="0">ist of strings</tspan></text></g></svg>