<svg width="564" height="361" xmlns="http://www.w3.org/2000/svg" xmlns:xlink="http://www.w3.org/1999/xlink" overflow="hidden"><defs><clipPath id="clip0"><path d="M234 185 798 185 798 546 234 546Z" fill-rule="evenodd" clip-rule="evenodd"/></clipPath></defs><g clip-path="url(#clip0)" transform="translate(-234 -185)"><path d="M373.5 342.5C373.5 338.082 377.082 334.5 381.5 334.5L519.5 334.5C523.918 334.5 527.5 338.082 527.5 342.5L527.5 374.5C527.5 378.918 523.918 382.5 519.5 382.5L381.5 382.5C377.082 382.5 373.5 378.918 373.5 374.5Z" stroke="#4472C4" stroke-width="3" stroke-miterlimit="8" fill="#F0F4FA" fill-rule="evenodd"/><text fill="#2F5597" font-family="Calibri,Calibri_MSFontService,sans-serif" font-weight="700" font-size="21" transform="translate(389.559 365)">MusPy object</text><path d="M396.5 460.5 428.167 460.5 434.5 466.833 434.5 508.5 396.5 508.5Z" stroke="#843C0C" stroke-width="3" stroke-miterlimit="8" fill="#FCEEE4" fill-rule="evenodd"/><text fill="#843C0C" font-family="Calibri,Calibri_MSFontService,sans-serif" font-weight="300" font-size="16" transform="translate(401.667 499)">.mid<tspan font-weight="400" font-size="19" x="-5.05002" y="29">MIDI</tspan></text><path d="M246.5 216.5 278.167 216.5 284.5 222.833 284.5 264.5 246.5 264.5Z" stroke="#4472C4" stroke-width="3" stroke-miterlimit="8" fill="#F0F4FA" fill-rule="evenodd"/><text fill="#2F5597" font-family="Calibri,Calibri_MSFontService,sans-serif" font-weight="400" font-size="16" transform="translate(250.588 255)">.<tspan font-weight="300" x="4" y="0">json</tspan><tspan font-size="19" x="-4.96666" y="-46">JSON</tspan></text><path d="M364.579 323.993 321.293 280.707 322.707 279.293 365.993 322.579ZM367.172 319.515 370 328 361.515 325.172Z" fill="#4472C4"/><path d="M364.293 333.707 321.007 290.421 322.421 289.007 365.707 332.293ZM319.828 293.485 317 285 325.485 287.828Z" fill="#4472C4"/><text fill="#2F5597" font-family="Calibri,Calibri_MSFontService,sans-serif" font-weight="300" font-size="19" transform="translate(300.652 325)">save<tspan x="54.547" y="-26">load</tspan></text><path d="M465.5 460.5 497.167 460.5 503.5 466.833 503.5 508.5 465.5 508.5Z" stroke="#843C0C" stroke-width="3" stroke-miterlimit="8" fill="#FCEEE4" fill-rule="evenodd"/><text fill="#843C0C" font-family="Calibri,Calibri_MSFontService,sans-serif" font-weight="400" font-size="16" transform="translate(471.597 499)">.<tspan font-weight="300" x="4" y="0">mxl</tspan><tspan font-size="19" x="-25.0376" y="30">MusicXML</tspan></text><rect x="596.5" y="188.5" width="200" height="87" stroke="#548235" stroke-width="3" stroke-miterlimit="8" fill="#EEF7E9"/><text fill="#385723" font-family="Arial,Arial_MSFontService,sans-serif" font-weight="400" font-size="21" transform="translate(605.896 212)">•<tspan font-family="Calibri,Calibri_MSFontService,sans-serif" x="18.3334" y="0">music21 object</tspan><tspan x="0" y="26">•</tspan><tspan font-family="Calibri,Calibri_MSFontService,sans-serif" x="18.3334" y="26">pretty_midi</tspan><tspan font-family="Calibri,Calibri_MSFontService,sans-serif" x="124.307" y="26">object</tspan><tspan x="0" y="51">•</tspan><tspan font-family="Calibri,Calibri_MSFontService,sans-serif" x="18.3334" y="51">pypianoroll</tspan><tspan font-family="Calibri,Calibri_MSFontService,sans-serif" x="120.713" y="51">object</tspan></text><path d="M5.42115 4.00693 48.7071 47.2929 47.2929 48.7071 4.00693 5.42115ZM2.82843 8.48528 0 0 8.48528 2.82843Z" fill="#4472C4" transform="matrix(-1 -8.74228e-08 -8.74228e-08 1 581 279)"/><path d="M0.707107-0.707107 43.9931 42.5789 42.5789 43.9931-0.707107 0.707107ZM45.1716 39.5147 48 48 39.5147 45.1716Z" fill="#4472C4" transform="matrix(-1 -8.74228e-08 -8.74228e-08 1 585 285)"/><text fill="#2F5597" font-family="Calibri,Calibri_MSFontService,sans-serif" font-weight="300" font-size="19" transform="translate(536.11 298)">to<tspan x="30.397" y="26">from</tspan></text><path d="M1.00001 6.66666 1.0001 57.6-0.999895 57.6-0.999988 6.66666ZM-3.99999 8.00001 0 0 4.00001 7.99999Z" fill="#4472C4" transform="matrix(1 0 0 -1 451 448.6)"/><path d="M1-1.82269e-06 1.00009 50.9333-0.999907 50.9333-1 1.82269e-06ZM4.00009 49.6 0.000104987 57.6-3.99991 49.6Z" fill="#4472C4" transform="matrix(1 0 0 -1 444 448.6)"/><text fill="#2F5597" font-family="Calibri,Calibri_MSFontService,sans-serif" font-weight="300" font-size="19" transform="translate(397.595 426)">read<tspan x="63.7835" y="0">write</tspan></text><path d="M298.5 216.5 330.167 216.5 336.5 222.833 336.5 264.5 298.5 264.5Z" stroke="#4472C4" stroke-width="3" stroke-miterlimit="8" fill="#F0F4FA" fill-rule="evenodd"/><text fill="#2F5597" font-family="Calibri,Calibri_MSFontService,sans-serif" font-weight="400" font-size="16" transform="translate(300.652 255)">.<tspan font-weight="300" x="4" y="0">yaml</tspan><tspan font-size="19" x="-4.80673" y="-46">YAML</tspan></text></g></svg>