<svg width="776" height="167" xmlns="http://www.w3.org/2000/svg" xmlns:xlink="http://www.w3.org/1999/xlink" overflow="hidden"><defs><clipPath id="clip0"><path d="M275 78 1051 78 1051 245 275 245Z" fill-rule="evenodd" clip-rule="evenodd"/></clipPath></defs><g clip-path="url(#clip0)" transform="translate(-275 -78)"><path d="M277.5 142.333C277.5 135.246 305.482 129.5 340 129.5 374.518 129.5 402.5 135.246 402.5 142.333L402.5 193.667C402.5 200.754 374.518 206.5 340 206.5 305.482 206.5 277.5 200.754 277.5 193.667Z" fill="#FCEEE4" fill-rule="evenodd"/><path d="M402.5 142.333C402.5 149.421 374.518 155.167 340 155.167 305.482 155.167 277.5 149.421 277.5 142.333" stroke="#843C0C" stroke-width="3" stroke-miterlimit="8" fill="none" fill-rule="evenodd"/><path d="M277.5 142.333C277.5 135.246 305.482 129.5 340 129.5 374.518 129.5 402.5 135.246 402.5 142.333L402.5 193.667C402.5 200.754 374.518 206.5 340 206.5 305.482 206.5 277.5 200.754 277.5 193.667Z" stroke="#843C0C" stroke-width="3" stroke-miterlimit="8" fill="none" fill-rule="evenodd"/><text fill="#843C0C" font-family="Arial,Arial_MSFontService,sans-serif" font-weight="400" font-size="24" transform="translate(301.517 176)">Source<tspan x="-1.33331" y="21">dataset</tspan></text><path d="M628.2 169 568.5 169 568.5 166 628.2 166ZM626.7 163 635.7 167.5 626.7 172Z" fill="#4472C4"/><text fill="#2F5597" font-family="Arial,Arial_MSFontService,sans-serif" font-weight="400" font-size="21" transform="translate(571.511 159)">parse<tspan fill="#843C0C" font-size="27" x="-119.299" y="-47">S</tspan><tspan fill="#843C0C" font-size="27" x="-101.465" y="-47">ource </tspan><tspan fill="#843C0C" font-size="27" x="-27.4654" y="-47">files</tspan></text><path d="M513.5 125.5 545.167 125.5 551.5 131.833 551.5 173.5 513.5 173.5Z" stroke="#843C0C" stroke-width="3" stroke-miterlimit="8" fill="#FCEEE4" fill-rule="evenodd"/><path d="M507.5 132.5 540 132.5 546.5 139 546.5 180.5 507.5 180.5Z" stroke="#843C0C" stroke-width="3" stroke-miterlimit="8" fill="#FCEEE4" fill-rule="evenodd"/><path d="M502.5 138.5 534.167 138.5 540.5 144.833 540.5 186.5 502.5 186.5Z" stroke="#843C0C" stroke-width="3" stroke-miterlimit="8" fill="#FCEEE4" fill-rule="evenodd"/><path d="M497.5 145.5 529.167 145.5 535.5 151.833 535.5 193.5 497.5 193.5Z" stroke="#843C0C" stroke-width="3" stroke-miterlimit="8" fill="#FCEEE4" fill-rule="evenodd"/><path d="M491.5 151.5 523.167 151.5 529.5 157.833 529.5 199.5 491.5 199.5Z" stroke="#843C0C" stroke-width="3" stroke-miterlimit="8" fill="#FCEEE4" fill-rule="evenodd"/><path d="M669.5 133.167C669.5 127.828 673.828 123.5 679.167 123.5L774.833 123.5C780.172 123.5 784.5 127.828 784.5 133.167L784.5 171.833C784.5 177.172 780.172 181.5 774.833 181.5L679.167 181.5C673.828 181.5 669.5 177.172 669.5 171.833Z" stroke="#4472C4" stroke-width="3" stroke-miterlimit="8" fill="#F0F4FA" fill-rule="evenodd"/><text fill="#2F5597" font-family="Arial,Arial_MSFontService,sans-serif" font-weight="400" font-size="21" transform="translate(698.768 148)">Music <tspan x="-5.92004" y="25">objects</tspan></text><path d="M664.5 140C664.5 134.753 668.753 130.5 674 130.5L770 130.5C775.247 130.5 779.5 134.753 779.5 140L779.5 178C779.5 183.247 775.247 187.5 770 187.5L674 187.5C668.753 187.5 664.5 183.247 664.5 178Z" stroke="#4472C4" stroke-width="3" stroke-miterlimit="8" fill="#F0F4FA" fill-rule="evenodd"/><text fill="#2F5597" font-family="Arial,Arial_MSFontService,sans-serif" font-weight="400" font-size="21" transform="translate(693.435 154)">Music <tspan x="-5.91998" y="25">objects</tspan></text><path d="M658.5 146.167C658.5 140.828 662.828 136.5 668.167 136.5L764.833 136.5C770.172 136.5 774.5 140.828 774.5 146.167L774.5 184.833C774.5 190.172 770.172 194.5 764.833 194.5L668.167 194.5C662.828 194.5 658.5 190.172 658.5 184.833Z" stroke="#4472C4" stroke-width="3" stroke-miterlimit="8" fill="#F0F4FA" fill-rule="evenodd"/><text fill="#2F5597" font-family="Arial,Arial_MSFontService,sans-serif" font-weight="400" font-size="21" transform="translate(688.101 160)">Music <tspan x="-5.91998" y="25">objects</tspan></text><path d="M653.5 153C653.5 147.753 657.753 143.5 663 143.5L759 143.5C764.247 143.5 768.5 147.753 768.5 153L768.5 191C768.5 196.247 764.247 200.5 759 200.5L663 200.5C657.753 200.5 653.5 196.247 653.5 191Z" stroke="#4472C4" stroke-width="3" stroke-miterlimit="8" fill="#F0F4FA" fill-rule="evenodd"/><text fill="#2F5597" font-family="Arial,Arial_MSFontService,sans-serif" font-weight="400" font-size="21" transform="translate(682.768 167)">Music <tspan x="-5.92004" y="25">objects</tspan></text><path d="M647.5 159.167C647.5 153.828 651.828 149.5 657.167 149.5L752.833 149.5C758.172 149.5 762.5 153.828 762.5 159.167L762.5 197.833C762.5 203.172 758.172 207.5 752.833 207.5L657.167 207.5C651.828 207.5 647.5 203.172 647.5 197.833Z" stroke="#4472C4" stroke-width="3" stroke-miterlimit="8" fill="#F0F4FA" fill-rule="evenodd"/><text fill="#2F5597" font-family="Arial,Arial_MSFontService,sans-serif" font-weight="400" font-size="24" transform="translate(674.065 172)">Music <tspan x="-6.40002" y="27">objects</tspan></text><path d="M423.5 163.25 462 163.25 462 158.5 471.5 168 462 177.5 462 172.75 423.5 172.75Z" stroke="#843C0C" stroke-width="3" stroke-miterlimit="8" fill="#FCEEE4" fill-rule="evenodd"/><text fill="#843C0C" font-family="Arial,Arial_MSFontService,sans-serif" font-weight="400" font-size="21" transform="translate(405.528 227)">(MIDI, <tspan x="64.3333" y="0">MusicXML</tspan><tspan x="163.833" y="0">, etc.)</tspan></text><path d="M870.8 169 801.5 169 801.5 166 870.8 166ZM869.3 163 878.3 167.5 869.3 172Z" fill="#4472C4"/><text fill="#2F5597" font-family="Arial,Arial_MSFontService,sans-serif" font-weight="400" font-size="24" transform="translate(891.469 176)">do <tspan x="33.3333" y="0">something</tspan><tspan font-size="21" x="-84.1376" y="-20">iterate</tspan></text></g></svg>