<svg width="756" height="255" xmlns="http://www.w3.org/2000/svg" xmlns:xlink="http://www.w3.org/1999/xlink" overflow="hidden"><defs><clipPath id="clip0"><path d="M264 398 1020 398 1020 653 264 653Z" fill-rule="evenodd" clip-rule="evenodd"/></clipPath></defs><g clip-path="url(#clip0)" transform="translate(-264 -398)"><rect x="414.5" y="488.5" width="168" height="61" stroke="#4472C4" stroke-width="3" stroke-miterlimit="8" fill="#F0F4FA"/><text fill="#2F5597" font-family="Arial,Arial_MSFontService,sans-serif" font-weight="700" font-size="21" transform="translate(474.962 514)">Data<tspan x="-50.3333" y="25">preprocessing</tspan></text><rect x="891.5" y="487.5" width="125" height="62" stroke="#4472C4" stroke-width="3" stroke-miterlimit="8" fill="#F0F4FA"/><text fill="#2F5597" font-family="Arial,Arial_MSFontService,sans-serif" font-weight="700" font-size="21" transform="translate(922.28 513)">Model<tspan x="-21.9133" y="25">evaluation</tspan></text><rect x="755.5" y="487.5" width="89" height="62" stroke="#A5A5A5" stroke-width="3" stroke-miterlimit="8" fill="#F2F2F2"/><text fill="#525252" font-family="Arial,Arial_MSFontService,sans-serif" font-weight="400" font-size="21" transform="translate(770.505 513)">Model<tspan x="-5.91998" y="25">training</tspan></text><rect x="615.5" y="487.5" width="96" height="62" stroke="#A5A5A5" stroke-width="3" stroke-miterlimit="8" fill="#F2F2F2"/><text fill="#525252" font-family="Arial,Arial_MSFontService,sans-serif" font-weight="400" font-size="21" transform="translate(633.572 513)">Model<tspan x="-8.91998" y="25">creation</tspan></text><rect x="267.5" y="487.5" width="120" height="62" stroke="#4472C4" stroke-width="3" stroke-miterlimit="8" fill="#F0F4FA"/><text fill="#2F5597" font-family="Arial,Arial_MSFontService,sans-serif" font-weight="700" font-size="21" transform="translate(304.057 513)">Data<tspan x="-26.7467" y="25">collection</tspan></text><path d="M387.031 515 399.093 515.126 399.03 521.125 386.969 521ZM396.155 509.095 414.061 518.281 395.968 527.094Z" fill="#4472C4"/><path d="M0.0257907-2.99989 17.7416-2.84758 17.69 3.1522-0.0257907 2.99989ZM14.7933-8.87315 32.7153 0.28126 14.6386 9.12618Z" fill="#4472C4" transform="matrix(1 0 0 -1 582 518.281)"/><path d="M711 515 740.001 515 740.001 521 711 521ZM737.001 509 755.001 518 737.001 527Z" fill="#A5A5A5"/><path d="M844.002 515 875.264 515.016 875.261 521.016 843.998 521ZM872.267 509.014 890.263 518.023 872.258 527.014Z" fill="#4472C4"/><path d="M511.5 408.5C511.5 404.082 515.082 400.5 519.5 400.5L676.5 400.5C680.918 400.5 684.5 404.082 684.5 408.5L684.5 440.5C684.5 444.918 680.918 448.5 676.5 448.5L519.5 448.5C515.082 448.5 511.5 444.918 511.5 440.5Z" stroke="#4472C4" stroke-width="3" stroke-miterlimit="8" fill="#F0F4FA" fill-rule="evenodd"/><text fill="#2F5597" font-family="Arial,Arial_MSFontService,sans-serif" font-weight="700" font-size="21" transform="translate(527.359 432)">MusPy<tspan x="74.6667" y="0">library</tspan></text><path d="M327.5 487.643C327.5 476.486 395.054 465.329 462.608 465.329 530.161 465.329 597.715 456.914 597.715 448.5" stroke="#4472C4" stroke-width="1.33333" stroke-miterlimit="8" fill="none" fill-rule="evenodd"/><path d="M498.5 487.924C498.5 478.068 523.328 468.212 548.157 468.212 572.985 468.212 597.813 458.356 597.813 448.5" stroke="#4472C4" stroke-width="1.33333" stroke-miterlimit="8" fill="none" fill-rule="evenodd"/><path d="M0 0C11.6144 0 23.2287 88.9395 23.2287 177.879 23.2287 266.818 31.1858 355.758 39.143 355.758" stroke="#4472C4" stroke-width="1.33333" stroke-miterlimit="8" fill="none" fill-rule="evenodd" transform="matrix(-4.37114e-08 -1 -1 4.37114e-08 953.258 487.643)"/><path d="M603.5 598C603.5 592.753 607.753 588.5 613 588.5L853 588.5C858.247 588.5 862.5 592.753 862.5 598L862.5 636C862.5 641.247 858.247 645.5 853 645.5L613 645.5C607.753 645.5 603.5 641.247 603.5 636Z" stroke="#A5A5A5" stroke-width="3" stroke-miterlimit="8" fill="#F2F2F2" fill-rule="evenodd"/><text fill="#525252" font-family="Arial,Arial_MSFontService,sans-serif" font-weight="400" font-size="21" transform="translate(619.204 614)">Machine learning library<tspan font-size="19" x="0.0733643" y="23">(e.g., </tspan><tspan font-size="19" x="47.5734" y="23">PyTorch</tspan><tspan font-size="19" x="114.84" y="23">, TensorFlow)</tspan></text><path d="M0 0C9.78579 0 19.5715 17.4297 19.5715 34.8593 19.5715 52.289 29.3573 69.7186 39.143 69.7186" stroke="#A5A5A5" stroke-width="1.33333" stroke-miterlimit="8" fill="none" fill-rule="evenodd" transform="matrix(-4.37114e-08 1 1 4.37114e-08 663.5 549.5)"/><path d="M799.715 549.5C799.715 559.286 782.911 569.072 766.107 569.072 749.304 569.072 732.5 578.857 732.5 588.643" stroke="#A5A5A5" stroke-width="1.33333" stroke-miterlimit="8" fill="none" fill-rule="evenodd"/></g></svg>