<svg width="869" height="173" xmlns="http://www.w3.org/2000/svg" xmlns:xlink="http://www.w3.org/1999/xlink" overflow="hidden"><defs><clipPath id="clip0"><path d="M226 339 1095 339 1095 512 226 512Z" fill-rule="evenodd" clip-rule="evenodd"/></clipPath></defs><g clip-path="url(#clip0)" transform="translate(-226 -339)"><path d="M228.5 403.333C228.5 396.246 256.482 390.5 291 390.5 325.518 390.5 353.5 396.246 353.5 403.333L353.5 454.667C353.5 461.754 325.518 467.5 291 467.5 256.482 467.5 228.5 461.754 228.5 454.667Z" fill="#FCEEE4" fill-rule="evenodd"/><path d="M353.5 403.333C353.5 410.421 325.518 416.167 291 416.167 256.482 416.167 228.5 410.421 228.5 403.333" stroke="#843C0C" stroke-width="3" stroke-miterlimit="8" fill="none" fill-rule="evenodd"/><path d="M228.5 403.333C228.5 396.246 256.482 390.5 291 390.5 325.518 390.5 353.5 396.246 353.5 403.333L353.5 454.667C353.5 461.754 325.518 467.5 291 467.5 256.482 467.5 228.5 461.754 228.5 454.667Z" stroke="#843C0C" stroke-width="3" stroke-miterlimit="8" fill="none" fill-rule="evenodd"/><text fill="#843C0C" font-family="Arial,Arial_MSFontService,sans-serif" font-weight="400" font-size="24" transform="translate(252.329 437)">Source<tspan x="-1.33334" y="21">dataset</tspan></text><path d="M576.2 430 516.5 430 516.5 427 576.2 427ZM574.7 424 583.7 428.5 574.7 433Z" fill="#4472C4"/><text fill="#2F5597" font-family="Arial,Arial_MSFontService,sans-serif" font-weight="400" font-size="21" transform="translate(520.495 420)">p<tspan x="11.8333" y="0">arse</tspan></text><path d="M463.5 386.5 496 386.5 502.5 393 502.5 434.5 463.5 434.5Z" stroke="#843C0C" stroke-width="3" stroke-miterlimit="8" fill="#FCEEE4" fill-rule="evenodd"/><path d="M458.5 393.5 490.167 393.5 496.5 399.833 496.5 441.5 458.5 441.5Z" stroke="#843C0C" stroke-width="3" stroke-miterlimit="8" fill="#FCEEE4" fill-rule="evenodd"/><path d="M453.5 399.5 485.167 399.5 491.5 405.833 491.5 447.5 453.5 447.5Z" stroke="#843C0C" stroke-width="3" stroke-miterlimit="8" fill="#FCEEE4" fill-rule="evenodd"/><path d="M447.5 406.5 480 406.5 486.5 413 486.5 454.5 447.5 454.5Z" stroke="#843C0C" stroke-width="3" stroke-miterlimit="8" fill="#FCEEE4" fill-rule="evenodd"/><path d="M442.5 412.5 474.167 412.5 480.5 418.833 480.5 460.5 442.5 460.5Z" stroke="#843C0C" stroke-width="3" stroke-miterlimit="8" fill="#FCEEE4" fill-rule="evenodd"/><path d="M619.5 396C619.5 390.753 623.753 386.5 629 386.5L725 386.5C730.247 386.5 734.5 390.753 734.5 396L734.5 434C734.5 439.247 730.247 443.5 725 443.5L629 443.5C623.753 443.5 619.5 439.247 619.5 434Z" stroke="#4472C4" stroke-width="3" stroke-miterlimit="8" fill="#F0F4FA" fill-rule="evenodd"/><text fill="#2F5597" font-family="Arial,Arial_MSFontService,sans-serif" font-weight="400" font-size="21" transform="translate(648.868 410)">Music <tspan x="-5.92004" y="25">objects</tspan></text><path d="M614.5 402.167C614.5 396.828 618.828 392.5 624.167 392.5L719.833 392.5C725.172 392.5 729.5 396.828 729.5 402.167L729.5 440.833C729.5 446.172 725.172 450.5 719.833 450.5L624.167 450.5C618.828 450.5 614.5 446.172 614.5 440.833Z" stroke="#4472C4" stroke-width="3" stroke-miterlimit="8" fill="#F0F4FA" fill-rule="evenodd"/><text fill="#2F5597" font-family="Arial,Arial_MSFontService,sans-serif" font-weight="400" font-size="21" transform="translate(643.535 416)">Music <tspan x="-5.91998" y="25">objects</tspan></text><path d="M608.5 409C608.5 403.753 612.753 399.5 618 399.5L715 399.5C720.247 399.5 724.5 403.753 724.5 409L724.5 447C724.5 452.247 720.247 456.5 715 456.5L618 456.5C612.753 456.5 608.5 452.247 608.5 447Z" stroke="#4472C4" stroke-width="3" stroke-miterlimit="8" fill="#F0F4FA" fill-rule="evenodd"/><text fill="#2F5597" font-family="Arial,Arial_MSFontService,sans-serif" font-weight="400" font-size="21" transform="translate(638.201 423)">Music <tspan x="-5.91998" y="25">objects</tspan></text><path d="M603.5 415.167C603.5 409.828 607.828 405.5 613.167 405.5L708.833 405.5C714.172 405.5 718.5 409.828 718.5 415.167L718.5 453.833C718.5 459.172 714.172 463.5 708.833 463.5L613.167 463.5C607.828 463.5 603.5 459.172 603.5 453.833Z" stroke="#4472C4" stroke-width="3" stroke-miterlimit="8" fill="#F0F4FA" fill-rule="evenodd"/><text fill="#2F5597" font-family="Arial,Arial_MSFontService,sans-serif" font-weight="400" font-size="21" transform="translate(632.868 429)">Music <tspan x="-5.92004" y="25">objects</tspan></text><path d="M597.5 422C597.5 416.753 601.753 412.5 607 412.5L703 412.5C708.247 412.5 712.5 416.753 712.5 422L712.5 460C712.5 465.247 708.247 469.5 703 469.5L607 469.5C601.753 469.5 597.5 465.247 597.5 460Z" stroke="#4472C4" stroke-width="3" stroke-miterlimit="8" fill="#F0F4FA" fill-rule="evenodd"/><text fill="#2F5597" font-family="Arial,Arial_MSFontService,sans-serif" font-weight="400" font-size="24" transform="translate(624.165 435)">Music <tspan x="-6.40002" y="27">objects</tspan><tspan font-size="27" x="143.634" y="-61">C</tspan><tspan font-size="27" x="162.967" y="-61">onverted </tspan><tspan font-size="27" x="273.967" y="-61">files</tspan></text><path d="M839.5 386.5 871.167 386.5 877.5 392.833 877.5 434.5 839.5 434.5Z" stroke="#4472C4" stroke-width="3" stroke-miterlimit="8" fill="#F0F4FA" fill-rule="evenodd"/><path d="M834.5 393.5 866.167 393.5 872.5 399.833 872.5 441.5 834.5 441.5Z" stroke="#4472C4" stroke-width="3" stroke-miterlimit="8" fill="#F0F4FA" fill-rule="evenodd"/><path d="M828.5 399.5 861 399.5 867.5 406 867.5 447.5 828.5 447.5Z" stroke="#4472C4" stroke-width="3" stroke-miterlimit="8" fill="#F0F4FA" fill-rule="evenodd"/><path d="M823.5 406.5 855.167 406.5 861.5 412.833 861.5 454.5 823.5 454.5Z" stroke="#4472C4" stroke-width="3" stroke-miterlimit="8" fill="#F0F4FA" fill-rule="evenodd"/><path d="M817.5 412.5 850 412.5 856.5 419 856.5 460.5 817.5 460.5Z" stroke="#4472C4" stroke-width="3" stroke-miterlimit="8" fill="#F0F4FA" fill-rule="evenodd"/><path d="M798.6 430 748.5 430 748.5 427 798.6 427ZM797.1 424 806.1 428.5 797.1 433Z" fill="#4472C4"/><text fill="#2F5597" font-family="Arial,Arial_MSFontService,sans-serif" font-weight="400" font-size="21" transform="translate(751.987 420)">save</text><path d="M962.5 403.333C962.5 396.246 990.482 390.5 1025 390.5 1059.52 390.5 1087.5 396.246 1087.5 403.333L1087.5 454.667C1087.5 461.754 1059.52 467.5 1025 467.5 990.482 467.5 962.5 461.754 962.5 454.667Z" fill="#F0F4FA" fill-rule="evenodd"/><path d="M1087.5 403.333C1087.5 410.421 1059.52 416.167 1025 416.167 990.482 416.167 962.5 410.421 962.5 403.333" stroke="#4472C4" stroke-width="3" stroke-miterlimit="8" fill="none" fill-rule="evenodd"/><path d="M962.5 403.333C962.5 396.246 990.482 390.5 1025 390.5 1059.52 390.5 1087.5 396.246 1087.5 403.333L1087.5 454.667C1087.5 461.754 1059.52 467.5 1025 467.5 990.482 467.5 962.5 461.754 962.5 454.667Z" stroke="#4472C4" stroke-width="3" stroke-miterlimit="8" fill="none" fill-rule="evenodd"/><text fill="#2F5597" font-family="Arial,Arial_MSFontService,sans-serif" font-weight="400" font-size="24" transform="translate(969.415 437)">C<tspan x="17.3334" y="0">onverted</tspan><tspan x="16" y="21">dataset</tspan></text><path d="M374.5 424.25 413 424.25 413 419.5 422.5 429 413 438.5 413 433.75 374.5 433.75Z" stroke="#843C0C" stroke-width="3" stroke-miterlimit="8" fill="#FCEEE4" fill-rule="evenodd"/><path d="M899.5 424.25 938 424.25 938 419.5 947.5 429 938 438.5 938 433.75 899.5 433.75Z" stroke="#4472C4" stroke-width="3" stroke-miterlimit="8" fill="#F0F4FA" fill-rule="evenodd"/><text fill="#843C0C" font-family="Arial,Arial_MSFontService,sans-serif" font-weight="400" font-size="27" transform="translate(402.84 374)">S<tspan x="17.8333" y="0">ource files</tspan><tspan font-size="21" x="-40.156" y="120">(MIDI, </tspan><tspan font-size="21" x="24.1773" y="120">MusicXML</tspan><tspan font-size="21" x="123.677" y="120">, etc</tspan><tspan font-size="21" x="164.177" y="120">.)</tspan><tspan fill="#2F5597" font-size="21" x="383.178" y="115">(JSON/YAML</tspan><tspan fill="#2F5597" font-size="21" x="509.592" y="115">)</tspan></text></g></svg>