<svg width="752" height="168" xmlns="http://www.w3.org/2000/svg" xmlns:xlink="http://www.w3.org/1999/xlink" overflow="hidden"><defs><clipPath id="clip0"><path d="M285 536 1037 536 1037 704 285 704Z" fill-rule="evenodd" clip-rule="evenodd"/></clipPath></defs><g clip-path="url(#clip0)" transform="translate(-285 -536)"><path d="M650.5 597C650.5 593.41 653.41 590.5 657 590.5L788 590.5C791.59 590.5 794.5 593.41 794.5 597L794.5 623C794.5 626.59 791.59 629.5 788 629.5L657 629.5C653.41 629.5 650.5 626.59 650.5 623Z" stroke="#4472C4" stroke-width="3" stroke-miterlimit="8" fill="#F0F4FA" fill-rule="evenodd"/><text fill="#2F5597" font-family="Calibri,Calibri_MSFontService,sans-serif" font-weight="400" font-size="21" transform="translate(662.235 617)">Music objects</text><path d="M292.5 600.333C292.5 593.246 318.244 587.5 350 587.5 381.756 587.5 407.5 593.246 407.5 600.333L407.5 651.667C407.5 658.754 381.756 664.5 350 664.5 318.244 664.5 292.5 658.754 292.5 651.667Z" fill="#F0F4FA" fill-rule="evenodd"/><path d="M407.5 600.333C407.5 607.421 381.756 613.167 350 613.167 318.244 613.167 292.5 607.421 292.5 600.333" stroke="#4472C4" stroke-width="3" stroke-miterlimit="8" fill="none" fill-rule="evenodd"/><path d="M292.5 600.333C292.5 593.246 318.244 587.5 350 587.5 381.756 587.5 407.5 593.246 407.5 600.333L407.5 651.667C407.5 658.754 381.756 664.5 350 664.5 318.244 664.5 292.5 658.754 292.5 651.667Z" stroke="#4472C4" stroke-width="3" stroke-miterlimit="8" fill="none" fill-rule="evenodd"/><text fill="#2F5597" font-family="Calibri,Calibri_MSFontService,sans-serif" font-weight="400" font-size="24" transform="translate(300.148 631)">converted<tspan x="12.94" y="21">dataset</tspan></text><path d="M612.6 627 562.5 627 562.5 624 612.6 624ZM611.1 621 620.1 625.5 611.1 630Z" fill="#4472C4"/><text fill="#2F5597" font-family="Calibri,Calibri_MSFontService,sans-serif" font-weight="400" font-size="21" transform="translate(571.796 618)">load</text><path d="M513.5 583.5 545.167 583.5 551.5 589.833 551.5 631.5 513.5 631.5Z" stroke="#4472C4" stroke-width="3" stroke-miterlimit="8" fill="#F0F4FA" fill-rule="evenodd"/><text fill="#2F5597" font-family="Calibri,Calibri_MSFontService,sans-serif" font-weight="400" font-size="27" transform="translate(446.721 570)">converted files</text><path d="M507.5 590.5 540 590.5 546.5 597 546.5 638.5 507.5 638.5Z" stroke="#4472C4" stroke-width="3" stroke-miterlimit="8" fill="#F0F4FA" fill-rule="evenodd"/><path d="M502.5 596.5 534.167 596.5 540.5 602.833 540.5 644.5 502.5 644.5Z" stroke="#4472C4" stroke-width="3" stroke-miterlimit="8" fill="#F0F4FA" fill-rule="evenodd"/><path d="M497.5 603.5 529.167 603.5 535.5 609.833 535.5 651.5 497.5 651.5Z" stroke="#4472C4" stroke-width="3" stroke-miterlimit="8" fill="#F0F4FA" fill-rule="evenodd"/><path d="M491.5 610.5 523.167 610.5 529.5 616.833 529.5 658.5 491.5 658.5Z" stroke="#4472C4" stroke-width="3" stroke-miterlimit="8" fill="#F0F4FA" fill-rule="evenodd"/><path d="M644.5 603C644.5 599.41 647.41 596.5 651 596.5L782 596.5C785.59 596.5 788.5 599.41 788.5 603L788.5 629C788.5 632.59 785.59 635.5 782 635.5L651 635.5C647.41 635.5 644.5 632.59 644.5 629Z" stroke="#4472C4" stroke-width="3" stroke-miterlimit="8" fill="#F0F4FA" fill-rule="evenodd"/><text fill="#2F5597" font-family="Calibri,Calibri_MSFontService,sans-serif" font-weight="400" font-size="21" transform="translate(656.901 623)">Music objects</text><path d="M639.5 609.833C639.5 606.336 642.336 603.5 645.833 603.5L777.167 603.5C780.664 603.5 783.5 606.336 783.5 609.833L783.5 635.167C783.5 638.664 780.664 641.5 777.167 641.5L645.833 641.5C642.336 641.5 639.5 638.664 639.5 635.167Z" stroke="#4472C4" stroke-width="3" stroke-miterlimit="8" fill="#F0F4FA" fill-rule="evenodd"/><text fill="#2F5597" font-family="Calibri,Calibri_MSFontService,sans-serif" font-weight="400" font-size="21" transform="translate(651.568 629)">Music objects</text><path d="M634.5 616.833C634.5 613.336 637.336 610.5 640.833 610.5L772.167 610.5C775.664 610.5 778.5 613.336 778.5 616.833L778.5 642.167C778.5 645.664 775.664 648.5 772.167 648.5L640.833 648.5C637.336 648.5 634.5 645.664 634.5 642.167Z" stroke="#4472C4" stroke-width="3" stroke-miterlimit="8" fill="#F0F4FA" fill-rule="evenodd"/><text fill="#2F5597" font-family="Calibri,Calibri_MSFontService,sans-serif" font-weight="400" font-size="21" transform="translate(646.235 636)">Music objects</text><path d="M628.5 622.833C628.5 619.336 631.336 616.5 634.833 616.5L766.167 616.5C769.664 616.5 772.5 619.336 772.5 622.833L772.5 648.167C772.5 651.664 769.664 654.5 766.167 654.5L634.833 654.5C631.336 654.5 628.5 651.664 628.5 648.167Z" stroke="#4472C4" stroke-width="3" stroke-miterlimit="8" fill="#F0F4FA" fill-rule="evenodd"/><text fill="#2F5597" font-family="Calibri,Calibri_MSFontService,sans-serif" font-weight="400" font-size="24" transform="translate(634.601 643)">Music objects</text><path d="M423.5 621.25 462 621.25 462 616.5 471.5 626 462 635.5 462 630.75 423.5 630.75Z" stroke="#4472C4" stroke-width="3" stroke-miterlimit="8" fill="#F0F4FA" fill-rule="evenodd"/><text fill="#2F5597" font-family="Calibri,Calibri_MSFontService,sans-serif" font-weight="400" font-size="21" transform="translate(469.411 685)">(JSON/YAML)</text><path d="M865.2 627 805.5 627 805.5 624 865.2 624ZM863.7 621 872.7 625.5 863.7 630Z" fill="#4472C4"/><text fill="#2F5597" font-family="Calibri,Calibri_MSFontService,sans-serif" font-weight="400" font-size="24" transform="translate(887.703 633)">do something<tspan font-size="21" x="-79.5993" y="-17">iterate</tspan></text></g></svg>