<svg width="851" height="168" xmlns="http://www.w3.org/2000/svg" xmlns:xlink="http://www.w3.org/1999/xlink" overflow="hidden"><defs><clipPath id="clip0"><path d="M240 339 1091 339 1091 507 240 507Z" fill-rule="evenodd" clip-rule="evenodd"/></clipPath></defs><g clip-path="url(#clip0)" transform="translate(-240 -339)"><path d="M601.5 400C601.5 396.41 604.41 393.5 608 393.5L739 393.5C742.59 393.5 745.5 396.41 745.5 400L745.5 426C745.5 429.59 742.59 432.5 739 432.5L608 432.5C604.41 432.5 601.5 429.59 601.5 426Z" stroke="#4472C4" stroke-width="3" stroke-miterlimit="8" fill="#F0F4FA" fill-rule="evenodd"/><text fill="#2F5597" font-family="Calibri,Calibri_MSFontService,sans-serif" font-weight="400" font-size="21" transform="translate(613.047 420)">Music objects</text><path d="M242.5 403.333C242.5 396.246 268.468 390.5 300.5 390.5 332.533 390.5 358.5 396.246 358.5 403.333L358.5 454.667C358.5 461.754 332.533 467.5 300.5 467.5 268.468 467.5 242.5 461.754 242.5 454.667Z" fill="#FCEEE4" fill-rule="evenodd"/><path d="M358.5 403.333C358.5 410.421 332.533 416.167 300.5 416.167 268.468 416.167 242.5 410.421 242.5 403.333" stroke="#843C0C" stroke-width="3" stroke-miterlimit="8" fill="none" fill-rule="evenodd"/><path d="M242.5 403.333C242.5 396.246 268.468 390.5 300.5 390.5 332.533 390.5 358.5 396.246 358.5 403.333L358.5 454.667C358.5 461.754 332.533 467.5 300.5 467.5 268.468 467.5 242.5 461.754 242.5 454.667Z" stroke="#843C0C" stroke-width="3" stroke-miterlimit="8" fill="none" fill-rule="evenodd"/><text fill="#843C0C" font-family="Calibri,Calibri_MSFontService,sans-serif" font-weight="400" font-size="24" transform="translate(267.673 434)">source<tspan x="-3.77332" y="21">dataset</tspan></text><path d="M563.6 430 513.5 430 513.5 427 563.6 427ZM562.1 424 571.1 428.5 562.1 433Z" fill="#4472C4"/><text fill="#2F5597" font-family="Calibri,Calibri_MSFontService,sans-serif" font-weight="400" font-size="21" transform="translate(517.624 421)">parse</text><path d="M463.5 386.5 496 386.5 502.5 393 502.5 434.5 463.5 434.5Z" stroke="#843C0C" stroke-width="3" stroke-miterlimit="8" fill="#FCEEE4" fill-rule="evenodd"/><path d="M458.5 393.5 490.167 393.5 496.5 399.833 496.5 441.5 458.5 441.5Z" stroke="#843C0C" stroke-width="3" stroke-miterlimit="8" fill="#FCEEE4" fill-rule="evenodd"/><path d="M453.5 399.5 485.167 399.5 491.5 405.833 491.5 447.5 453.5 447.5Z" stroke="#843C0C" stroke-width="3" stroke-miterlimit="8" fill="#FCEEE4" fill-rule="evenodd"/><path d="M447.5 406.5 480 406.5 486.5 413 486.5 454.5 447.5 454.5Z" stroke="#843C0C" stroke-width="3" stroke-miterlimit="8" fill="#FCEEE4" fill-rule="evenodd"/><path d="M442.5 412.5 474.167 412.5 480.5 418.833 480.5 460.5 442.5 460.5Z" stroke="#843C0C" stroke-width="3" stroke-miterlimit="8" fill="#FCEEE4" fill-rule="evenodd"/><path d="M595.5 406C595.5 402.41 598.41 399.5 602 399.5L733 399.5C736.59 399.5 739.5 402.41 739.5 406L739.5 432C739.5 435.59 736.59 438.5 733 438.5L602 438.5C598.41 438.5 595.5 435.59 595.5 432Z" stroke="#4472C4" stroke-width="3" stroke-miterlimit="8" fill="#F0F4FA" fill-rule="evenodd"/><text fill="#2F5597" font-family="Calibri,Calibri_MSFontService,sans-serif" font-weight="400" font-size="21" transform="translate(607.713 426)">Music objects</text><path d="M590.5 412.833C590.5 409.336 593.336 406.5 596.833 406.5L728.167 406.5C731.664 406.5 734.5 409.336 734.5 412.833L734.5 438.167C734.5 441.664 731.664 444.5 728.167 444.5L596.833 444.5C593.336 444.5 590.5 441.664 590.5 438.167Z" stroke="#4472C4" stroke-width="3" stroke-miterlimit="8" fill="#F0F4FA" fill-rule="evenodd"/><text fill="#2F5597" font-family="Calibri,Calibri_MSFontService,sans-serif" font-weight="400" font-size="21" transform="translate(602.38 432)">Music objects</text><path d="M585.5 419C585.5 415.41 588.41 412.5 592 412.5L723 412.5C726.59 412.5 729.5 415.41 729.5 419L729.5 445C729.5 448.59 726.59 451.5 723 451.5L592 451.5C588.41 451.5 585.5 448.59 585.5 445Z" stroke="#4472C4" stroke-width="3" stroke-miterlimit="8" fill="#F0F4FA" fill-rule="evenodd"/><text fill="#2F5597" font-family="Calibri,Calibri_MSFontService,sans-serif" font-weight="400" font-size="21" transform="translate(597.047 439)">Music objects</text><path d="M579.5 425.833C579.5 422.336 582.336 419.5 585.833 419.5L717.167 419.5C720.664 419.5 723.5 422.336 723.5 425.833L723.5 451.167C723.5 454.664 720.664 457.5 717.167 457.5L585.833 457.5C582.336 457.5 579.5 454.664 579.5 451.167Z" stroke="#4472C4" stroke-width="3" stroke-miterlimit="8" fill="#F0F4FA" fill-rule="evenodd"/><text fill="#2F5597" font-family="Calibri,Calibri_MSFontService,sans-serif" font-weight="400" font-size="24" transform="translate(585.413 446)">Music objects</text><path d="M845.5 386.5 878 386.5 884.5 393 884.5 434.5 845.5 434.5Z" stroke="#4472C4" stroke-width="3" stroke-miterlimit="8" fill="#F0F4FA" fill-rule="evenodd"/><text fill="#2F5597" font-family="Calibri,Calibri_MSFontService,sans-serif" font-weight="400" font-size="27" transform="translate(779.626 373)">converted files</text><path d="M840.5 393.5 873 393.5 879.5 400 879.5 441.5 840.5 441.5Z" stroke="#4472C4" stroke-width="3" stroke-miterlimit="8" fill="#F0F4FA" fill-rule="evenodd"/><path d="M835.5 399.5 867.167 399.5 873.5 405.833 873.5 447.5 835.5 447.5Z" stroke="#4472C4" stroke-width="3" stroke-miterlimit="8" fill="#F0F4FA" fill-rule="evenodd"/><path d="M829.5 406.5 862 406.5 868.5 413 868.5 454.5 829.5 454.5Z" stroke="#4472C4" stroke-width="3" stroke-miterlimit="8" fill="#F0F4FA" fill-rule="evenodd"/><path d="M824.5 412.5 856.167 412.5 862.5 418.833 862.5 460.5 824.5 460.5Z" stroke="#4472C4" stroke-width="3" stroke-miterlimit="8" fill="#F0F4FA" fill-rule="evenodd"/><path d="M805.6 430 755.5 430 755.5 427 805.6 427ZM804.1 424 813.1 428.5 804.1 433Z" fill="#4472C4"/><text fill="#2F5597" font-family="Calibri,Calibri_MSFontService,sans-serif" font-weight="400" font-size="21" transform="translate(764.99 421)">save</text><path d="M969.5 403.333C969.5 396.246 995.244 390.5 1027 390.5 1058.76 390.5 1084.5 396.246 1084.5 403.333L1084.5 454.667C1084.5 461.754 1058.76 467.5 1027 467.5 995.244 467.5 969.5 461.754 969.5 454.667Z" fill="#F0F4FA" fill-rule="evenodd"/><path d="M1084.5 403.333C1084.5 410.421 1058.76 416.167 1027 416.167 995.244 416.167 969.5 410.421 969.5 403.333" stroke="#4472C4" stroke-width="3" stroke-miterlimit="8" fill="none" fill-rule="evenodd"/><path d="M969.5 403.333C969.5 396.246 995.244 390.5 1027 390.5 1058.76 390.5 1084.5 396.246 1084.5 403.333L1084.5 454.667C1084.5 461.754 1058.76 467.5 1027 467.5 995.244 467.5 969.5 461.754 969.5 454.667Z" stroke="#4472C4" stroke-width="3" stroke-miterlimit="8" fill="none" fill-rule="evenodd"/><text fill="#2F5597" font-family="Calibri,Calibri_MSFontService,sans-serif" font-weight="400" font-size="24" transform="translate(977.228 434)">converted<tspan x="12.94" y="21">dataset</tspan></text><path d="M374.5 424.25 413 424.25 413 419.5 422.5 429 413 438.5 413 433.75 374.5 433.75Z" stroke="#843C0C" stroke-width="3" stroke-miterlimit="8" fill="#FCEEE4" fill-rule="evenodd"/><path d="M905.5 424.25 944 424.25 944 419.5 953.5 429 944 438.5 944 433.75 905.5 433.75Z" stroke="#4472C4" stroke-width="3" stroke-miterlimit="8" fill="#F0F4FA" fill-rule="evenodd"/><text fill="#843C0C" font-family="Calibri,Calibri_MSFontService,sans-serif" font-weight="400" font-size="27" transform="translate(416.043 373)">source files<tspan font-size="21" x="-37.2667" y="115">(MIDI, </tspan><tspan font-size="21" x="21.4" y="115">MusicXML</tspan><tspan font-size="21" x="111.247" y="115">, etc.)</tspan><tspan fill="#2F5597" font-size="21" x="380.94" y="115">(JSON/YAML)</tspan></text></g></svg>