<svg width="1151" height="367" xmlns="http://www.w3.org/2000/svg" xmlns:xlink="http://www.w3.org/1999/xlink" overflow="hidden"><defs><clipPath id="clip0"><path d="M65 179 1216 179 1216 546 65 546Z" fill-rule="evenodd" clip-rule="evenodd"/></clipPath></defs><g clip-path="url(#clip0)" transform="translate(-65 -179)"><path d="M373.5 342.5C373.5 338.082 377.082 334.5 381.5 334.5L519.5 334.5C523.918 334.5 527.5 338.082 527.5 342.5L527.5 374.5C527.5 378.918 523.918 382.5 519.5 382.5L381.5 382.5C377.082 382.5 373.5 378.918 373.5 374.5Z" stroke="#4472C4" stroke-width="3" stroke-miterlimit="8" fill="#F0F4FA" fill-rule="evenodd"/><text fill="#2F5597" font-family="Calibri,Calibri_MSFontService,sans-serif" font-weight="700" font-size="21" transform="translate(389.559 365)">MusPy object</text><path d="M396.5 460.5 428.167 460.5 434.5 466.833 434.5 508.5 396.5 508.5Z" stroke="#843C0C" stroke-width="3" stroke-miterlimit="8" fill="#FCEEE4" fill-rule="evenodd"/><text fill="#843C0C" font-family="Calibri,Calibri_MSFontService,sans-serif" font-weight="300" font-size="16" transform="translate(401.667 499)">.mid<tspan font-weight="400" font-size="19" x="-5.05002" y="29">MIDI</tspan></text><path d="M428.5 209.5 460.167 209.5 466.5 215.833 466.5 257.5 428.5 257.5Z" stroke="#4472C4" stroke-width="3" stroke-miterlimit="8" fill="#F0F4FA" fill-rule="evenodd"/><text fill="#2F5597" font-family="Calibri,Calibri_MSFontService,sans-serif" font-weight="400" font-size="16" transform="translate(432.589 248)">.<tspan font-weight="300" x="4" y="0">json</tspan><tspan font-size="19" x="-4.96664" y="-46">JSON</tspan></text><path d="M1.00001 6.66666 1.0001 57.6-0.999895 57.6-0.999988 6.66666ZM-3.99999 8.00001 0 0 4.00001 7.99999Z" fill="#4472C4" transform="matrix(1 0 0 -1 451 323.6)"/><path d="M1-1.82269e-06 1.00009 50.9333-0.999907 50.9333-1 1.82269e-06ZM4.00009 49.6 0.000104987 57.6-3.99991 49.6Z" fill="#4472C4" transform="matrix(1 0 0 -1 444 323.6)"/><path d="M353.933 359 303 359 303 357 353.933 357ZM352.6 354 360.6 358 352.6 362Z" fill="#4472C4"/><text fill="#2F5597" font-family="Calibri,Calibri_MSFontService,sans-serif" font-weight="300" font-size="19" transform="translate(401.135 301)">save<tspan x="60.2557" y="0">load</tspan><tspan x="-90.1135" y="46">parse</tspan></text><path d="M216.5 461.833C216.5 455.574 237.99 450.5 264.5 450.5 291.01 450.5 312.5 455.574 312.5 461.833L312.5 507.167C312.5 513.426 291.01 518.5 264.5 518.5 237.99 518.5 216.5 513.426 216.5 507.167Z" fill="#F2F2F2" fill-rule="evenodd"/><path d="M312.5 461.833C312.5 468.093 291.01 473.167 264.5 473.167 237.99 473.167 216.5 468.093 216.5 461.833" stroke="#A5A5A5" stroke-width="3" stroke-miterlimit="8" fill="none" fill-rule="evenodd"/><path d="M216.5 461.833C216.5 455.574 237.99 450.5 264.5 450.5 291.01 450.5 312.5 455.574 312.5 461.833L312.5 507.167C312.5 513.426 291.01 518.5 264.5 518.5 237.99 518.5 216.5 513.426 216.5 507.167Z" stroke="#A5A5A5" stroke-width="3" stroke-miterlimit="8" fill="none" fill-rule="evenodd"/><text fill="#525252" font-family="Calibri,Calibri_MSFontService,sans-serif" font-weight="400" font-size="21" transform="translate(228.971 490)">external<tspan x="-0.873337" y="19">datasets</tspan></text><path d="M327 483 377.933 483 377.933 485 327 485ZM376.6 480 384.6 484 376.6 488Z" fill="#A5A5A5"/><path d="M373 230 414.333 230 414.333 232 373 232ZM413 227 421 231 413 235Z" fill="#4472C4"/><rect x="612.5" y="315.5" width="281" height="87" stroke="#4472C4" stroke-width="3" stroke-miterlimit="8" fill="#F0F4FA"/><text fill="#2F5597" font-family="Arial,Arial_MSFontService,sans-serif" font-weight="400" font-size="21" transform="translate(622.088 339)">•<tspan font-family="Calibri,Calibri_MSFontService,sans-serif" x="18.3333" y="0">pianoroll</tspan><tspan font-family="Calibri,Calibri_MSFontService,sans-serif" x="99.9866" y="0">representation</tspan><tspan x="0" y="26">•</tspan><tspan font-family="Calibri,Calibri_MSFontService,sans-serif" x="18.3333" y="26">event</tspan><tspan font-family="Calibri,Calibri_MSFontService,sans-serif" x="67.1533" y="26">-</tspan><tspan font-family="Calibri,Calibri_MSFontService,sans-serif" x="73.6533" y="26">based representation</tspan><tspan x="0" y="51">•</tspan><tspan font-family="Calibri,Calibri_MSFontService,sans-serif" x="18.3333" y="51">note</tspan><tspan font-family="Calibri,Calibri_MSFontService,sans-serif" x="58.44" y="51">-</tspan><tspan font-family="Calibri,Calibri_MSFontService,sans-serif" x="64.94" y="51">based representation</tspan></text><path d="M379.667 237 421 237 421 239 379.667 239ZM381 242 373 238 381 234Z" fill="#4472C4"/><path d="M590.933 356 540 356 540 354 590.933 354ZM589.6 351 597.6 355 589.6 359Z" fill="#4472C4"/><path d="M597.6 363 546.667 363 546.667 361 597.6 361ZM548 366 540 362 548 358Z" fill="#4472C4"/><text fill="#2F5597" font-family="Calibri,Calibri_MSFontService,sans-serif" font-weight="300" font-size="19" transform="translate(551.089 384)">from<tspan x="10.2399" y="-40">to</tspan></text><path d="M465.5 460.5 497.167 460.5 503.5 466.833 503.5 508.5 465.5 508.5Z" stroke="#843C0C" stroke-width="3" stroke-miterlimit="8" fill="#FCEEE4" fill-rule="evenodd"/><text fill="#843C0C" font-family="Calibri,Calibri_MSFontService,sans-serif" font-weight="400" font-size="16" transform="translate(471.597 499)">.<tspan font-weight="300" x="4" y="0">mxl</tspan><tspan font-size="19" x="-25.0376" y="30">MusicXML</tspan></text><path d="M517 480 567.933 480 567.933 482 517 482ZM566.6 477 574.6 481 566.6 485Z" fill="#A5A5A5"/><rect x="587.5" y="455.5" width="312" height="58" stroke="#A5A5A5" stroke-width="3" stroke-miterlimit="8" fill="#F2F2F2"/><text fill="#525252" font-family="Calibri,Calibri_MSFontService,sans-serif" font-weight="400" font-size="21" transform="translate(671.171 480)">external systems<tspan font-weight="300" font-size="19" x="-73.0867" y="23">(e.g., synthesizers, </tspan><tspan font-weight="300" font-size="19" x="67.06" y="23">scorewriters</tspan><tspan font-weight="300" font-size="19" x="159.133" y="23">, DAWs)</tspan></text><rect x="969.5" y="455.5" width="227" height="58" stroke="#A5A5A5" stroke-width="3" stroke-miterlimit="8" fill="#F2F2F2"/><text fill="#525252" font-family="Calibri,Calibri_MSFontService,sans-serif" font-weight="400" font-size="21" transform="translate(1004.98 480)">external packages<tspan font-weight="300" font-size="19" x="-22.2333" y="23">(e.g., </tspan><tspan font-weight="300" font-size="19" x="19.1133" y="23">PyTorch</tspan><tspan font-weight="300" font-size="19" x="77.4733" y="23">, TensorFlow)</tspan></text><path d="M267.5 211.667C267.5 205.5 288.99 200.5 315.5 200.5 342.01 200.5 363.5 205.5 363.5 211.667L363.5 256.333C363.5 262.501 342.01 267.5 315.5 267.5 288.99 267.5 267.5 262.501 267.5 256.333Z" fill="#F0F4FA" fill-rule="evenodd"/><path d="M363.5 211.667C363.5 217.834 342.01 222.833 315.5 222.833 288.99 222.833 267.5 217.834 267.5 211.667" stroke="#4472C4" stroke-width="3" stroke-miterlimit="8" fill="none" fill-rule="evenodd"/><path d="M267.5 211.667C267.5 205.5 288.99 200.5 315.5 200.5 342.01 200.5 363.5 205.5 363.5 211.667L363.5 256.333C363.5 262.501 342.01 267.5 315.5 267.5 288.99 267.5 267.5 262.501 267.5 256.333Z" stroke="#4472C4" stroke-width="3" stroke-miterlimit="8" fill="none" fill-rule="evenodd"/><text fill="#2F5597" font-family="Calibri,Calibri_MSFontService,sans-serif" font-weight="400" font-size="21" transform="translate(284.475 241)">unified<tspan x="-1.96667" y="19">dataset</tspan></text><path d="M956.933 356 906 356 906 354 956.933 354ZM955.6 351 963.6 355 955.6 359Z" fill="#4472C4"/><path d="M963.6 363 912.667 363 912.667 361 963.6 361ZM914 366 906 362 914 358Z" fill="#4472C4"/><text fill="#2F5597" font-family="Calibri,Calibri_MSFontService,sans-serif" font-weight="300" font-size="19" transform="translate(917.204 384)">from<tspan x="10.2399" y="-40">to</tspan></text><path d="M164.945 212.393C164.604 212.393 164.148 212.393 163.806 212.393 163.806 212.393 163.806 212.393 163.806 212.393 163.806 207.491 161.073 202.99 156.63 200.189 152.074 197.388 146.265 196.688 141.025 198.288 136.697 190.886 127.129 187.085 118.017 188.985 108.904 190.886 102.298 198.088 102.298 206.391 102.298 206.391 102.298 206.491 102.298 206.591 96.0329 205.691 89.7681 207.991 85.8953 212.393 82.1365 216.894 81.4531 222.796 84.0728 227.797 86.8066 232.799 92.5018 236.1 98.7666 236.4L98.7666 236.5 164.832 236.5C172.349 236.5 178.5 231.098 178.5 224.496 178.5 217.894 172.463 212.393 164.945 212.393Z" stroke="#A5A5A5" stroke-width="3" stroke-miterlimit="8" fill="#F2F2F2" fill-rule="evenodd"/><text fill="#525252" font-family="Calibri,Calibri_MSFontService,sans-serif" font-weight="400" font-size="21" transform="translate(98.5765 226)">remote</text><path d="M131 244 131 285.333 129 285.333 129 244ZM134 284 130 292 126 284Z" fill="#4472C4"/><path d="M78 338.5C78 335.462 90.7599 333 106.5 333 122.24 333 135 335.462 135 338.5L135 360.5C135 363.538 122.24 366 106.5 366 90.7599 366 78 363.538 78 360.5Z" fill="#F0F4FA" fill-rule="evenodd"/><path d="M135 338.5C135 341.538 122.24 344 106.5 344 90.7599 344 78 341.538 78 338.5" stroke="#4472C4" stroke-width="2" stroke-miterlimit="8" fill="none" fill-rule="evenodd"/><path d="M78 338.5C78 335.462 90.7599 333 106.5 333 122.24 333 135 335.462 135 338.5L135 360.5C135 363.538 122.24 366 106.5 366 90.7599 366 78 363.538 78 360.5Z" stroke="#4472C4" stroke-width="2" stroke-miterlimit="8" fill="none" fill-rule="evenodd"/><text fill="#2F5597" font-family="Calibri,Calibri_MSFontService,sans-serif" font-weight="400" font-size="16" transform="translate(82.2035 359)">dataset</text><path d="M143 338.5C143 335.462 155.984 333 172 333 188.016 333 201 335.462 201 338.5L201 360.5C201 363.538 188.016 366 172 366 155.984 366 143 363.538 143 360.5Z" fill="#F0F4FA" fill-rule="evenodd"/><path d="M201 338.5C201 341.538 188.016 344 172 344 155.984 344 143 341.538 143 338.5" stroke="#4472C4" stroke-width="2" stroke-miterlimit="8" fill="none" fill-rule="evenodd"/><path d="M143 338.5C143 335.462 155.984 333 172 333 188.016 333 201 335.462 201 338.5L201 360.5C201 363.538 188.016 366 172 366 155.984 366 143 363.538 143 360.5Z" stroke="#4472C4" stroke-width="2" stroke-miterlimit="8" fill="none" fill-rule="evenodd"/><text fill="#2F5597" font-family="Calibri,Calibri_MSFontService,sans-serif" font-weight="400" font-size="16" transform="translate(148.107 359)">dataset</text><path d="M210 338.5C210 335.462 222.984 333 239 333 255.016 333 268 335.462 268 338.5L268 360.5C268 363.538 255.016 366 239 366 222.984 366 210 363.538 210 360.5Z" fill="#F0F4FA" fill-rule="evenodd"/><path d="M268 338.5C268 341.538 255.016 344 239 344 222.984 344 210 341.538 210 338.5" stroke="#4472C4" stroke-width="2" stroke-miterlimit="8" fill="none" fill-rule="evenodd"/><path d="M210 338.5C210 335.462 222.984 333 239 333 255.016 333 268 335.462 268 338.5L268 360.5C268 363.538 255.016 366 239 366 222.984 366 210 363.538 210 360.5Z" stroke="#4472C4" stroke-width="2" stroke-miterlimit="8" fill="none" fill-rule="evenodd"/><text fill="#2F5597" font-family="Calibri,Calibri_MSFontService,sans-serif" font-weight="400" font-size="16" transform="translate(214.734 359)">dataset</text><path d="M111 380.5C111 377.462 123.76 375 139.5 375 155.24 375 168 377.462 168 380.5L168 402.5C168 405.538 155.24 408 139.5 408 123.76 408 111 405.538 111 402.5Z" fill="#F0F4FA" fill-rule="evenodd"/><path d="M168 380.5C168 383.538 155.24 386 139.5 386 123.76 386 111 383.538 111 380.5" stroke="#4472C4" stroke-width="2" stroke-miterlimit="8" fill="none" fill-rule="evenodd"/><path d="M111 380.5C111 377.462 123.76 375 139.5 375 155.24 375 168 377.462 168 380.5L168 402.5C168 405.538 155.24 408 139.5 408 123.76 408 111 405.538 111 402.5Z" stroke="#4472C4" stroke-width="2" stroke-miterlimit="8" fill="none" fill-rule="evenodd"/><text fill="#2F5597" font-family="Calibri,Calibri_MSFontService,sans-serif" font-weight="400" font-size="16" transform="translate(115.546 401)">dataset</text><path d="M177 380.5C177 377.462 189.76 375 205.5 375 221.24 375 234 377.462 234 380.5L234 402.5C234 405.538 221.24 408 205.5 408 189.76 408 177 405.538 177 402.5Z" fill="#F0F4FA" fill-rule="evenodd"/><path d="M234 380.5C234 383.538 221.24 386 205.5 386 189.76 386 177 383.538 177 380.5" stroke="#4472C4" stroke-width="2" stroke-miterlimit="8" fill="none" fill-rule="evenodd"/><path d="M177 380.5C177 377.462 189.76 375 205.5 375 221.24 375 234 377.462 234 380.5L234 402.5C234 405.538 221.24 408 205.5 408 189.76 408 177 405.538 177 402.5Z" stroke="#4472C4" stroke-width="2" stroke-miterlimit="8" fill="none" fill-rule="evenodd"/><text fill="#2F5597" font-family="Calibri,Calibri_MSFontService,sans-serif" font-weight="400" font-size="16" transform="translate(181.318 401)">dataset</text><path d="M67.5001 320.667C67.5001 310.081 76.0814 301.5 86.667 301.5L259.333 301.5C269.919 301.5 278.5 310.081 278.5 320.667L278.5 397.333C278.5 407.919 269.919 416.5 259.333 416.5L86.667 416.5C76.0814 416.5 67.5001 407.919 67.5001 397.333Z" stroke="#4472C4" stroke-width="3" stroke-miterlimit="8" stroke-dasharray="3 3" fill="none" fill-rule="evenodd"/><rect x="978.5" y="327.5" width="208" height="62" stroke="#548235" stroke-width="3" stroke-miterlimit="8" fill="#EEF7E9"/><text fill="#385723" font-family="Arial,Arial_MSFontService,sans-serif" font-weight="400" font-size="21" transform="translate(988.067 352)">•<tspan font-family="Calibri,Calibri_MSFontService,sans-serif" x="18.3333" y="0">PyTorch</tspan><tspan font-family="Calibri,Calibri_MSFontService,sans-serif" x="91.0866" y="0">dataset</tspan><tspan x="0" y="26">•</tspan><tspan font-family="Calibri,Calibri_MSFontService,sans-serif" x="18.3333" y="26">TensorFlow dataset</tspan><tspan fill="#4472C4" font-family="Calibri,Calibri_MSFontService,sans-serif" font-weight="300" font-size="19" x="-846.711" y="-78">download</tspan></text><rect x="612.5" y="194.5" width="200" height="88" stroke="#548235" stroke-width="3" stroke-miterlimit="8" fill="#EEF7E9"/><text fill="#385723" font-family="Arial,Arial_MSFontService,sans-serif" font-weight="400" font-size="21" transform="translate(622.088 219)">•<tspan font-family="Calibri,Calibri_MSFontService,sans-serif" x="18.3333" y="0">music21 object</tspan><tspan x="0" y="26">•</tspan><tspan font-family="Calibri,Calibri_MSFontService,sans-serif" x="18.3333" y="26">pretty_midi</tspan><tspan font-family="Calibri,Calibri_MSFontService,sans-serif" x="124.307" y="26">object</tspan><tspan x="0" y="51">•</tspan><tspan font-family="Calibri,Calibri_MSFontService,sans-serif" x="18.3333" y="51">pypianoroll</tspan><tspan font-family="Calibri,Calibri_MSFontService,sans-serif" x="120.713" y="51">object</tspan></text><rect x="894.5" y="209.5" width="319" height="58" stroke="#A5A5A5" stroke-width="3" stroke-miterlimit="8" fill="#F2F2F2"/><text fill="#525252" font-family="Calibri,Calibri_MSFontService,sans-serif" font-weight="400" font-size="21" transform="translate(976.354 234)">external packages<tspan font-weight="300" font-size="19" x="-71.9733" y="23">(e.g., music21, </tspan><tspan font-weight="300" font-size="19" x="40.8734" y="23">pretty_midi</tspan><tspan font-weight="300" font-size="19" x="128.233" y="23">, </tspan><tspan font-weight="300" font-size="19" x="136.9" y="23">pypianoroll</tspan><tspan font-weight="300" font-size="19" x="220.773" y="23">)</tspan></text><path d="M824 234 874.933 234 874.933 236 824 236ZM873.6 231 881.6 235 873.6 239Z" fill="#A5A5A5"/><path d="M5.42114 4.00693 67.9071 66.4929 66.4929 67.9071 4.00693 5.42114ZM2.82843 8.48528 0 0 8.48528 2.82843Z" fill="#4472C4" transform="matrix(-1 -8.74228e-08 -8.74228e-08 1 596.2 249)"/><path d="M0.707107-0.707107 63.1931 61.7789 61.7789 63.1931-0.707107 0.707107ZM64.3716 58.7147 67.2 67.2 58.7147 64.3716Z" fill="#4472C4" transform="matrix(-1 -8.74228e-08 -8.74228e-08 1 600.2 255)"/><text fill="#2F5597" font-family="Calibri,Calibri_MSFontService,sans-serif" font-weight="300" font-size="19" transform="translate(542.274 278)">to<tspan x="26.3958" y="30">from</tspan></text><path d="M1.00001 6.66666 1.0001 57.6-0.999895 57.6-0.999988 6.66666ZM-3.99999 8.00001 0 0 4.00001 7.99999Z" fill="#4472C4" transform="matrix(1 0 0 -1 451 448.6)"/><path d="M1-1.82269e-06 1.00009 50.9333-0.999907 50.9333-1 1.82269e-06ZM4.00009 49.6 0.000104987 57.6-3.99991 49.6Z" fill="#4472C4" transform="matrix(1 0 0 -1 444 448.6)"/><text fill="#2F5597" font-family="Calibri,Calibri_MSFontService,sans-serif" font-weight="300" font-size="19" transform="translate(397.595 426)">read<tspan x="63.7835" y="0">write</tspan></text><path d="M881.6 242 830.667 242 830.667 240 881.6 240ZM832 245 824 241 832 237Z" fill="#A5A5A5"/><path d="M523.667 487 574.6 487 574.6 489 523.667 489ZM525 492 517 488 525 484Z" fill="#A5A5A5"/><path d="M1.00001 6.66665 1.0001 48-0.999895 48-0.999985 6.66666ZM-3.99998 8.00001 0 0 4.00002 7.99999Z" fill="#A5A5A5" transform="matrix(1 0 0 -1 1086 446)"/><path d="M1-2.18723e-06 1.00009 41.3333-0.99991 41.3333-1 2.18723e-06ZM4.00009 40 0.000104987 48-3.99991 40Z" fill="#A5A5A5" transform="matrix(1 0 0 -1 1078 446)"/><text fill="#2F5597" font-family="Calibri,Calibri_MSFontService,sans-serif" font-weight="300" font-size="19" transform="translate(91.7053 321)">dataset<tspan x="59.62" y="0">management</tspan></text></g></svg>