<svg width="1066" height="360" xmlns="http://www.w3.org/2000/svg" xmlns:xlink="http://www.w3.org/1999/xlink" overflow="hidden"><defs><clipPath id="clip0"><path d="M58 177 1124 177 1124 537 58 537Z" fill-rule="evenodd" clip-rule="evenodd"/></clipPath></defs><g clip-path="url(#clip0)" transform="translate(-58 -177)"><path d="M373.5 339C373.5 333.753 377.753 329.5 383 329.5L518 329.5C523.247 329.5 527.5 333.753 527.5 339L527.5 377C527.5 382.247 523.247 386.5 518 386.5L383 386.5C377.753 386.5 373.5 382.247 373.5 377Z" stroke="#4472C4" stroke-width="3" stroke-miterlimit="8" fill="#F0F4FA" fill-rule="evenodd"/><text fill="#2F5597" font-family="Arial,Arial_MSFontService,sans-serif" font-weight="700" font-size="19" transform="translate(419.885 352)">MusPy<tspan x="-22.1667" y="24">Music class</tspan></text><path d="M363.5 455.5 396 455.5 402.5 462 402.5 503.5 363.5 503.5Z" stroke="#843C0C" stroke-width="3" stroke-miterlimit="8" fill="#FCEEE4" fill-rule="evenodd"/><text fill="#843C0C" font-family="Arial,Arial_MSFontService,sans-serif" font-weight="400" font-size="15" transform="translate(369.462 494)">.mid<tspan font-size="16" x="-3.88342" y="29">MIDI</tspan></text><path d="M403.5 210.5 435.167 210.5 441.5 216.833 441.5 258.5 403.5 258.5Z" stroke="#4472C4" stroke-width="3" stroke-miterlimit="8" fill="#F0F4FA" fill-rule="evenodd"/><text fill="#2F5597" font-family="Arial,Arial_MSFontService,sans-serif" font-weight="400" font-size="15" transform="translate(407.311 250)">.json<tspan font-size="16" x="-6.63336" y="-46">JSON</tspan></text><path d="M1.00001 6.66665 1.0001 48-0.999895 48-0.999985 6.66666ZM-3.99998 8.00001 0 0 4.00002 7.99999Z" fill="#4472C4" transform="matrix(1 0 0 -1 451 320)"/><path d="M1-2.18723e-06 1.00009 41.3333-0.99991 41.3333-1 2.18723e-06ZM4.00009 40 0.000104987 48-3.99991 40Z" fill="#4472C4" transform="matrix(1 0 0 -1 444 320)"/><path d="M353.933 359 303 359 303 357 353.933 357ZM352.6 354 360.6 358 352.6 362Z" fill="#4472C4"/><text fill="#2F5597" font-family="Arial,Arial_MSFontService,sans-serif" font-weight="400" font-size="16" transform="translate(398.313 302)">save<tspan x="64.2447" y="0">load</tspan><tspan x="-86.7245" y="47">parse</tspan></text><path d="M194.5 456.667C194.5 450.5 215.99 445.5 242.5 445.5 269.01 445.5 290.5 450.5 290.5 456.667L290.5 501.333C290.5 507.501 269.01 512.5 242.5 512.5 215.99 512.5 194.5 507.501 194.5 501.333Z" fill="#F2F2F2" fill-rule="evenodd"/><path d="M290.5 456.667C290.5 462.834 269.01 467.833 242.5 467.833 215.99 467.833 194.5 462.834 194.5 456.667" stroke="#A5A5A5" stroke-width="3" stroke-miterlimit="8" fill="none" fill-rule="evenodd"/><path d="M194.5 456.667C194.5 450.5 215.99 445.5 242.5 445.5 269.01 445.5 290.5 450.5 290.5 456.667L290.5 501.333C290.5 507.501 269.01 512.5 242.5 512.5 215.99 512.5 194.5 507.501 194.5 501.333Z" stroke="#A5A5A5" stroke-width="3" stroke-miterlimit="8" fill="none" fill-rule="evenodd"/><text fill="#7C7C7C" font-family="Arial,Arial_MSFontService,sans-serif" font-weight="700" font-size="19" transform="translate(205.276 486)">External<tspan x="-0.91333" y="19">datasets</tspan></text><path d="M303 478 344.333 478 344.333 480 303 480ZM343 475 351 479 343 483Z" fill="#A5A5A5"/><path d="M345 231 386.333 231 386.333 233 345 233ZM385 228 393 232 385 236Z" fill="#4472C4"/><rect x="613.5" y="317.5" width="231" height="81" stroke="#4472C4" stroke-width="3" stroke-miterlimit="8" fill="#F0F4FA"/><text fill="#2F5597" font-family="Arial,Arial_MSFontService,sans-serif" font-weight="700" font-size="19" transform="translate(655.725 341)">Representations<tspan font-weight="400" font-size="16" x="-32.7466" y="24">• pitch</tspan><tspan font-weight="400" font-size="16" x="11.0867" y="24">-</tspan><tspan font-weight="400" font-size="16" x="16.42" y="24">based</tspan><tspan font-weight="400" font-size="16" x="81.5867" y="24">•</tspan><tspan font-weight="400" font-size="16" x="91.7534" y="24">piano</tspan><tspan font-weight="400" font-size="16" x="130.587" y="24">-</tspan><tspan font-weight="400" font-size="16" x="135.92" y="24">roll</tspan><tspan font-weight="400" font-size="16" x="-32.7466" y="47">• event</tspan><tspan font-weight="400" font-size="16" x="16.42" y="47">-</tspan><tspan font-weight="400" font-size="16" x="21.7534" y="47">based</tspan><tspan font-weight="400" font-size="16" x="81.5867" y="47">• note</tspan><tspan font-weight="400" font-size="16" x="122.753" y="47">-</tspan><tspan font-weight="400" font-size="16" x="128.087" y="47">based</tspan></text><path d="M351.667 238 393 238 393 240 351.667 240ZM353 243 345 239 353 235Z" fill="#4472C4"/><path d="M592.933 356 542 356 542 354 592.933 354ZM591.6 351 599.6 355 591.6 359Z" fill="#4472C4"/><path d="M599.6 363 548.667 363 548.667 361 599.6 361ZM550 366 542 362 550 358Z" fill="#4472C4"/><text fill="#2F5597" font-family="Arial,Arial_MSFontService,sans-serif" font-weight="400" font-size="16" transform="translate(554.755 383)">from<tspan x="9.33325" y="-38">to</tspan></text><path d="M429.5 455.5 461.167 455.5 467.5 461.833 467.5 503.5 429.5 503.5Z" stroke="#843C0C" stroke-width="3" stroke-miterlimit="8" fill="#FCEEE4" fill-rule="evenodd"/><text fill="#843C0C" font-family="Arial,Arial_MSFontService,sans-serif" font-weight="400" font-size="15" transform="translate(435.248 494)">.mxl<tspan font-size="16" x="-22.7942" y="29">MusicXML</tspan></text><path d="M542 474 583.333 474 583.333 476 542 476ZM582 471 590 475 582 479Z" fill="#A5A5A5"/><rect x="599.5" y="438.5" width="259" height="82" stroke="#A5A5A5" stroke-width="3" stroke-miterlimit="8" fill="#F2F2F2"/><text fill="#7C7C7C" font-family="Arial,Arial_MSFontService,sans-serif" font-weight="700" font-size="19" transform="translate(651.995 463)">External systems<tspan font-weight="400" font-size="16" x="-34" y="24">(e.g., music notation </tspan><tspan font-weight="400" font-size="16" x="114.333" y="24">softwares</tspan><tspan font-weight="400" font-size="16" x="182.667" y="24">, </tspan><tspan font-weight="400" font-size="16" x="-42.9533" y="47">synthesizers, sequencers, DAWs)</tspan></text><rect x="906.5" y="452.5" width="216" height="58" stroke="#A5A5A5" stroke-width="3" stroke-miterlimit="8" fill="#F2F2F2"/><text fill="#7C7C7C" font-family="Arial,Arial_MSFontService,sans-serif" font-weight="700" font-size="19" transform="translate(938.416 477)">External libraries<tspan font-weight="400" font-size="16" x="-21.58" y="24">(e.g., </tspan><tspan font-weight="400" font-size="16" x="19.42" y="24">PyTorch</tspan><tspan font-weight="400" font-size="16" x="77.1467" y="24">, TensorFlow)</tspan></text><path d="M239.5 212.667C239.5 206.5 260.99 201.5 287.5 201.5 314.01 201.5 335.5 206.5 335.5 212.667L335.5 257.333C335.5 263.501 314.01 268.5 287.5 268.5 260.99 268.5 239.5 263.501 239.5 257.333Z" fill="#F0F4FA" fill-rule="evenodd"/><path d="M335.5 212.667C335.5 218.834 314.01 223.833 287.5 223.833 260.99 223.833 239.5 218.834 239.5 212.667" stroke="#4472C4" stroke-width="3" stroke-miterlimit="8" fill="none" fill-rule="evenodd"/><path d="M239.5 212.667C239.5 206.5 260.99 201.5 287.5 201.5 314.01 201.5 335.5 206.5 335.5 212.667L335.5 257.333C335.5 263.501 314.01 268.5 287.5 268.5 260.99 268.5 239.5 263.501 239.5 257.333Z" stroke="#4472C4" stroke-width="3" stroke-miterlimit="8" fill="none" fill-rule="evenodd"/><text fill="#2F5597" font-family="Arial,Arial_MSFontService,sans-serif" font-weight="700" font-size="19" transform="translate(255.367 243)">Unified<tspan x="-1" y="19">dataset</tspan></text><path d="M907.933 356 857 356 857 354 907.933 354ZM906.6 351 914.6 355 906.6 359Z" fill="#4472C4"/><path d="M914.6 363 863.667 363 863.667 361 914.6 361ZM865 366 857 362 865 358Z" fill="#4472C4"/><text fill="#2F5597" font-family="Arial,Arial_MSFontService,sans-serif" font-weight="400" font-size="16" transform="translate(869.525 383)">from<tspan x="9.33319" y="-38">to</tspan></text><path d="M164.945 214.393C164.604 214.393 164.148 214.393 163.806 214.393 163.806 214.393 163.806 214.393 163.806 214.393 163.806 209.491 161.073 204.99 156.63 202.189 152.074 199.388 146.265 198.688 141.025 200.288 136.697 192.886 127.129 189.085 118.017 190.985 108.904 192.886 102.298 200.088 102.298 208.391 102.298 208.391 102.298 208.491 102.298 208.591 96.0329 207.691 89.7681 209.991 85.8953 214.393 82.1365 218.894 81.4531 224.796 84.0728 229.797 86.8066 234.799 92.5018 238.1 98.7666 238.4L98.7666 238.5 164.832 238.5C172.349 238.5 178.5 233.098 178.5 226.496 178.5 219.894 172.463 214.393 164.945 214.393Z" stroke="#A5A5A5" stroke-width="3" stroke-miterlimit="8" fill="#F2F2F2" fill-rule="evenodd"/><text fill="#7C7C7C" font-family="Arial,Arial_MSFontService,sans-serif" font-weight="700" font-size="19" transform="translate(96.3232 228)">Remote</text><path d="M131 248 131 279.733 129 279.733 129 248ZM134 278.4 130 286.4 126 278.4Z" fill="#4472C4"/><path d="M77 338.5C77 335.462 89.7599 333 105.5 333 121.24 333 134 335.462 134 338.5L134 360.5C134 363.538 121.24 366 105.5 366 89.7599 366 77 363.538 77 360.5Z" fill="#F0F4FA" fill-rule="evenodd"/><path d="M134 338.5C134 341.538 121.24 344 105.5 344 89.7599 344 77 341.538 77 338.5" stroke="#4472C4" stroke-width="2" stroke-miterlimit="8" fill="none" fill-rule="evenodd"/><path d="M77 338.5C77 335.462 89.7599 333 105.5 333 121.24 333 134 335.462 134 338.5L134 360.5C134 363.538 121.24 366 105.5 366 89.7599 366 77 363.538 77 360.5Z" stroke="#4472C4" stroke-width="2" stroke-miterlimit="8" fill="none" fill-rule="evenodd"/><text fill="#2F5597" font-family="Arial,Arial_MSFontService,sans-serif" font-weight="400" font-size="15" transform="translate(80.2007 359)">Dataset</text><path d="M146 338.5C146 335.462 158.984 333 175 333 191.016 333 204 335.462 204 338.5L204 360.5C204 363.538 191.016 366 175 366 158.984 366 146 363.538 146 360.5Z" fill="#F0F4FA" fill-rule="evenodd"/><path d="M204 338.5C204 341.538 191.016 344 175 344 158.984 344 146 341.538 146 338.5" stroke="#4472C4" stroke-width="2" stroke-miterlimit="8" fill="none" fill-rule="evenodd"/><path d="M146 338.5C146 335.462 158.984 333 175 333 191.016 333 204 335.462 204 338.5L204 360.5C204 363.538 191.016 366 175 366 158.984 366 146 363.538 146 360.5Z" stroke="#4472C4" stroke-width="2" stroke-miterlimit="8" fill="none" fill-rule="evenodd"/><text fill="#2F5597" font-family="Arial,Arial_MSFontService,sans-serif" font-weight="400" font-size="15" transform="translate(149.595 359)">Dataset</text><path d="M216 338.5C216 335.462 228.984 333 245 333 261.016 333 274 335.462 274 338.5L274 360.5C274 363.538 261.016 366 245 366 228.984 366 216 363.538 216 360.5Z" fill="#F0F4FA" fill-rule="evenodd"/><path d="M274 338.5C274 341.538 261.016 344 245 344 228.984 344 216 341.538 216 338.5" stroke="#4472C4" stroke-width="2" stroke-miterlimit="8" fill="none" fill-rule="evenodd"/><path d="M216 338.5C216 335.462 228.984 333 245 333 261.016 333 274 335.462 274 338.5L274 360.5C274 363.538 261.016 366 245 366 228.984 366 216 363.538 216 360.5Z" stroke="#4472C4" stroke-width="2" stroke-miterlimit="8" fill="none" fill-rule="evenodd"/><text fill="#2F5597" font-family="Arial,Arial_MSFontService,sans-serif" font-weight="400" font-size="15" transform="translate(219.714 359)">Dataset</text><path d="M112 381.5C112 378.462 124.76 376 140.5 376 156.24 376 169 378.462 169 381.5L169 403.5C169 406.538 156.24 409 140.5 409 124.76 409 112 406.538 112 403.5Z" fill="#F0F4FA" fill-rule="evenodd"/><path d="M169 381.5C169 384.538 156.24 387 140.5 387 124.76 387 112 384.538 112 381.5" stroke="#4472C4" stroke-width="2" stroke-miterlimit="8" fill="none" fill-rule="evenodd"/><path d="M112 381.5C112 378.462 124.76 376 140.5 376 156.24 376 169 378.462 169 381.5L169 403.5C169 406.538 156.24 409 140.5 409 124.76 409 112 406.538 112 403.5Z" stroke="#4472C4" stroke-width="2" stroke-miterlimit="8" fill="none" fill-rule="evenodd"/><text fill="#2F5597" font-family="Arial,Arial_MSFontService,sans-serif" font-weight="400" font-size="15" transform="translate(115.289 403)">Dataset</text><path d="M181 381.5C181 378.462 193.984 376 210 376 226.016 376 239 378.462 239 381.5L239 403.5C239 406.538 226.016 409 210 409 193.984 409 181 406.538 181 403.5Z" fill="#F0F4FA" fill-rule="evenodd"/><path d="M239 381.5C239 384.538 226.016 387 210 387 193.984 387 181 384.538 181 381.5" stroke="#4472C4" stroke-width="2" stroke-miterlimit="8" fill="none" fill-rule="evenodd"/><path d="M181 381.5C181 378.462 193.984 376 210 376 226.016 376 239 378.462 239 381.5L239 403.5C239 406.538 226.016 409 210 409 193.984 409 181 406.538 181 403.5Z" stroke="#4472C4" stroke-width="2" stroke-miterlimit="8" fill="none" fill-rule="evenodd"/><text fill="#2F5597" font-family="Arial,Arial_MSFontService,sans-serif" font-weight="400" font-size="15" transform="translate(184.552 403)">Dataset</text><path d="M60.5001 316.334C60.5001 304.828 69.8276 295.5 81.3338 295.5L270.666 295.5C282.172 295.5 291.5 304.828 291.5 316.334L291.5 399.666C291.5 411.172 282.172 420.5 270.666 420.5L81.3338 420.5C69.8276 420.5 60.5001 411.172 60.5001 399.666Z" stroke="#4472C4" stroke-width="3" stroke-miterlimit="8" stroke-dasharray="3 3" fill="none" fill-rule="evenodd"/><rect x="928.5" y="317.5" width="172" height="81" stroke="#548235" stroke-width="3" stroke-miterlimit="8" fill="#EEF7E9"/><text fill="#385723" font-family="Arial,Arial_MSFontService,sans-serif" font-weight="700" font-size="19" transform="translate(975.203 342)">Datasets<tspan font-weight="400" font-size="16" x="-38" y="24">• </tspan><tspan font-weight="400" font-size="16" x="-27.8334" y="24">PyTorch</tspan><tspan font-weight="400" font-size="16" x="34.3933" y="24">dataset</tspan><tspan font-weight="400" font-size="16" x="-38" y="47">• TensorFlow dataset</tspan><tspan fill="#4472C4" font-weight="400" font-size="16" x="-830.727" y="-71">download</tspan></text><rect x="613.5" y="181.5" width="231" height="105" stroke="#548235" stroke-width="3" stroke-miterlimit="8" fill="#EEF7E9"/><text fill="#385723" font-family="Arial,Arial_MSFontService,sans-serif" font-weight="700" font-size="19" transform="translate(694.478 206)">Objects<tspan font-weight="400" font-size="16" x="-51" y="24">(in other music libraries)</tspan><tspan font-weight="400" font-size="16" x="-71.5" y="47">• music21 </tspan><tspan font-weight="400" font-size="16" x="30.8333" y="47">• </tspan><tspan font-weight="400" font-size="16" x="41" y="47">pretty_midi</tspan><tspan font-weight="400" font-size="16" x="-71.5" y="70">• </tspan><tspan font-weight="400" font-size="16" x="-61.3334" y="70">mido</tspan><tspan font-weight="400" font-size="16" x="30.8333" y="70">• </tspan><tspan font-weight="400" font-size="16" x="41" y="70">Pypianoroll</tspan></text><rect x="928.5" y="179.5" width="172" height="104" stroke="#A5A5A5" stroke-width="3" stroke-miterlimit="8" fill="#F2F2F2"/><text fill="#7C7C7C" font-family="Arial,Arial_MSFontService,sans-serif" font-weight="700" font-size="19" transform="translate(938.42 204)">External libraries<tspan font-weight="400" font-size="16" x="23.1667" y="24">(e.g., music21,</tspan><tspan font-weight="400" font-size="16" x="12.58" y="47">mido</tspan><tspan font-weight="400" font-size="16" x="47.08" y="47">, </tspan><tspan font-weight="400" font-size="16" x="56.08" y="47">pretty_midi</tspan><tspan font-weight="400" font-size="16" x="134.08" y="47">,</tspan><tspan font-weight="400" font-size="16" x="33.58" y="70">Pypianoroll</tspan><tspan font-weight="400" font-size="16" x="112.247" y="70">)</tspan></text><path d="M856 227 906.933 227 906.933 229 856 229ZM905.6 224 913.6 228 905.6 232Z" fill="#A5A5A5"/><path d="M5.42114 4.00693 67.9071 66.4929 66.4929 67.9071 4.00693 5.42114ZM2.82843 8.48528 0 0 8.48528 2.82843Z" fill="#4472C4" transform="matrix(-1 -8.74228e-08 -8.74228e-08 1 597.2 249)"/><path d="M0.707107-0.707107 63.1931 61.7789 61.7789 63.1931-0.707107 0.707107ZM64.3716 58.7147 67.2 67.2 58.7147 64.3716Z" fill="#4472C4" transform="matrix(-1 -8.74228e-08 -8.74228e-08 1 602.2 255)"/><text fill="#2F5597" font-family="Arial,Arial_MSFontService,sans-serif" font-weight="400" font-size="16" transform="translate(546.779 279)">to<tspan x="25.5568" y="26">from</tspan></text><path d="M1.00001 6.66665 1.0001 48-0.999895 48-0.999985 6.66666ZM-3.99998 8.00001 0 0 4.00002 7.99999Z" fill="#4472C4" transform="matrix(1 0 0 -1 451 445)"/><path d="M1-2.18723e-06 1.00009 41.3333-0.99991 41.3333-1 2.18723e-06ZM4.00009 40 0.000104987 48-3.99991 40Z" fill="#4472C4" transform="matrix(1 0 0 -1 444 445)"/><text fill="#2F5597" font-family="Arial,Arial_MSFontService,sans-serif" font-weight="400" font-size="16" transform="translate(398.625 427)">read<tspan x="65.3302" y="0">write</tspan></text><path d="M913.6 237 862.667 237 862.667 235 913.6 235ZM864 240 856 236 864 232Z" fill="#A5A5A5"/><path d="M548.667 481 590 481 590 483 548.667 483ZM550 486 542 482 550 478Z" fill="#A5A5A5"/><path d="M1.00002 6.66666 1.0001 38.4-0.999895 38.4-0.999982 6.66667ZM-3.99998 8.00001 0 0 4.00002 7.99999Z" fill="#A5A5A5" transform="matrix(1 0 0 -1 1018 444.4)"/><path d="M1-2.73403e-06 1.00009 31.7333-0.999913 31.7333-1 2.73403e-06ZM4.00008 30.4 0.000104987 38.4-3.99992 30.4Z" fill="#A5A5A5" transform="matrix(1 0 0 -1 1011 444.4)"/><text fill="#2F5597" font-family="Arial,Arial_MSFontService,sans-serif" font-weight="700" font-size="19" transform="translate(81.3005 319)">Dataset<tspan x="72.3333" y="0">management</tspan></text><path d="M493.5 455.5 526 455.5 532.5 462 532.5 503.5 493.5 503.5Z" stroke="#843C0C" stroke-width="3" stroke-miterlimit="8" fill="#FCEEE4" fill-rule="evenodd"/><text fill="#843C0C" font-family="Arial,Arial_MSFontService,sans-serif" font-weight="400" font-size="15" transform="translate(499.269 494)">.abc<tspan font-size="16" x="-3.38321" y="29">ABC</tspan></text><path d="M456.5 210.5 488.167 210.5 494.5 216.833 494.5 258.5 456.5 258.5Z" stroke="#4472C4" stroke-width="3" stroke-miterlimit="8" fill="#F0F4FA" fill-rule="evenodd"/><text fill="#2F5597" font-family="Arial,Arial_MSFontService,sans-serif" font-weight="400" font-size="15" transform="translate(458.28 250)">.yaml<tspan font-size="16" x="-4.4567" y="-46">YAML</tspan></text></g></svg>