<svg width="584" height="342" xmlns="http://www.w3.org/2000/svg" xmlns:xlink="http://www.w3.org/1999/xlink" overflow="hidden"><defs><clipPath id="clip0"><path d="M655 179 1239 179 1239 521 655 521Z" fill-rule="evenodd" clip-rule="evenodd"/></clipPath></defs><g clip-path="url(#clip0)" transform="translate(-655 -179)"><text fill="#2F5597" font-family="Arial,Arial_MSFontService,sans-serif" font-weight="400" font-size="19" transform="translate(667.534 204)">Generated data</text><path d="M681.5 338.833C681.5 335.336 684.336 332.5 687.833 332.5L800.167 332.5C803.664 332.5 806.5 335.336 806.5 338.833L806.5 364.167C806.5 367.664 803.664 370.5 800.167 370.5L687.833 370.5C684.336 370.5 681.5 367.664 681.5 364.167Z" stroke="#4472C4" stroke-width="3" stroke-miterlimit="8" fill="#F0F4FA" fill-rule="evenodd"/><path d="M676.5 344.833C676.5 341.336 679.336 338.5 682.833 338.5L795.167 338.5C798.664 338.5 801.5 341.336 801.5 344.833L801.5 370.167C801.5 373.664 798.664 376.5 795.167 376.5L682.833 376.5C679.336 376.5 676.5 373.664 676.5 370.167Z" stroke="#4472C4" stroke-width="3" stroke-miterlimit="8" fill="#F0F4FA" fill-rule="evenodd"/><path d="M671.5 351.833C671.5 348.336 674.336 345.5 677.833 345.5L790.167 345.5C793.664 345.5 796.5 348.336 796.5 351.833L796.5 377.167C796.5 380.664 793.664 383.5 790.167 383.5L677.833 383.5C674.336 383.5 671.5 380.664 671.5 377.167Z" stroke="#4472C4" stroke-width="3" stroke-miterlimit="8" fill="#F0F4FA" fill-rule="evenodd"/><path d="M665.5 357.833C665.5 354.336 668.336 351.5 671.833 351.5L784.167 351.5C787.664 351.5 790.5 354.336 790.5 357.833L790.5 383.167C790.5 386.664 787.664 389.5 784.167 389.5L671.833 389.5C668.336 389.5 665.5 386.664 665.5 383.167Z" stroke="#4472C4" stroke-width="3" stroke-miterlimit="8" fill="#F0F4FA" fill-rule="evenodd"/><path d="M660.5 364.833C660.5 361.336 663.336 358.5 666.833 358.5L778.167 358.5C781.664 358.5 784.5 361.336 784.5 364.833L784.5 390.167C784.5 393.664 781.664 396.5 778.167 396.5L666.833 396.5C663.336 396.5 660.5 393.664 660.5 390.167Z" stroke="#4472C4" stroke-width="3" stroke-miterlimit="8" fill="#F0F4FA" fill-rule="evenodd"/><text fill="#2F5597" font-family="Arial,Arial_MSFontService,sans-serif" font-weight="400" font-size="19" transform="translate(667.225 384)">Music objects<tspan fill="#006600" x="177.051" y="-61"># Iterate over the generated samples</tspan><tspan fill="#000000" font-family="Lucida Console,Lucida Console_MSFontService,sans-serif" font-stretch="semi-condensed" x="177.051" y="-39">for sample in samples:</tspan><tspan fill="#006600" x="199.384" y="-8"># </tspan><tspan fill="#006600" x="214.884" y="-8">Convert samples to </tspan><tspan fill="#006600" x="380.384" y="-8">MusPy</tspan><tspan fill="#006600" x="442.551" y="-8">Music objects</tspan><tspan fill="#000000" font-family="Lucida Console,Lucida Console_MSFontService,sans-serif" font-stretch="semi-condensed" x="199.384" y="14">music = </tspan><tspan fill="#000000" font-family="Lucida Console,Lucida Console_MSFontService,sans-serif" font-stretch="semi-condensed" x="288.718" y="14">from_representation</tspan><tspan fill="#000000" font-family="Lucida Console,Lucida Console_MSFontService,sans-serif" font-stretch="semi-condensed" x="500.884" y="14">(</tspan><tspan fill="#000000" font-family="Lucida Console,Lucida Console_MSFontService,sans-serif" font-stretch="semi-condensed" x="221.718" y="36">sample, "</tspan><tspan fill="#000000" font-family="Lucida Console,Lucida Console_MSFontService,sans-serif" font-stretch="semi-condensed" x="322.218" y="36">pianoroll</tspan><tspan fill="#000000" font-family="Lucida Console,Lucida Console_MSFontService,sans-serif" font-stretch="semi-condensed" x="422.717" y="36">")</tspan></text><rect x="686.5" y="214.5" width="115" height="48" stroke="#4472C4" stroke-width="3" stroke-miterlimit="8" fill="#F0F4FA"/><rect x="681.5" y="221.5" width="115" height="48" stroke="#4472C4" stroke-width="3" stroke-miterlimit="8" fill="#F0F4FA"/><rect x="675.5" y="227.5" width="115" height="48" stroke="#4472C4" stroke-width="3" stroke-miterlimit="8" fill="#F0F4FA"/><rect x="670.5" y="234.5" width="115" height="48" stroke="#4472C4" stroke-width="3" stroke-miterlimit="8" fill="#F0F4FA"/><rect x="664.5" y="240.5" width="115" height="48" stroke="#4472C4" stroke-width="3" stroke-miterlimit="8" fill="#F0F4FA"/><path d="M674.5 261.5 709.381 261.5" stroke="#4472C4" stroke-width="3" stroke-miterlimit="8" fill="none" fill-rule="evenodd"/><path d="M666.5 263.5 675.778 263.5" stroke="#4472C4" stroke-width="3" stroke-miterlimit="8" fill="none" fill-rule="evenodd"/><path d="M710.5 269.5 736.214 269.5" stroke="#4472C4" stroke-width="3" stroke-miterlimit="8" fill="none" fill-rule="evenodd"/><path d="M758.5 271.5 779.62 271.5" stroke="#4472C4" stroke-width="3" stroke-miterlimit="8" fill="none" fill-rule="evenodd"/><path d="M735.5 274.5 757.75 274.5" stroke="#4472C4" stroke-width="3" stroke-miterlimit="8" fill="none" fill-rule="evenodd"/><path d="M734 297 734 319.133 732 319.133 732 297ZM737 317.8 733 325.8 729 317.8Z" fill="#4472C4"/><text fill="#006600" font-family="Arial,Arial_MSFontService,sans-serif" font-weight="400" font-size="19" transform="translate(866.609 473)"># Write the Music objects to MIDI files<tspan fill="#000000" font-family="Lucida Console,Lucida Console_MSFontService,sans-serif" font-stretch="semi-condensed" x="0" y="22">music.write</tspan><tspan fill="#000000" font-family="Lucida Console,Lucida Console_MSFontService,sans-serif" font-stretch="semi-condensed" x="122.833" y="22">(str(</tspan><tspan fill="#000000" font-family="Lucida Console,Lucida Console_MSFontService,sans-serif" font-stretch="semi-condensed" x="178.667" y="22">i</tspan><tspan fill="#000000" font-family="Lucida Console,Lucida Console_MSFontService,sans-serif" font-stretch="semi-condensed" x="189.833" y="22">) + ".mid")</tspan></text><path d="M727.5 441.5 760 441.5 766.5 448 766.5 489.5 727.5 489.5Z" stroke="#843C0C" stroke-width="3" stroke-miterlimit="8" fill="#FCEEE4" fill-rule="evenodd"/><path d="M722.5 447.5 754.167 447.5 760.5 453.833 760.5 495.5 722.5 495.5Z" stroke="#843C0C" stroke-width="3" stroke-miterlimit="8" fill="#FCEEE4" fill-rule="evenodd"/><path d="M717.5 454.5 749.167 454.5 755.5 460.833 755.5 502.5 717.5 502.5Z" stroke="#843C0C" stroke-width="3" stroke-miterlimit="8" fill="#FCEEE4" fill-rule="evenodd"/><path d="M711.5 461.5 744 461.5 750.5 468 750.5 509.5 711.5 509.5Z" stroke="#843C0C" stroke-width="3" stroke-miterlimit="8" fill="#FCEEE4" fill-rule="evenodd"/><path d="M706.5 467.5 738.167 467.5 744.5 473.833 744.5 515.5 706.5 515.5Z" stroke="#843C0C" stroke-width="3" stroke-miterlimit="8" fill="#FCEEE4" fill-rule="evenodd"/><text fill="#843C0C" font-family="Arial,Arial_MSFontService,sans-serif" font-weight="400" font-size="16" transform="translate(709.996 508)">.mid</text><path d="M734 404 734 426.133 732 426.133 732 404ZM737 424.8 733 432.8 729 424.8Z" fill="#4472C4"/></g></svg>