<svg width="541" height="342" xmlns="http://www.w3.org/2000/svg" xmlns:xlink="http://www.w3.org/1999/xlink" overflow="hidden"><defs><clipPath id="clip0"><path d="M354 362 895 362 895 704 354 704Z" fill-rule="evenodd" clip-rule="evenodd"/></clipPath></defs><g clip-path="url(#clip0)" transform="translate(-354 -362)"><text fill="#2F5597" font-family="Calibri,Calibri_MSFontService,sans-serif" font-weight="400" font-size="19" transform="translate(370.463 385)">generated data</text><path d="M381.5 521C381.5 517.41 384.41 514.5 388 514.5L490 514.5C493.59 514.5 496.5 517.41 496.5 521L496.5 547C496.5 550.59 493.59 553.5 490 553.5L388 553.5C384.41 553.5 381.5 550.59 381.5 547Z" stroke="#4472C4" stroke-width="3" stroke-miterlimit="8" fill="#F0F4FA" fill-rule="evenodd"/><path d="M376.5 527C376.5 523.41 379.41 520.5 383 520.5L485 520.5C488.59 520.5 491.5 523.41 491.5 527L491.5 553C491.5 556.59 488.59 559.5 485 559.5L383 559.5C379.41 559.5 376.5 556.59 376.5 553Z" stroke="#4472C4" stroke-width="3" stroke-miterlimit="8" fill="#F0F4FA" fill-rule="evenodd"/><path d="M370.5 533.833C370.5 530.336 373.336 527.5 376.833 527.5L480.167 527.5C483.664 527.5 486.5 530.336 486.5 533.833L486.5 559.167C486.5 562.664 483.664 565.5 480.167 565.5L376.833 565.5C373.336 565.5 370.5 562.664 370.5 559.167Z" stroke="#4472C4" stroke-width="3" stroke-miterlimit="8" fill="#F0F4FA" fill-rule="evenodd"/><path d="M365.5 540C365.5 536.41 368.41 533.5 372 533.5L474 533.5C477.59 533.5 480.5 536.41 480.5 540L480.5 566C480.5 569.59 477.59 572.5 474 572.5L372 572.5C368.41 572.5 365.5 569.59 365.5 566Z" stroke="#4472C4" stroke-width="3" stroke-miterlimit="8" fill="#F0F4FA" fill-rule="evenodd"/><path d="M359.5 546.833C359.5 543.336 362.336 540.5 365.833 540.5L468.167 540.5C471.664 540.5 474.5 543.336 474.5 546.833L474.5 572.167C474.5 575.664 471.664 578.5 468.167 578.5L365.833 578.5C362.336 578.5 359.5 575.664 359.5 572.167Z" stroke="#4472C4" stroke-width="3" stroke-miterlimit="8" fill="#F0F4FA" fill-rule="evenodd"/><text fill="#2F5597" font-family="Calibri,Calibri_MSFontService,sans-serif" font-weight="400" font-size="19" transform="translate(366.312 565)">Music objects<tspan fill="#006600" font-style="italic" x="173.151" y="-60"># Iterate over the generated samples</tspan><tspan fill="#000000" font-family="Consolas,Consolas_MSFontService,sans-serif" x="173.151" y="-37">for sample in samples:</tspan><tspan fill="#006600" font-style="italic" x="193.817" y="-15"># </tspan><tspan fill="#006600" font-style="italic" x="207.317" y="-15">Convert samples to </tspan><tspan fill="#006600" font-style="italic" x="355.931" y="-15">MusPy</tspan><tspan fill="#006600" font-style="italic" x="411.217" y="-15">Music objects</tspan><tspan fill="#000000" font-family="Consolas,Consolas_MSFontService,sans-serif" x="193.817" y="8">music = </tspan><tspan fill="#000000" font-family="Consolas,Consolas_MSFontService,sans-serif" x="276.484" y="8">from_representation</tspan><tspan fill="#000000" font-family="Consolas,Consolas_MSFontService,sans-serif" x="472.817" y="8">(</tspan><tspan fill="#000000" font-family="Consolas,Consolas_MSFontService,sans-serif" x="214.484" y="30">sample, "</tspan><tspan fill="#000000" font-family="Consolas,Consolas_MSFontService,sans-serif" x="307.484" y="30">pianoroll</tspan><tspan fill="#000000" font-family="Consolas,Consolas_MSFontService,sans-serif" x="400.484" y="30">")</tspan></text><rect x="381.5" y="397.5" width="115" height="48" stroke="#4472C4" stroke-width="3" stroke-miterlimit="8" fill="#F0F4FA"/><rect x="376.5" y="403.5" width="115" height="48" stroke="#4472C4" stroke-width="3" stroke-miterlimit="8" fill="#F0F4FA"/><rect x="370.5" y="410.5" width="116" height="48" stroke="#4472C4" stroke-width="3" stroke-miterlimit="8" fill="#F0F4FA"/><rect x="365.5" y="416.5" width="115" height="48" stroke="#4472C4" stroke-width="3" stroke-miterlimit="8" fill="#F0F4FA"/><rect x="359.5" y="423.5" width="115" height="48" stroke="#4472C4" stroke-width="3" stroke-miterlimit="8" fill="#F0F4FA"/><path d="M370.5 443.5 405.381 443.5" stroke="#4472C4" stroke-width="3" stroke-miterlimit="8" fill="none" fill-rule="evenodd"/><path d="M361.5 446.5 370.778 446.5" stroke="#4472C4" stroke-width="3" stroke-miterlimit="8" fill="none" fill-rule="evenodd"/><path d="M405.5 451.5 431.214 451.5" stroke="#4472C4" stroke-width="3" stroke-miterlimit="8" fill="none" fill-rule="evenodd"/><path d="M453.5 454.5 474.62 454.5" stroke="#4472C4" stroke-width="3" stroke-miterlimit="8" fill="none" fill-rule="evenodd"/><path d="M431.5 457.5 453.75 457.5" stroke="#4472C4" stroke-width="3" stroke-miterlimit="8" fill="none" fill-rule="evenodd"/><path d="M430 479 430 501.133 428 501.133 428 479ZM433 499.8 429 507.8 425 499.8Z" fill="#4472C4"/><text fill="#006600" font-family="Calibri,Calibri_MSFontService,sans-serif" font-style="italic" font-weight="400" font-size="19" transform="translate(560.296 656)"># Write the Music objects to MIDI files<tspan fill="#000000" font-family="Consolas,Consolas_MSFontService,sans-serif" font-style="normal" x="-0.166687" y="23">music.write</tspan><tspan fill="#000000" font-family="Consolas,Consolas_MSFontService,sans-serif" font-style="normal" x="113.5" y="23">(str(</tspan><tspan fill="#000000" font-family="Consolas,Consolas_MSFontService,sans-serif" font-style="normal" x="165.167" y="23">i</tspan><tspan fill="#000000" font-family="Consolas,Consolas_MSFontService,sans-serif" font-style="normal" x="175.5" y="23">) + ".mid")</tspan></text><path d="M423.5 623.5 455.167 623.5 461.5 629.833 461.5 671.5 423.5 671.5Z" stroke="#843C0C" stroke-width="3" stroke-miterlimit="8" fill="#FCEEE4" fill-rule="evenodd"/><path d="M417.5 630.5 450 630.5 456.5 637 456.5 678.5 417.5 678.5Z" stroke="#843C0C" stroke-width="3" stroke-miterlimit="8" fill="#FCEEE4" fill-rule="evenodd"/><path d="M412.5 636.5 444.167 636.5 450.5 642.833 450.5 684.5 412.5 684.5Z" stroke="#843C0C" stroke-width="3" stroke-miterlimit="8" fill="#FCEEE4" fill-rule="evenodd"/><path d="M407.5 643.5 439.167 643.5 445.5 649.833 445.5 691.5 407.5 691.5Z" stroke="#843C0C" stroke-width="3" stroke-miterlimit="8" fill="#FCEEE4" fill-rule="evenodd"/><path d="M401.5 649.5 433.167 649.5 439.5 655.833 439.5 697.5 401.5 697.5Z" stroke="#843C0C" stroke-width="3" stroke-miterlimit="8" fill="#FCEEE4" fill-rule="evenodd"/><text fill="#843C0C" font-family="Calibri,Calibri_MSFontService,sans-serif" font-weight="400" font-size="16" transform="translate(405.183 689)">.mid</text><path d="M430 586 430 608.133 428 608.133 428 586ZM433 606.8 429 614.8 425 606.8Z" fill="#4472C4"/></g></svg>